<svg width="1200" height="407" viewBox="0 0 1200 407" fill="none" xmlns="http://www.w3.org/2000/svg">
<rect x="80" y="314" width="77" height="52" fill="url(#paint0_linear_446_4781)" fill-opacity="0.25"/>
<rect x="175" y="314" width="130" height="52" fill="url(#paint1_linear_446_4781)" fill-opacity="0.25"/>
<rect x="323" y="314" width="95" height="52" fill="url(#paint2_linear_446_4781)" fill-opacity="0.25"/>
<rect x="436" y="314" width="77" height="52" fill="url(#paint3_linear_446_4781)" fill-opacity="0.25"/>
<rect x="531" y="314" width="164" height="52" fill="url(#paint4_linear_446_4781)" fill-opacity="0.25"/>
<rect x="713" y="314" width="148" height="52" fill="url(#paint5_linear_446_4781)" fill-opacity="0.25"/>
<rect x="879" y="314" width="113" height="52" fill="url(#paint6_linear_446_4781)" fill-opacity="0.25"/>
<path d="M3.562 104.827L2.47 106.192V109H1.014V99.926H2.47V104.268H2.535L3.64 102.76L5.863 99.926H7.54L4.55 103.748L7.657 109H5.993L3.562 104.827ZM11.6949 109.156C11.1229 109.156 10.6246 109.052 10.1999 108.844C9.78392 108.627 9.43726 108.32 9.15992 107.921C8.89126 107.522 8.69192 107.033 8.56192 106.452C8.43192 105.871 8.36692 105.208 8.36692 104.463C8.36692 103.726 8.43192 103.068 8.56192 102.487C8.69192 101.898 8.89126 101.404 9.15992 101.005C9.43726 100.606 9.78392 100.303 10.1999 100.095C10.6246 99.8783 11.1229 99.77 11.6949 99.77C12.2669 99.77 12.7609 99.8783 13.1769 100.095C13.6016 100.303 13.9483 100.606 14.2169 101.005C14.4943 101.404 14.6979 101.898 14.8279 102.487C14.9579 103.068 15.0229 103.726 15.0229 104.463C15.0229 105.208 14.9579 105.871 14.8279 106.452C14.6979 107.033 14.4943 107.522 14.2169 107.921C13.9483 108.32 13.6016 108.627 13.1769 108.844C12.7609 109.052 12.2669 109.156 11.6949 109.156ZM11.6949 107.947C12.3449 107.947 12.8043 107.704 13.0729 107.219C13.3416 106.725 13.4759 106.058 13.4759 105.217V103.696C13.4759 102.864 13.3416 102.205 13.0729 101.72C12.8043 101.226 12.3449 100.979 11.6949 100.979C11.0449 100.979 10.5856 101.226 10.3169 101.72C10.0483 102.205 9.91392 102.864 9.91392 103.696V105.23C9.91392 106.062 10.0483 106.725 10.3169 107.219C10.5856 107.704 11.0449 107.947 11.6949 107.947ZM21.9988 99.926V106.569C21.9988 106.959 21.9295 107.314 21.7908 107.635C21.6608 107.956 21.4702 108.229 21.2188 108.454C20.9762 108.679 20.6815 108.853 20.3348 108.974C19.9882 109.095 19.6025 109.156 19.1778 109.156C18.3805 109.156 17.7435 108.957 17.2668 108.558C16.7988 108.159 16.4955 107.609 16.3568 106.907L17.7348 106.621C17.8128 106.994 17.9602 107.306 18.1768 107.557C18.3935 107.808 18.7315 107.934 19.1908 107.934C19.6155 107.934 19.9448 107.808 20.1788 107.557C20.4215 107.297 20.5428 106.903 20.5428 106.374V101.148H17.3838V99.926H21.9988ZM27.2848 109.156C26.7128 109.156 26.2144 109.052 25.7898 108.844C25.3738 108.627 25.0271 108.32 24.7498 107.921C24.4811 107.522 24.2818 107.033 24.1518 106.452C24.0218 105.871 23.9568 105.208 23.9568 104.463C23.9568 103.726 24.0218 103.068 24.1518 102.487C24.2818 101.898 24.4811 101.404 24.7498 101.005C25.0271 100.606 25.3738 100.303 25.7898 100.095C26.2144 99.8783 26.7128 99.77 27.2848 99.77C27.8568 99.77 28.3508 99.8783 28.7668 100.095C29.1914 100.303 29.5381 100.606 29.8068 101.005C30.0841 101.404 30.2878 101.898 30.4178 102.487C30.5478 103.068 30.6128 103.726 30.6128 104.463C30.6128 105.208 30.5478 105.871 30.4178 106.452C30.2878 107.033 30.0841 107.522 29.8068 107.921C29.5381 108.32 29.1914 108.627 28.7668 108.844C28.3508 109.052 27.8568 109.156 27.2848 109.156ZM27.2848 107.947C27.9348 107.947 28.3941 107.704 28.6628 107.219C28.9314 106.725 29.0658 106.058 29.0658 105.217V103.696C29.0658 102.864 28.9314 102.205 28.6628 101.72C28.3941 101.226 27.9348 100.979 27.2848 100.979C26.6348 100.979 26.1754 101.226 25.9068 101.72C25.6381 102.205 25.5038 102.864 25.5038 103.696V105.23C25.5038 106.062 25.6381 106.725 25.9068 107.219C26.1754 107.704 26.6348 107.947 27.2848 107.947Z" fill="#F8F8F1"/>
<rect x="62" y="24" width="16" height="160" rx="2" fill="#30303C"/>
<rect x="62.5" y="24.5" width="15" height="159" rx="1.5" stroke="#505060" stroke-opacity="0.6"/>
<rect x="342" y="4.00012" width="16" height="80" rx="2" fill="#DEFF00"/>
<rect x="632" y="24" width="16" height="160" rx="2" fill="#A448FA"/>
<rect x="992" y="24" width="16" height="160" rx="2" fill="#1E1E1E"/>
<rect x="992.5" y="24.5" width="15" height="159" rx="1.5" stroke="#F8F8F2" stroke-opacity="0.22"/>
<path d="M78 24C78 24 144 24 210 14C276 4 342 4 342 4V84C342 84 278.946 84 210 94C141.054 104 78 104 78 104V24Z" fill="url(#paint7_linear_446_4781)" fill-opacity="0.35"/>
<path d="M78 104C78 104 139.5 104 216.5 119C293.5 134 355 134 355 134C355 134 410 134 493.5 119C577 104 632 104 632 104V184C632 184 579 184 493.5 199C408 214 355 214 355 214C355 214 288 214 216.5 199C145 184 78 184 78 184V104Z" fill="url(#paint8_linear_446_4781)" fill-opacity="0.35"/>
<path d="M358 4.00012C358 4.00012 440.025 4.00012 495 14.0001C549.975 24.0001 632 24.0001 632 24.0001V104C632 104 551.72 104 495 94.0001C438.28 84.0001 358 84.0001 358 84.0001V4.00012Z" fill="url(#paint9_linear_446_4781)" fill-opacity="0.35"/>
<rect x="648" y="24" width="344" height="160" fill="url(#paint10_linear_446_4781)" fill-opacity="0.35"/>
<path d="M86.88 61.02H89.25C89.85 61.02 90.32 61.1833 90.66 61.51C91 61.8367 91.17 62.2733 91.17 62.82C91.17 63.24 91.0667 63.57 90.86 63.81C90.66 64.05 90.4 64.22 90.08 64.32V64.35C90.4733 64.4433 90.7967 64.62 91.05 64.88C91.3033 65.1333 91.43 65.5033 91.43 65.99C91.43 66.27 91.3833 66.5333 91.29 66.78C91.1967 67.0267 91.0633 67.24 90.89 67.42C90.7233 67.6 90.5233 67.7433 90.29 67.85C90.0633 67.95 89.8167 68 89.55 68H86.88V61.02ZM89.3 67.27C89.6867 67.27 89.99 67.1833 90.21 67.01C90.43 66.8367 90.54 66.57 90.54 66.21V65.8C90.54 65.4467 90.43 65.1833 90.21 65.01C89.99 64.83 89.6867 64.74 89.3 64.74H87.72V67.27H89.3ZM89.16 64.05C89.5133 64.05 89.79 63.9733 89.99 63.82C90.19 63.66 90.29 63.42 90.29 63.1V62.71C90.29 62.39 90.19 62.15 89.99 61.99C89.79 61.83 89.5133 61.75 89.16 61.75H87.72V64.05H89.16ZM96.7361 68H95.8961V61.02H98.4361C99.0828 61.02 99.5761 61.1967 99.9161 61.55C100.256 61.9033 100.426 62.3967 100.426 63.03C100.426 63.5967 100.279 64.05 99.9861 64.39C99.6928 64.73 99.2661 64.9267 98.7061 64.98L100.486 68H99.5461L97.8461 65.02H96.7361V68ZM98.4161 64.31C98.7694 64.31 99.0428 64.2233 99.2361 64.05C99.4361 63.87 99.5361 63.6167 99.5361 63.29V62.77C99.5361 62.4433 99.4361 62.1933 99.2361 62.02C99.0428 61.84 98.7694 61.75 98.4161 61.75H96.7361V64.31H98.4161ZM104.832 68V67.33H106.572V61.69H104.832V61.02H109.152V61.69H107.412V67.33H109.152V68H104.832ZM113.888 68V61.02H118.188V61.75H114.728V64.1H118.068V64.83H114.728V67.27H118.188V68H113.888ZM122.884 68V61.02H127.284V61.75H123.724V64.1H126.984V64.83H123.724V68H122.884Z" fill="#F8F8F2" fill-opacity="0.75"/>
<path d="M370.81 48L370.22 46.01H367.77L367.18 48H366.31L368.45 41.02H369.56L371.7 48H370.81ZM369.04 41.91H368.95L367.97 45.28H370.02L369.04 41.91ZM375.836 48V47.33H377.576V41.69H375.836V41.02H380.156V41.69H378.416V47.33H380.156V48H375.836ZM393.888 48V41.02H396.428C397.075 41.02 397.568 41.1967 397.908 41.55C398.248 41.9033 398.418 42.3967 398.418 43.03C398.418 43.6633 398.248 44.1567 397.908 44.51C397.568 44.8633 397.075 45.04 396.428 45.04H394.728V48H393.888ZM394.728 44.31H396.408C396.762 44.31 397.035 44.2233 397.228 44.05C397.428 43.87 397.528 43.6167 397.528 43.29V42.77C397.528 42.4433 397.428 42.1933 397.228 42.02C397.035 41.84 396.762 41.75 396.408 41.75H394.728V44.31ZM403.724 48H402.884V41.02H405.424C406.071 41.02 406.564 41.1967 406.904 41.55C407.244 41.9033 407.414 42.3967 407.414 43.03C407.414 43.5967 407.268 44.05 406.974 44.39C406.681 44.73 406.254 44.9267 405.694 44.98L407.474 48H406.534L404.834 45.02H403.724V48ZM405.404 44.31C405.758 44.31 406.031 44.2233 406.224 44.05C406.424 43.87 406.524 43.6167 406.524 43.29V42.77C406.524 42.4433 406.424 42.1933 406.224 42.02C406.031 41.84 405.758 41.75 405.404 41.75H403.724V44.31H405.404ZM413.98 48.12C413.554 48.12 413.187 48.04 412.88 47.88C412.574 47.7133 412.32 47.4767 412.12 47.17C411.92 46.8633 411.774 46.4867 411.68 46.04C411.587 45.5933 411.54 45.0833 411.54 44.51C411.54 43.9433 411.587 43.4367 411.68 42.99C411.774 42.5367 411.92 42.1567 412.12 41.85C412.32 41.5433 412.574 41.31 412.88 41.15C413.187 40.9833 413.554 40.9 413.98 40.9C414.407 40.9 414.774 40.9833 415.08 41.15C415.387 41.31 415.64 41.5433 415.84 41.85C416.04 42.1567 416.187 42.5367 416.28 42.99C416.374 43.4367 416.42 43.9433 416.42 44.51C416.42 45.0833 416.374 45.5933 416.28 46.04C416.187 46.4867 416.04 46.8633 415.84 47.17C415.64 47.4767 415.387 47.7133 415.08 47.88C414.774 48.04 414.407 48.12 413.98 48.12ZM413.98 47.39C414.26 47.39 414.497 47.3367 414.69 47.23C414.884 47.1167 415.044 46.96 415.17 46.76C415.297 46.56 415.387 46.32 415.44 46.04C415.5 45.7533 415.53 45.4333 415.53 45.08V43.94C415.53 43.5933 415.5 43.2767 415.44 42.99C415.387 42.7033 415.297 42.46 415.17 42.26C415.044 42.06 414.884 41.9067 414.69 41.8C414.497 41.6867 414.26 41.63 413.98 41.63C413.7 41.63 413.464 41.6867 413.27 41.8C413.077 41.9067 412.917 42.06 412.79 42.26C412.664 42.46 412.57 42.7033 412.51 42.99C412.457 43.2767 412.43 43.5933 412.43 43.94V45.08C412.43 45.4333 412.457 45.7533 412.51 46.04C412.57 46.32 412.664 46.56 412.79 46.76C412.917 46.96 413.077 47.1167 413.27 47.23C413.464 47.3367 413.7 47.39 413.98 47.39ZM423.207 48.12C422.353 48.12 421.717 47.81 421.297 47.19C420.883 46.57 420.677 45.6767 420.677 44.51C420.677 43.3433 420.883 42.45 421.297 41.83C421.717 41.21 422.353 40.9 423.207 40.9C423.527 40.9 423.803 40.9433 424.037 41.03C424.27 41.1167 424.47 41.2333 424.637 41.38C424.803 41.5267 424.943 41.6933 425.057 41.88C425.17 42.06 425.27 42.2433 425.357 42.43L424.637 42.76C424.577 42.6067 424.507 42.4633 424.427 42.33C424.347 42.19 424.25 42.07 424.137 41.97C424.03 41.8633 423.9 41.78 423.747 41.72C423.6 41.66 423.42 41.63 423.207 41.63C422.653 41.63 422.24 41.84 421.967 42.26C421.7 42.68 421.567 43.24 421.567 43.94V45.08C421.567 45.78 421.7 46.34 421.967 46.76C422.24 47.18 422.653 47.39 423.207 47.39C423.42 47.39 423.6 47.36 423.747 47.3C423.9 47.24 424.03 47.16 424.137 47.06C424.25 46.9533 424.347 46.8333 424.427 46.7C424.507 46.56 424.577 46.4133 424.637 46.26L425.357 46.59C425.27 46.7833 425.17 46.97 425.057 47.15C424.943 47.33 424.803 47.4933 424.637 47.64C424.47 47.7867 424.27 47.9033 424.037 47.99C423.803 48.0767 423.527 48.12 423.207 48.12ZM429.873 48V41.02H434.173V41.75H430.713V44.1H434.053V44.83H430.713V47.27H434.173V48H429.873ZM440.949 48.12C440.322 48.12 439.809 48.0067 439.409 47.78C439.009 47.5467 438.679 47.25 438.419 46.89L439.029 46.39C439.302 46.73 439.589 46.9833 439.889 47.15C440.195 47.3167 440.559 47.4 440.979 47.4C441.485 47.4 441.872 47.2833 442.139 47.05C442.405 46.8167 442.539 46.49 442.539 46.07C442.539 45.73 442.442 45.4667 442.249 45.28C442.055 45.0867 441.719 44.95 441.239 44.87L440.459 44.74C440.119 44.68 439.832 44.59 439.599 44.47C439.372 44.35 439.189 44.2067 439.049 44.04C438.909 43.8667 438.809 43.68 438.749 43.48C438.689 43.2733 438.659 43.06 438.659 42.84C438.659 42.2 438.869 41.7167 439.289 41.39C439.709 41.0633 440.275 40.9 440.989 40.9C441.549 40.9 442.019 40.9933 442.399 41.18C442.785 41.3667 443.095 41.63 443.329 41.97L442.739 42.48C442.545 42.2267 442.312 42.02 442.039 41.86C441.765 41.7 441.412 41.62 440.979 41.62C440.505 41.62 440.142 41.72 439.889 41.92C439.635 42.12 439.509 42.42 439.509 42.82C439.509 43.1333 439.602 43.39 439.789 43.59C439.982 43.7833 440.325 43.9233 440.819 44.01L441.569 44.14C441.909 44.2 442.195 44.29 442.429 44.41C442.662 44.53 442.849 44.6733 442.989 44.84C443.135 45.0067 443.239 45.1933 443.299 45.4C443.359 45.6067 443.389 45.8233 443.389 46.05C443.389 46.6967 443.175 47.2033 442.749 47.57C442.329 47.9367 441.729 48.12 440.949 48.12ZM449.945 48.12C449.318 48.12 448.805 48.0067 448.405 47.78C448.005 47.5467 447.675 47.25 447.415 46.89L448.025 46.39C448.298 46.73 448.585 46.9833 448.885 47.15C449.192 47.3167 449.555 47.4 449.975 47.4C450.482 47.4 450.868 47.2833 451.135 47.05C451.402 46.8167 451.535 46.49 451.535 46.07C451.535 45.73 451.438 45.4667 451.245 45.28C451.052 45.0867 450.715 44.95 450.235 44.87L449.455 44.74C449.115 44.68 448.828 44.59 448.595 44.47C448.368 44.35 448.185 44.2067 448.045 44.04C447.905 43.8667 447.805 43.68 447.745 43.48C447.685 43.2733 447.655 43.06 447.655 42.84C447.655 42.2 447.865 41.7167 448.285 41.39C448.705 41.0633 449.272 40.9 449.985 40.9C450.545 40.9 451.015 40.9933 451.395 41.18C451.782 41.3667 452.092 41.63 452.325 41.97L451.735 42.48C451.542 42.2267 451.308 42.02 451.035 41.86C450.762 41.7 450.408 41.62 449.975 41.62C449.502 41.62 449.138 41.72 448.885 41.92C448.632 42.12 448.505 42.42 448.505 42.82C448.505 43.1333 448.598 43.39 448.785 43.59C448.978 43.7833 449.322 43.9233 449.815 44.01L450.565 44.14C450.905 44.2 451.192 44.29 451.425 44.41C451.658 44.53 451.845 44.6733 451.985 44.84C452.132 45.0067 452.235 45.1933 452.295 45.4C452.355 45.6067 452.385 45.8233 452.385 46.05C452.385 46.6967 452.172 47.2033 451.745 47.57C451.325 47.9367 450.725 48.12 449.945 48.12ZM456.801 48V47.33H458.541V41.69H456.801V41.02H461.121V41.69H459.381V47.33H461.121V48H456.801ZM466.587 42.12H466.517V48H465.757V41.02H466.947L469.327 46.9H469.397V41.02H470.157V48H468.967L466.587 42.12ZM478.393 47.07H478.343C478.283 47.2033 478.213 47.3333 478.133 47.46C478.053 47.5867 477.95 47.7 477.823 47.8C477.703 47.8933 477.556 47.97 477.383 48.03C477.21 48.09 477.003 48.12 476.763 48.12C476.003 48.12 475.436 47.8133 475.063 47.2C474.696 46.5867 474.513 45.7067 474.513 44.56C474.513 43.36 474.716 42.45 475.123 41.83C475.53 41.21 476.156 40.9 477.003 40.9C477.33 40.9 477.613 40.9433 477.853 41.03C478.093 41.1167 478.296 41.2333 478.463 41.38C478.636 41.5267 478.78 41.6933 478.893 41.88C479.006 42.06 479.1 42.2433 479.173 42.43L478.453 42.76C478.393 42.6067 478.323 42.4633 478.243 42.33C478.17 42.19 478.076 42.07 477.963 41.97C477.856 41.8633 477.726 41.78 477.573 41.72C477.42 41.66 477.24 41.63 477.033 41.63C476.473 41.63 476.06 41.84 475.793 42.26C475.533 42.68 475.403 43.24 475.403 43.94V45.02C475.403 45.3733 475.43 45.6967 475.483 45.99C475.536 46.2767 475.623 46.5267 475.743 46.74C475.87 46.9533 476.03 47.12 476.223 47.24C476.423 47.3533 476.666 47.41 476.953 47.41C477.406 47.41 477.76 47.2733 478.013 47C478.266 46.7267 478.393 46.3733 478.393 45.94V45.22H476.923V44.55H479.173V48H478.393V47.07Z" fill="#F8F8F2" fill-opacity="0.75"/>
<path d="M660.36 104.83H657.64V108H656.8V101.02H657.64V104.1H660.36V101.02H661.2V108H660.36V104.83ZM666.636 101.02V105.21C666.636 105.55 666.646 105.853 666.666 106.12C666.686 106.387 666.739 106.617 666.826 106.81C666.913 106.997 667.046 107.14 667.226 107.24C667.413 107.34 667.669 107.39 667.996 107.39C668.323 107.39 668.576 107.34 668.756 107.24C668.943 107.14 669.079 106.997 669.166 106.81C669.253 106.617 669.306 106.387 669.326 106.12C669.346 105.853 669.356 105.55 669.356 105.21V101.02H670.196V105.01C670.196 105.53 670.169 105.983 670.116 106.37C670.069 106.757 669.966 107.08 669.806 107.34C669.653 107.6 669.429 107.797 669.136 107.93C668.849 108.057 668.469 108.12 667.996 108.12C667.523 108.12 667.139 108.057 666.846 107.93C666.559 107.797 666.336 107.6 666.176 107.34C666.023 107.08 665.919 106.757 665.866 106.37C665.819 105.983 665.796 105.53 665.796 105.01V101.02H666.636ZM678.542 104.5V102.29H678.462L676.992 105.88L675.522 102.29H675.442V104.5V108H674.672V101.02H675.752L676.982 104.1H677.042L678.272 101.02H679.312V108H678.542V104.5ZM687.798 108L687.208 106.01H684.758L684.168 108H683.298L685.438 101.02H686.548L688.688 108H687.798ZM686.028 101.91H685.938L684.958 105.28H687.008L686.028 101.91ZM693.614 102.12H693.544V108H692.784V101.02H693.974L696.354 106.9H696.424V101.02H697.184V108H695.994L693.614 102.12ZM710.877 108V101.02H715.177V101.75H711.717V104.1H715.057V104.83H711.717V107.27H715.177V108H710.877ZM724.723 108H723.773L722.943 106.61L722.023 105.09H721.983L721.033 106.61L720.153 108H719.233L721.513 104.44L719.363 101.02H720.313L721.123 102.37L721.993 103.78H722.033L722.893 102.37L723.733 101.02H724.653L722.493 104.43L724.723 108ZM728.869 108V101.02H731.409C732.055 101.02 732.549 101.197 732.889 101.55C733.229 101.903 733.399 102.397 733.399 103.03C733.399 103.663 733.229 104.157 732.889 104.51C732.549 104.863 732.055 105.04 731.409 105.04H729.709V108H728.869ZM729.709 104.31H731.389C731.742 104.31 732.015 104.223 732.209 104.05C732.409 103.87 732.509 103.617 732.509 103.29V102.77C732.509 102.443 732.409 102.193 732.209 102.02C732.015 101.84 731.742 101.75 731.389 101.75H729.709V104.31ZM737.865 108V101.02H742.165V101.75H738.705V104.1H742.045V104.83H738.705V107.27H742.165V108H737.865ZM747.701 108H746.861V101.02H749.401C750.048 101.02 750.541 101.197 750.881 101.55C751.221 101.903 751.391 102.397 751.391 103.03C751.391 103.597 751.244 104.05 750.951 104.39C750.658 104.73 750.231 104.927 749.671 104.98L751.451 108H750.511L748.811 105.02H747.701V108ZM749.381 104.31C749.734 104.31 750.008 104.223 750.201 104.05C750.401 103.87 750.501 103.617 750.501 103.29V102.77C750.501 102.443 750.401 102.193 750.201 102.02C750.008 101.84 749.734 101.75 749.381 101.75H747.701V104.31H749.381ZM758.377 101.75V108H757.537V101.75H755.207V101.02H760.707V101.75H758.377ZM774.689 108H773.849V101.02H776.389C777.036 101.02 777.529 101.197 777.869 101.55C778.209 101.903 778.379 102.397 778.379 103.03C778.379 103.597 778.233 104.05 777.939 104.39C777.646 104.73 777.219 104.927 776.659 104.98L778.439 108H777.499L775.799 105.02H774.689V108ZM776.369 104.31C776.723 104.31 776.996 104.223 777.189 104.05C777.389 103.87 777.489 103.617 777.489 103.29V102.77C777.489 102.443 777.389 102.193 777.189 102.02C776.996 101.84 776.723 101.75 776.369 101.75H774.689V104.31H776.369ZM782.845 108V101.02H787.145V101.75H783.685V104.1H787.025V104.83H783.685V107.27H787.145V108H782.845ZM793.371 108L791.301 101.02H792.191L793.181 104.51L793.931 107.15H793.981L794.731 104.51L795.721 101.02H796.581L794.511 108H793.371ZM800.778 108V107.33H802.518V101.69H800.778V101.02H805.098V101.69H803.358V107.33H805.098V108H800.778ZM809.834 108V101.02H814.134V101.75H810.674V104.1H814.014V104.83H810.674V107.27H814.134V108H809.834ZM818.83 108L818.28 101.02H819.03L819.32 105.02L819.47 107.13H819.55L820.47 102.84H821.41L822.33 107.13H822.41L822.56 105.02L822.85 101.02H823.58L823.03 108H821.82L820.97 103.83H820.89L820.04 108H818.83Z" fill="#F8F8F2" fill-opacity="0.75"/>
<path d="M1016.9 108V101.02H1021.3V101.75H1017.74V104.1H1021V104.83H1017.74V108H1016.9ZM1025.84 108V107.33H1027.58V101.69H1025.84V101.02H1030.16V101.69H1028.42V107.33H1030.16V108H1025.84ZM1035.62 102.12H1035.55V108H1034.79V101.02H1035.98L1038.36 106.9H1038.43V101.02H1039.19V108H1038L1035.62 102.12ZM1043.83 108V107.33H1045.57V101.69H1043.83V101.02H1048.15V101.69H1046.41V107.33H1048.15V108H1043.83ZM1054.96 108.12C1054.34 108.12 1053.82 108.007 1053.42 107.78C1053.02 107.547 1052.69 107.25 1052.43 106.89L1053.04 106.39C1053.32 106.73 1053.6 106.983 1053.9 107.15C1054.21 107.317 1054.57 107.4 1054.99 107.4C1055.5 107.4 1055.89 107.283 1056.15 107.05C1056.42 106.817 1056.55 106.49 1056.55 106.07C1056.55 105.73 1056.46 105.467 1056.26 105.28C1056.07 105.087 1055.73 104.95 1055.25 104.87L1054.47 104.74C1054.13 104.68 1053.85 104.59 1053.61 104.47C1053.39 104.35 1053.2 104.207 1053.06 104.04C1052.92 103.867 1052.82 103.68 1052.76 103.48C1052.7 103.273 1052.67 103.06 1052.67 102.84C1052.67 102.2 1052.88 101.717 1053.3 101.39C1053.72 101.063 1054.29 100.9 1055 100.9C1055.56 100.9 1056.03 100.993 1056.41 101.18C1056.8 101.367 1057.11 101.63 1057.34 101.97L1056.75 102.48C1056.56 102.227 1056.33 102.02 1056.05 101.86C1055.78 101.7 1055.43 101.62 1054.99 101.62C1054.52 101.62 1054.16 101.72 1053.9 101.92C1053.65 102.12 1053.52 102.42 1053.52 102.82C1053.52 103.133 1053.62 103.39 1053.8 103.59C1054 103.783 1054.34 103.923 1054.83 104.01L1055.58 104.14C1055.92 104.2 1056.21 104.29 1056.44 104.41C1056.68 104.53 1056.86 104.673 1057 104.84C1057.15 105.007 1057.25 105.193 1057.31 105.4C1057.37 105.607 1057.4 105.823 1057.4 106.05C1057.4 106.697 1057.19 107.203 1056.76 107.57C1056.34 107.937 1055.74 108.12 1054.96 108.12ZM1065.34 104.83H1062.62V108H1061.78V101.02H1062.62V104.1H1065.34V101.02H1066.18V108H1065.34V104.83ZM1070.88 108V101.02H1075.18V101.75H1071.72V104.1H1075.06V104.83H1071.72V107.27H1075.18V108H1070.88ZM1079.92 101.02H1081.87C1082.73 101.02 1083.36 101.313 1083.78 101.9C1084.2 102.487 1084.41 103.357 1084.41 104.51C1084.41 105.663 1084.2 106.533 1083.78 107.12C1083.36 107.707 1082.73 108 1081.87 108H1079.92V101.02ZM1081.83 107.27C1082.39 107.27 1082.81 107.077 1083.09 106.69C1083.38 106.303 1083.52 105.757 1083.52 105.05V103.97C1083.52 103.263 1083.38 102.717 1083.09 102.33C1082.81 101.943 1082.39 101.75 1081.83 101.75H1080.76V107.27H1081.83ZM1097.91 101.02H1099.86C1100.72 101.02 1101.35 101.313 1101.77 101.9C1102.19 102.487 1102.4 103.357 1102.4 104.51C1102.4 105.663 1102.19 106.533 1101.77 107.12C1101.35 107.707 1100.72 108 1099.86 108H1097.91V101.02ZM1099.82 107.27C1100.38 107.27 1100.8 107.077 1101.08 106.69C1101.37 106.303 1101.51 105.757 1101.51 105.05V103.97C1101.51 103.263 1101.37 102.717 1101.08 102.33C1100.8 101.943 1100.38 101.75 1099.82 101.75H1098.75V107.27H1099.82ZM1106.86 108V101.02H1111.16V101.75H1107.7V104.1H1111.04V104.83H1107.7V107.27H1111.16V108H1106.86ZM1116.16 108V101.02H1117V107.27H1120.31V108H1116.16ZM1124.79 108V107.33H1126.53V101.69H1124.79V101.02H1129.11V101.69H1127.37V107.33H1129.11V108H1124.79ZM1135.38 108L1133.31 101.02H1134.2L1135.19 104.51L1135.94 107.15H1135.99L1136.74 104.51L1137.73 101.02H1138.59L1136.52 108H1135.38ZM1142.85 108V101.02H1147.15V101.75H1143.69V104.1H1147.03V104.83H1143.69V107.27H1147.15V108H1142.85ZM1152.68 108H1151.84V101.02H1154.38C1155.03 101.02 1155.52 101.197 1155.86 101.55C1156.2 101.903 1156.37 102.397 1156.37 103.03C1156.37 103.597 1156.22 104.05 1155.93 104.39C1155.64 104.73 1155.21 104.927 1154.65 104.98L1156.43 108H1155.49L1153.79 105.02H1152.68V108ZM1154.36 104.31C1154.71 104.31 1154.99 104.223 1155.18 104.05C1155.38 103.87 1155.48 103.617 1155.48 103.29V102.77C1155.48 102.443 1155.38 102.193 1155.18 102.02C1154.99 101.84 1154.71 101.75 1154.36 101.75H1152.68V104.31H1154.36ZM1164.75 108L1164.16 106.01H1161.71L1161.12 108H1160.25L1162.39 101.02H1163.5L1165.64 108H1164.75ZM1162.98 101.91H1162.89L1161.91 105.28H1163.96L1162.98 101.91ZM1169.81 101.02H1172.18C1172.78 101.02 1173.25 101.183 1173.59 101.51C1173.93 101.837 1174.1 102.273 1174.1 102.82C1174.1 103.24 1174 103.57 1173.79 103.81C1173.59 104.05 1173.33 104.22 1173.01 104.32V104.35C1173.41 104.443 1173.73 104.62 1173.98 104.88C1174.24 105.133 1174.36 105.503 1174.36 105.99C1174.36 106.27 1174.32 106.533 1174.22 106.78C1174.13 107.027 1174 107.24 1173.82 107.42C1173.66 107.6 1173.46 107.743 1173.22 107.85C1173 107.95 1172.75 108 1172.48 108H1169.81V101.02ZM1172.23 107.27C1172.62 107.27 1172.92 107.183 1173.14 107.01C1173.36 106.837 1173.47 106.57 1173.47 106.21V105.8C1173.47 105.447 1173.36 105.183 1173.14 105.01C1172.92 104.83 1172.62 104.74 1172.23 104.74H1170.65V107.27H1172.23ZM1172.09 104.05C1172.45 104.05 1172.72 103.973 1172.92 103.82C1173.12 103.66 1173.22 103.42 1173.22 103.1V102.71C1173.22 102.39 1173.12 102.15 1172.92 101.99C1172.72 101.83 1172.45 101.75 1172.09 101.75H1170.65V104.05H1172.09ZM1179.13 108V101.02H1179.97V107.27H1183.28V108H1179.13ZM1187.83 108V101.02H1192.13V101.75H1188.67V104.1H1192.01V104.83H1188.67V107.27H1192.13V108H1187.83Z" fill="#F8F8F2" fill-opacity="0.75"/>
<path d="M452.706 250V248.232H448.39V246.984L452.186 240.926H454.097V247.088H455.371V248.232H454.097V250H452.706ZM449.625 247.088H452.706V242.265H452.628L449.625 247.088ZM456.575 246.659V245.437H462.815V246.659H456.575ZM470.675 250H464.409V248.609L467.373 246.022C467.841 245.606 468.201 245.212 468.452 244.839C468.712 244.466 468.842 244.072 468.842 243.656V243.513C468.842 243.036 468.712 242.672 468.452 242.421C468.192 242.161 467.815 242.031 467.321 242.031C466.818 242.031 466.428 242.165 466.151 242.434C465.882 242.703 465.687 243.045 465.566 243.461L464.292 242.98C464.379 242.694 464.504 242.421 464.669 242.161C464.834 241.892 465.042 241.654 465.293 241.446C465.553 241.238 465.856 241.073 466.203 240.952C466.558 240.831 466.966 240.77 467.425 240.77C467.893 240.77 468.309 240.839 468.673 240.978C469.046 241.108 469.358 241.29 469.609 241.524C469.86 241.758 470.051 242.04 470.181 242.369C470.311 242.69 470.376 243.045 470.376 243.435C470.376 243.799 470.32 244.137 470.207 244.449C470.103 244.752 469.951 245.047 469.752 245.333C469.561 245.61 469.332 245.879 469.063 246.139C468.794 246.399 468.5 246.659 468.179 246.919L465.982 248.765H470.675V250ZM476.091 250V248.232H471.775V246.984L475.571 240.926H477.482V247.088H478.756V248.232H477.482V250H476.091ZM473.01 247.088H476.091V242.265H476.013L473.01 247.088ZM488.067 240.38H489.484V244.436H489.549C489.618 244.263 489.705 244.098 489.809 243.942C489.921 243.777 490.056 243.639 490.212 243.526C490.368 243.405 490.55 243.309 490.758 243.24C490.966 243.171 491.208 243.136 491.486 243.136C492.162 243.136 492.708 243.357 493.124 243.799C493.54 244.241 493.748 244.869 493.748 245.684V250H492.331V245.892C492.331 244.826 491.867 244.293 490.94 244.293C490.758 244.293 490.58 244.319 490.407 244.371C490.233 244.414 490.077 244.484 489.939 244.579C489.8 244.674 489.687 244.796 489.601 244.943C489.523 245.09 489.484 245.259 489.484 245.45V250H488.067V240.38ZM495.758 248.856H497.539V244.436H495.758V243.292H498.956V245.073H499.034C499.094 244.839 499.181 244.614 499.294 244.397C499.406 244.18 499.549 243.994 499.723 243.838C499.896 243.673 500.108 243.543 500.36 243.448C500.611 243.344 500.906 243.292 501.244 243.292H502.05V244.644H500.724C500.204 244.644 499.779 244.8 499.45 245.112C499.12 245.415 498.956 245.827 498.956 246.347V248.856H501.387V250H495.758V248.856ZM506.477 250.156C505.749 250.156 505.121 250.039 504.592 249.805C504.072 249.571 503.652 249.259 503.331 248.869L504.202 248.089C504.497 248.41 504.826 248.657 505.19 248.83C505.563 248.995 506.001 249.077 506.503 249.077C506.963 249.077 507.331 248.999 507.608 248.843C507.894 248.687 508.037 248.444 508.037 248.115C508.037 247.976 508.011 247.859 507.959 247.764C507.907 247.669 507.834 247.591 507.738 247.53C507.643 247.469 507.53 247.422 507.4 247.387C507.279 247.352 507.149 247.326 507.01 247.309L505.944 247.14C505.684 247.105 505.42 247.049 505.151 246.971C504.883 246.893 504.64 246.785 504.423 246.646C504.215 246.499 504.042 246.312 503.903 246.087C503.773 245.862 503.708 245.576 503.708 245.229C503.708 244.544 503.968 244.024 504.488 243.669C505.017 243.314 505.71 243.136 506.568 243.136C507.192 243.136 507.73 243.231 508.18 243.422C508.64 243.604 509.021 243.86 509.324 244.189L508.531 245.021C508.358 244.822 508.111 244.64 507.79 244.475C507.47 244.302 507.045 244.215 506.516 244.215C505.572 244.215 505.099 244.514 505.099 245.112C505.099 245.398 505.199 245.597 505.398 245.71C505.606 245.814 505.849 245.883 506.126 245.918L507.192 246.087C507.461 246.13 507.725 246.187 507.985 246.256C508.254 246.325 508.492 246.434 508.7 246.581C508.917 246.72 509.09 246.902 509.22 247.127C509.359 247.352 509.428 247.638 509.428 247.985C509.428 248.661 509.164 249.194 508.635 249.584C508.115 249.965 507.396 250.156 506.477 250.156ZM529.849 247.114C529.433 247.114 529.139 247.027 528.965 246.854C528.801 246.681 528.718 246.468 528.718 246.217V245.879C528.718 245.628 528.801 245.415 528.965 245.242C529.139 245.069 529.433 244.982 529.849 244.982C530.265 244.982 530.556 245.069 530.72 245.242C530.894 245.415 530.98 245.628 530.98 245.879V246.217C530.98 246.468 530.894 246.681 530.72 246.854C530.556 247.027 530.265 247.114 529.849 247.114ZM550.348 248.856H552.493V244.436H550.218V243.292H552.493V242.083C552.493 241.58 552.632 241.173 552.909 240.861C553.186 240.54 553.62 240.38 554.209 240.38H556.471V241.524H553.91V243.292H556.471V244.436H553.91V248.856H556.172V250H550.348V248.856ZM558.117 248.856H559.898V244.436H558.117V243.292H561.315V245.073H561.393C561.454 244.839 561.54 244.614 561.653 244.397C561.766 244.18 561.909 243.994 562.082 243.838C562.255 243.673 562.468 243.543 562.719 243.448C562.97 243.344 563.265 243.292 563.603 243.292H564.409V244.644H563.083C562.563 244.644 562.138 244.8 561.809 245.112C561.48 245.415 561.315 245.827 561.315 246.347V248.856H563.746V250H558.117V248.856ZM568.824 250.156C568.33 250.156 567.883 250.074 567.485 249.909C567.095 249.744 566.761 249.51 566.484 249.207C566.215 248.904 566.007 248.535 565.86 248.102C565.712 247.669 565.639 247.183 565.639 246.646C565.639 246.109 565.712 245.623 565.86 245.19C566.007 244.757 566.215 244.388 566.484 244.085C566.761 243.782 567.095 243.548 567.485 243.383C567.883 243.218 568.33 243.136 568.824 243.136C569.318 243.136 569.76 243.218 570.15 243.383C570.548 243.548 570.882 243.782 571.151 244.085C571.428 244.388 571.64 244.757 571.788 245.19C571.935 245.623 572.009 246.109 572.009 246.646C572.009 247.183 571.935 247.669 571.788 248.102C571.64 248.535 571.428 248.904 571.151 249.207C570.882 249.51 570.548 249.744 570.15 249.909C569.76 250.074 569.318 250.156 568.824 250.156ZM568.824 249.038C569.344 249.038 569.755 248.882 570.059 248.57C570.371 248.249 570.527 247.777 570.527 247.153V246.139C570.527 245.515 570.371 245.047 570.059 244.735C569.755 244.414 569.344 244.254 568.824 244.254C568.304 244.254 567.888 244.414 567.576 244.735C567.272 245.047 567.121 245.515 567.121 246.139V247.153C567.121 247.777 567.272 248.249 567.576 248.57C567.888 248.882 568.304 249.038 568.824 249.038ZM573.291 250V243.292H574.5V244.163H574.565C574.669 243.877 574.816 243.634 575.007 243.435C575.206 243.236 575.488 243.136 575.852 243.136C576.207 243.136 576.48 243.236 576.671 243.435C576.87 243.626 576.996 243.89 577.048 244.228H577.1C577.221 243.925 577.39 243.669 577.607 243.461C577.823 243.244 578.135 243.136 578.543 243.136C579.063 243.136 579.422 243.318 579.622 243.682C579.83 244.046 579.934 244.579 579.934 245.281V250H578.725V245.463C578.725 244.995 578.668 244.674 578.556 244.501C578.443 244.319 578.261 244.228 578.01 244.228C577.784 244.228 577.594 244.306 577.438 244.462C577.29 244.609 577.217 244.835 577.217 245.138V250H576.008V245.463C576.008 244.995 575.951 244.674 575.839 244.501C575.735 244.319 575.557 244.228 575.306 244.228C575.072 244.228 574.877 244.306 574.721 244.462C574.573 244.609 574.5 244.835 574.5 245.138V250H573.291ZM591.793 250.143C591.099 250.091 590.514 249.931 590.038 249.662C589.561 249.393 589.171 249.051 588.868 248.635L589.804 247.738C590.098 248.093 590.41 248.371 590.74 248.57C591.069 248.761 591.442 248.878 591.858 248.921V245.944L591.559 245.892C591.125 245.814 590.757 245.697 590.454 245.541C590.15 245.385 589.903 245.194 589.713 244.969C589.522 244.744 589.383 244.497 589.297 244.228C589.21 243.951 589.167 243.656 589.167 243.344C589.167 242.607 589.396 242.022 589.856 241.589C590.315 241.147 590.961 240.883 591.793 240.796V239.457H592.885V240.796C593.457 240.857 593.951 241 594.367 241.225C594.783 241.45 595.142 241.758 595.446 242.148L594.497 243.006C594.289 242.737 594.046 242.521 593.769 242.356C593.5 242.191 593.184 242.087 592.82 242.044V244.8L593.171 244.852C593.604 244.93 593.972 245.047 594.276 245.203C594.579 245.359 594.826 245.55 595.017 245.775C595.216 245.992 595.359 246.239 595.446 246.516C595.532 246.793 595.576 247.088 595.576 247.4C595.576 248.145 595.342 248.756 594.874 249.233C594.414 249.71 593.751 250 592.885 250.104V251.469H591.793V250.143ZM590.545 243.305C590.545 243.669 590.644 243.955 590.844 244.163C591.052 244.362 591.39 244.514 591.858 244.618V242.018C590.982 242.122 590.545 242.551 590.545 243.305ZM594.198 247.465C594.198 247.075 594.089 246.78 593.873 246.581C593.665 246.373 593.314 246.221 592.82 246.126V248.908C593.27 248.839 593.613 248.683 593.847 248.44C594.081 248.197 594.198 247.872 594.198 247.465ZM600.81 250V248.232H596.494V246.984L600.29 240.926H602.201V247.088H603.475V248.232H602.201V250H600.81ZM597.729 247.088H600.81V242.265H600.732L597.729 247.088ZM607.798 250.156C607.226 250.156 606.728 250.052 606.303 249.844C605.887 249.627 605.541 249.32 605.263 248.921C604.995 248.522 604.795 248.033 604.665 247.452C604.535 246.871 604.47 246.208 604.47 245.463C604.47 244.726 604.535 244.068 604.665 243.487C604.795 242.898 604.995 242.404 605.263 242.005C605.541 241.606 605.887 241.303 606.303 241.095C606.728 240.878 607.226 240.77 607.798 240.77C608.37 240.77 608.864 240.878 609.28 241.095C609.705 241.303 610.052 241.606 610.32 242.005C610.598 242.404 610.801 242.898 610.931 243.487C611.061 244.068 611.126 244.726 611.126 245.463C611.126 246.208 611.061 246.871 610.931 247.452C610.801 248.033 610.598 248.522 610.32 248.921C610.052 249.32 609.705 249.627 609.28 249.844C608.864 250.052 608.37 250.156 607.798 250.156ZM607.798 248.96C608.457 248.96 608.925 248.717 609.202 248.232C609.488 247.738 609.631 247.075 609.631 246.243V244.683C609.631 243.851 609.488 243.192 609.202 242.707C608.925 242.213 608.457 241.966 607.798 241.966C607.469 241.966 607.187 242.031 606.953 242.161C606.719 242.282 606.529 242.464 606.381 242.707C606.234 242.941 606.126 243.227 606.056 243.565C605.996 243.894 605.965 244.267 605.965 244.683V246.243C605.965 246.659 605.996 247.036 606.056 247.374C606.126 247.703 606.234 247.989 606.381 248.232C606.529 248.466 606.719 248.648 606.953 248.778C607.187 248.899 607.469 248.96 607.798 248.96ZM607.798 246.23C607.495 246.23 607.283 246.169 607.161 246.048C607.049 245.927 606.992 245.779 606.992 245.606V245.32C606.992 245.147 607.049 244.999 607.161 244.878C607.283 244.757 607.495 244.696 607.798 244.696C608.102 244.696 608.31 244.757 608.422 244.878C608.544 244.999 608.604 245.147 608.604 245.32V245.606C608.604 245.779 608.544 245.927 608.422 246.048C608.31 246.169 608.102 246.23 607.798 246.23Z" fill="#DDFF00"/>
<path d="M6.006 345L5.317 342.582H2.431L1.742 345H0.26L2.912 335.926H4.901L7.553 345H6.006ZM3.926 337.395H3.822L2.704 341.373H5.044L3.926 337.395ZM13.3849 343.752H13.2939C13.2159 343.934 13.1206 344.112 13.0079 344.285C12.9039 344.45 12.7696 344.597 12.6049 344.727C12.4489 344.857 12.2583 344.961 12.0329 345.039C11.8076 345.117 11.5476 345.156 11.2529 345.156C10.3083 345.156 9.59759 344.753 9.12092 343.947C8.64426 343.141 8.40592 342.001 8.40592 340.528C8.40592 338.985 8.67892 337.807 9.22492 336.992C9.77092 336.177 10.6073 335.77 11.7339 335.77C12.1759 335.77 12.5616 335.831 12.8909 335.952C13.2289 336.073 13.5149 336.238 13.7489 336.446C13.9829 336.645 14.1779 336.884 14.3339 337.161C14.4899 337.43 14.6156 337.716 14.7109 338.019L13.3979 338.461C13.3286 338.262 13.2506 338.075 13.1639 337.902C13.0773 337.72 12.9689 337.56 12.8389 337.421C12.7176 337.282 12.5659 337.174 12.3839 337.096C12.2106 337.018 11.9983 336.979 11.7469 336.979C11.1143 336.979 10.6549 337.226 10.3689 337.72C10.0916 338.205 9.95292 338.864 9.95292 339.696V341.139C9.95292 341.555 9.98326 341.936 10.0439 342.283C10.1046 342.63 10.2043 342.929 10.3429 343.18C10.4903 343.423 10.6766 343.613 10.9019 343.752C11.1359 343.891 11.4176 343.96 11.7469 343.96C12.2756 343.96 12.6786 343.804 12.9559 343.492C13.2419 343.171 13.3849 342.764 13.3849 342.27V341.451H11.6299V340.359H14.7109V345H13.3849V343.752ZM16.7078 345V335.926H22.3888V337.148H18.1638V339.787H22.2328V341.009H18.1638V343.778H22.3888V345H16.7078ZM25.7118 338.019H25.5948V345H24.3208V335.926H26.1928L28.8578 342.907H28.9748V335.926H30.2488V345H28.3768L25.7118 338.019ZM35.3397 345.156C34.187 345.156 33.329 344.749 32.7657 343.934C32.211 343.119 31.9337 341.962 31.9337 340.463C31.9337 338.964 32.211 337.807 32.7657 336.992C33.329 336.177 34.187 335.77 35.3397 335.77C35.7817 335.77 36.163 335.831 36.4837 335.952C36.813 336.065 37.0947 336.225 37.3287 336.433C37.5627 336.632 37.7577 336.871 37.9137 337.148C38.0784 337.417 38.2127 337.707 38.3167 338.019L37.0037 338.461C36.9344 338.253 36.8564 338.058 36.7697 337.876C36.683 337.694 36.5747 337.538 36.4447 337.408C36.3147 337.278 36.1587 337.174 35.9767 337.096C35.8034 337.018 35.5867 336.979 35.3267 336.979C34.6854 336.979 34.2174 337.226 33.9227 337.72C33.628 338.205 33.4807 338.864 33.4807 339.696V341.23C33.4807 342.062 33.628 342.725 33.9227 343.219C34.2174 343.704 34.6854 343.947 35.3267 343.947C35.5867 343.947 35.8034 343.908 35.9767 343.83C36.1587 343.752 36.3147 343.648 36.4447 343.518C36.5747 343.388 36.683 343.232 36.7697 343.05C36.8564 342.868 36.9344 342.673 37.0037 342.465L38.3167 342.907C38.2127 343.219 38.0784 343.514 37.9137 343.791C37.7577 344.06 37.5627 344.298 37.3287 344.506C37.0947 344.705 36.813 344.866 36.4837 344.987C36.163 345.1 35.7817 345.156 35.3397 345.156ZM42.1466 345V341.581L39.1306 335.926H40.7556L41.9126 338.188L42.8486 340.125H42.9266L43.8756 338.188L45.0326 335.926H46.6186L43.6026 341.581V345H42.1466Z" fill="#F8F8F1" fill-opacity="0.45"/>
<rect x="62" y="314" width="18" height="52" rx="2" fill="#505060" fill-opacity="0.25"/>
<rect x="62.25" y="314.25" width="17.5" height="51.5" rx="1.75" stroke="#F8F8F1" stroke-opacity="0.15" stroke-width="0.5"/>
<rect x="157" y="314" width="18" height="52" rx="2" fill="#505060" fill-opacity="0.25"/>
<rect x="157.25" y="314.25" width="17.5" height="51.5" rx="1.75" stroke="#F8F8F1" stroke-opacity="0.15" stroke-width="0.5"/>
<rect x="305" y="314" width="18" height="52" rx="2" fill="#505060" fill-opacity="0.25"/>
<rect x="305.25" y="314.25" width="17.5" height="51.5" rx="1.75" stroke="#F8F8F1" stroke-opacity="0.15" stroke-width="0.5"/>
<rect x="418" y="314" width="18" height="52" rx="2" fill="#505060" fill-opacity="0.25"/>
<rect x="418.25" y="314.25" width="17.5" height="51.5" rx="1.75" stroke="#F8F8F1" stroke-opacity="0.15" stroke-width="0.5"/>
<rect x="513" y="314" width="18" height="52" rx="2" fill="#505060" fill-opacity="0.25"/>
<rect x="513.25" y="314.25" width="17.5" height="51.5" rx="1.75" stroke="#F8F8F1" stroke-opacity="0.15" stroke-width="0.5"/>
<rect x="695" y="314" width="18" height="52" rx="2" fill="#505060" fill-opacity="0.25"/>
<rect x="695.25" y="314.25" width="17.5" height="51.5" rx="1.75" stroke="#F8F8F1" stroke-opacity="0.15" stroke-width="0.5"/>
<rect x="861" y="314" width="18" height="52" rx="2" fill="#505060" fill-opacity="0.25"/>
<rect x="861.25" y="314.25" width="17.5" height="51.5" rx="1.75" stroke="#F8F8F1" stroke-opacity="0.15" stroke-width="0.5"/>
<rect x="992" y="314" width="18" height="52" rx="2" fill="#505060" fill-opacity="0.25"/>
<rect x="992.25" y="314.25" width="17.5" height="51.5" rx="1.75" stroke="#F8F8F1" stroke-opacity="0.15" stroke-width="0.5"/>
<path d="M89.88 337.02H92.25C92.85 337.02 93.32 337.183 93.66 337.51C94 337.837 94.17 338.273 94.17 338.82C94.17 339.24 94.0667 339.57 93.86 339.81C93.66 340.05 93.4 340.22 93.08 340.32V340.35C93.4733 340.443 93.7967 340.62 94.05 340.88C94.3033 341.133 94.43 341.503 94.43 341.99C94.43 342.27 94.3833 342.533 94.29 342.78C94.1967 343.027 94.0633 343.24 93.89 343.42C93.7233 343.6 93.5233 343.743 93.29 343.85C93.0633 343.95 92.8167 344 92.55 344H89.88V337.02ZM92.3 343.27C92.6867 343.27 92.99 343.183 93.21 343.01C93.43 342.837 93.54 342.57 93.54 342.21V341.8C93.54 341.447 93.43 341.183 93.21 341.01C92.99 340.83 92.6867 340.74 92.3 340.74H90.72V343.27H92.3ZM92.16 340.05C92.5133 340.05 92.79 339.973 92.99 339.82C93.19 339.66 93.29 339.42 93.29 339.1V338.71C93.29 338.39 93.19 338.15 92.99 337.99C92.79 337.83 92.5133 337.75 92.16 337.75H90.72V340.05H92.16ZM99.7361 344H98.8961V337.02H101.436C102.083 337.02 102.576 337.197 102.916 337.55C103.256 337.903 103.426 338.397 103.426 339.03C103.426 339.597 103.279 340.05 102.986 340.39C102.693 340.73 102.266 340.927 101.706 340.98L103.486 344H102.546L100.846 341.02H99.7361V344ZM101.416 340.31C101.769 340.31 102.043 340.223 102.236 340.05C102.436 339.87 102.536 339.617 102.536 339.29V338.77C102.536 338.443 102.436 338.193 102.236 338.02C102.043 337.84 101.769 337.75 101.416 337.75H99.7361V340.31H101.416ZM107.832 344V343.33H109.572V337.69H107.832V337.02H112.152V337.69H110.412V343.33H112.152V344H107.832ZM116.888 344V337.02H121.188V337.75H117.728V340.1H121.068V340.83H117.728V343.27H121.188V344H116.888ZM125.884 344V337.02H130.284V337.75H126.724V340.1H129.984V340.83H126.724V344H125.884Z" fill="#F8F8F2" fill-opacity="0.75"/>
<path d="M188.81 344L188.22 342.01H185.77L185.18 344H184.31L186.45 337.02H187.56L189.7 344H188.81ZM187.04 337.91H186.95L185.97 341.28H188.02L187.04 337.91ZM196.226 344.12C195.373 344.12 194.736 343.81 194.316 343.19C193.903 342.57 193.696 341.677 193.696 340.51C193.696 339.343 193.903 338.45 194.316 337.83C194.736 337.21 195.373 336.9 196.226 336.9C196.546 336.9 196.823 336.943 197.056 337.03C197.289 337.117 197.489 337.233 197.656 337.38C197.823 337.527 197.963 337.693 198.076 337.88C198.189 338.06 198.289 338.243 198.376 338.43L197.656 338.76C197.596 338.607 197.526 338.463 197.446 338.33C197.366 338.19 197.269 338.07 197.156 337.97C197.049 337.863 196.919 337.78 196.766 337.72C196.619 337.66 196.439 337.63 196.226 337.63C195.673 337.63 195.259 337.84 194.986 338.26C194.719 338.68 194.586 339.24 194.586 339.94V341.08C194.586 341.78 194.719 342.34 194.986 342.76C195.259 343.18 195.673 343.39 196.226 343.39C196.439 343.39 196.619 343.36 196.766 343.3C196.919 343.24 197.049 343.16 197.156 343.06C197.269 342.953 197.366 342.833 197.446 342.7C197.526 342.56 197.596 342.413 197.656 342.26L198.376 342.59C198.289 342.783 198.189 342.97 198.076 343.15C197.963 343.33 197.823 343.493 197.656 343.64C197.489 343.787 197.289 343.903 197.056 343.99C196.823 344.077 196.546 344.12 196.226 344.12ZM205.222 344.12C204.369 344.12 203.732 343.81 203.312 343.19C202.899 342.57 202.692 341.677 202.692 340.51C202.692 339.343 202.899 338.45 203.312 337.83C203.732 337.21 204.369 336.9 205.222 336.9C205.542 336.9 205.819 336.943 206.052 337.03C206.286 337.117 206.486 337.233 206.652 337.38C206.819 337.527 206.959 337.693 207.072 337.88C207.186 338.06 207.286 338.243 207.372 338.43L206.652 338.76C206.592 338.607 206.522 338.463 206.442 338.33C206.362 338.19 206.266 338.07 206.152 337.97C206.046 337.863 205.916 337.78 205.762 337.72C205.616 337.66 205.436 337.63 205.222 337.63C204.669 337.63 204.256 337.84 203.982 338.26C203.716 338.68 203.582 339.24 203.582 339.94V341.08C203.582 341.78 203.716 342.34 203.982 342.76C204.256 343.18 204.669 343.39 205.222 343.39C205.436 343.39 205.616 343.36 205.762 343.3C205.916 343.24 206.046 343.16 206.152 343.06C206.266 342.953 206.362 342.833 206.442 342.7C206.522 342.56 206.592 342.413 206.652 342.26L207.372 342.59C207.286 342.783 207.186 342.97 207.072 343.15C206.959 343.33 206.819 343.493 206.652 343.64C206.486 343.787 206.286 343.903 206.052 343.99C205.819 344.077 205.542 344.12 205.222 344.12ZM213.988 344.12C213.562 344.12 213.195 344.04 212.888 343.88C212.582 343.713 212.328 343.477 212.128 343.17C211.928 342.863 211.782 342.487 211.688 342.04C211.595 341.593 211.548 341.083 211.548 340.51C211.548 339.943 211.595 339.437 211.688 338.99C211.782 338.537 211.928 338.157 212.128 337.85C212.328 337.543 212.582 337.31 212.888 337.15C213.195 336.983 213.562 336.9 213.988 336.9C214.415 336.9 214.782 336.983 215.088 337.15C215.395 337.31 215.648 337.543 215.848 337.85C216.048 338.157 216.195 338.537 216.288 338.99C216.382 339.437 216.428 339.943 216.428 340.51C216.428 341.083 216.382 341.593 216.288 342.04C216.195 342.487 216.048 342.863 215.848 343.17C215.648 343.477 215.395 343.713 215.088 343.88C214.782 344.04 214.415 344.12 213.988 344.12ZM213.988 343.39C214.268 343.39 214.505 343.337 214.698 343.23C214.892 343.117 215.052 342.96 215.178 342.76C215.305 342.56 215.395 342.32 215.448 342.04C215.508 341.753 215.538 341.433 215.538 341.08V339.94C215.538 339.593 215.508 339.277 215.448 338.99C215.395 338.703 215.305 338.46 215.178 338.26C215.052 338.06 214.892 337.907 214.698 337.8C214.505 337.687 214.268 337.63 213.988 337.63C213.708 337.63 213.472 337.687 213.278 337.8C213.085 337.907 212.925 338.06 212.798 338.26C212.672 338.46 212.578 338.703 212.518 338.99C212.465 339.277 212.438 339.593 212.438 339.94V341.08C212.438 341.433 212.465 341.753 212.518 342.04C212.578 342.32 212.672 342.56 212.798 342.76C212.925 342.96 213.085 343.117 213.278 343.23C213.472 343.337 213.708 343.39 213.988 343.39ZM221.624 337.02V341.21C221.624 341.55 221.634 341.853 221.654 342.12C221.674 342.387 221.728 342.617 221.814 342.81C221.901 342.997 222.034 343.14 222.214 343.24C222.401 343.34 222.658 343.39 222.984 343.39C223.311 343.39 223.564 343.34 223.744 343.24C223.931 343.14 224.068 342.997 224.154 342.81C224.241 342.617 224.294 342.387 224.314 342.12C224.334 341.853 224.344 341.55 224.344 341.21V337.02H225.184V341.01C225.184 341.53 225.158 341.983 225.104 342.37C225.058 342.757 224.954 343.08 224.794 343.34C224.641 343.6 224.418 343.797 224.124 343.93C223.838 344.057 223.458 344.12 222.984 344.12C222.511 344.12 222.128 344.057 221.834 343.93C221.548 343.797 221.324 343.6 221.164 343.34C221.011 343.08 220.908 342.757 220.854 342.37C220.808 341.983 220.784 341.53 220.784 341.01V337.02H221.624ZM230.61 338.12H230.54V344H229.78V337.02H230.97L233.35 342.9H233.42V337.02H234.18V344H232.99L230.61 338.12ZM241.397 337.75V344H240.557V337.75H238.227V337.02H243.727V337.75H241.397ZM260.519 340.5V338.29H260.439L258.969 341.88L257.499 338.29H257.419V340.5V344H256.649V337.02H257.729L258.959 340.1H259.019L260.249 337.02H261.289V344H260.519V340.5ZM269.405 343.07H269.355C269.295 343.203 269.225 343.333 269.145 343.46C269.065 343.587 268.962 343.7 268.835 343.8C268.715 343.893 268.568 343.97 268.395 344.03C268.222 344.09 268.015 344.12 267.775 344.12C267.015 344.12 266.448 343.813 266.075 343.2C265.708 342.587 265.525 341.707 265.525 340.56C265.525 339.36 265.728 338.45 266.135 337.83C266.542 337.21 267.168 336.9 268.015 336.9C268.342 336.9 268.625 336.943 268.865 337.03C269.105 337.117 269.308 337.233 269.475 337.38C269.648 337.527 269.792 337.693 269.905 337.88C270.018 338.06 270.112 338.243 270.185 338.43L269.465 338.76C269.405 338.607 269.335 338.463 269.255 338.33C269.182 338.19 269.088 338.07 268.975 337.97C268.868 337.863 268.738 337.78 268.585 337.72C268.432 337.66 268.252 337.63 268.045 337.63C267.485 337.63 267.072 337.84 266.805 338.26C266.545 338.68 266.415 339.24 266.415 339.94V341.02C266.415 341.373 266.442 341.697 266.495 341.99C266.548 342.277 266.635 342.527 266.755 342.74C266.882 342.953 267.042 343.12 267.235 343.24C267.435 343.353 267.678 343.41 267.965 343.41C268.418 343.41 268.772 343.273 269.025 343C269.278 342.727 269.405 342.373 269.405 341.94V341.22H267.935V340.55H270.185V344H269.405V343.07ZM275.701 344H274.861V337.02H277.401C278.048 337.02 278.541 337.197 278.881 337.55C279.221 337.903 279.391 338.397 279.391 339.03C279.391 339.597 279.244 340.05 278.951 340.39C278.658 340.73 278.231 340.927 277.671 340.98L279.451 344H278.511L276.811 341.02H275.701V344ZM277.381 340.31C277.734 340.31 278.008 340.223 278.201 340.05C278.401 339.87 278.501 339.617 278.501 339.29V338.77C278.501 338.443 278.401 338.193 278.201 338.02C278.008 337.84 277.734 337.75 277.381 337.75H275.701V340.31H277.381Z" fill="#F8F8F2" fill-opacity="0.75"/>
<path d="M334.69 340.58L333.69 341.76V344H332.85V337.02H333.69V340.66H333.72L334.64 339.5L336.7 337.02H337.71L335.26 339.96L337.78 344H336.8L334.69 340.58ZM341.836 344V343.33H343.576V337.69H341.836V337.02H346.156V337.69H344.416V343.33H346.156V344H341.836ZM353.222 344.12C352.369 344.12 351.732 343.81 351.312 343.19C350.899 342.57 350.692 341.677 350.692 340.51C350.692 339.343 350.899 338.45 351.312 337.83C351.732 337.21 352.369 336.9 353.222 336.9C353.542 336.9 353.819 336.943 354.052 337.03C354.286 337.117 354.486 337.233 354.652 337.38C354.819 337.527 354.959 337.693 355.072 337.88C355.186 338.06 355.286 338.243 355.372 338.43L354.652 338.76C354.592 338.607 354.522 338.463 354.442 338.33C354.362 338.19 354.266 338.07 354.152 337.97C354.046 337.863 353.916 337.78 353.762 337.72C353.616 337.66 353.436 337.63 353.222 337.63C352.669 337.63 352.256 337.84 351.982 338.26C351.716 338.68 351.582 339.24 351.582 339.94V341.08C351.582 341.78 351.716 342.34 351.982 342.76C352.256 343.18 352.669 343.39 353.222 343.39C353.436 343.39 353.616 343.36 353.762 343.3C353.916 343.24 354.046 343.16 354.152 343.06C354.266 342.953 354.362 342.833 354.442 342.7C354.522 342.56 354.592 342.413 354.652 342.26L355.372 342.59C355.286 342.783 355.186 342.97 355.072 343.15C354.959 343.33 354.819 343.493 354.652 343.64C354.486 343.787 354.286 343.903 354.052 343.99C353.819 344.077 353.542 344.12 353.222 344.12ZM361.678 340.58L360.678 341.76V344H359.838V337.02H360.678V340.66H360.708L361.628 339.5L363.688 337.02H364.698L362.248 339.96L364.768 344H363.788L361.678 340.58ZM370.984 344.12C370.558 344.12 370.191 344.04 369.884 343.88C369.578 343.713 369.324 343.477 369.124 343.17C368.924 342.863 368.778 342.487 368.684 342.04C368.591 341.593 368.544 341.083 368.544 340.51C368.544 339.943 368.591 339.437 368.684 338.99C368.778 338.537 368.924 338.157 369.124 337.85C369.324 337.543 369.578 337.31 369.884 337.15C370.191 336.983 370.558 336.9 370.984 336.9C371.411 336.9 371.778 336.983 372.084 337.15C372.391 337.31 372.644 337.543 372.844 337.85C373.044 338.157 373.191 338.537 373.284 338.99C373.378 339.437 373.424 339.943 373.424 340.51C373.424 341.083 373.378 341.593 373.284 342.04C373.191 342.487 373.044 342.863 372.844 343.17C372.644 343.477 372.391 343.713 372.084 343.88C371.778 344.04 371.411 344.12 370.984 344.12ZM370.984 343.39C371.264 343.39 371.501 343.337 371.694 343.23C371.888 343.117 372.048 342.96 372.174 342.76C372.301 342.56 372.391 342.32 372.444 342.04C372.504 341.753 372.534 341.433 372.534 341.08V339.94C372.534 339.593 372.504 339.277 372.444 338.99C372.391 338.703 372.301 338.46 372.174 338.26C372.048 338.06 371.888 337.907 371.694 337.8C371.501 337.687 371.264 337.63 370.984 337.63C370.704 337.63 370.468 337.687 370.274 337.8C370.081 337.907 369.921 338.06 369.794 338.26C369.668 338.46 369.574 338.703 369.514 338.99C369.461 339.277 369.434 339.593 369.434 339.94V341.08C369.434 341.433 369.461 341.753 369.514 342.04C369.574 342.32 369.668 342.56 369.794 342.76C369.921 342.96 370.081 343.117 370.274 343.23C370.468 343.337 370.704 343.39 370.984 343.39ZM377.88 344V337.02H382.28V337.75H378.72V340.1H381.98V340.83H378.72V344H377.88ZM386.877 344V337.02H391.277V337.75H387.717V340.1H390.977V340.83H387.717V344H386.877Z" fill="#F8F8F2" fill-opacity="0.75"/>
<path d="M445.95 337.02H447.9C448.753 337.02 449.39 337.313 449.81 337.9C450.23 338.487 450.44 339.357 450.44 340.51C450.44 341.663 450.23 342.533 449.81 343.12C449.39 343.707 448.753 344 447.9 344H445.95V337.02ZM447.86 343.27C448.42 343.27 448.84 343.077 449.12 342.69C449.407 342.303 449.55 341.757 449.55 341.05V339.97C449.55 339.263 449.407 338.717 449.12 338.33C448.84 337.943 448.42 337.75 447.86 337.75H446.79V343.27H447.86ZM455.736 344H454.896V337.02H457.436C458.083 337.02 458.576 337.197 458.916 337.55C459.256 337.903 459.426 338.397 459.426 339.03C459.426 339.597 459.279 340.05 458.986 340.39C458.693 340.73 458.266 340.927 457.706 340.98L459.486 344H458.546L456.846 341.02H455.736V344ZM457.416 340.31C457.769 340.31 458.043 340.223 458.236 340.05C458.436 339.87 458.536 339.617 458.536 339.29V338.77C458.536 338.443 458.436 338.193 458.236 338.02C458.043 337.84 457.769 337.75 457.416 337.75H455.736V340.31H457.416ZM467.802 344L467.212 342.01H464.762L464.172 344H463.302L465.442 337.02H466.552L468.692 344H467.802ZM466.032 337.91H465.942L464.962 341.28H467.012L466.032 337.91ZM472.888 344V337.02H477.288V337.75H473.728V340.1H476.988V340.83H473.728V344H472.888ZM484.404 337.75V344H483.564V337.75H481.234V337.02H486.734V337.75H484.404Z" fill="#F8F8F2" fill-opacity="0.75"/>
<path d="M540.84 344V343.33H542.58V337.69H540.84V337.02H545.16V337.69H543.42V343.33H545.16V344H540.84ZM550.626 338.12H550.556V344H549.796V337.02H550.986L553.366 342.9H553.436V337.02H554.196V344H553.006L550.626 338.12ZM561.412 337.75V344H560.572V337.75H558.242V337.02H563.742V337.75H561.412ZM567.888 344V337.02H572.188V337.75H568.728V340.1H572.068V340.83H568.728V343.27H572.188V344H567.888ZM577.724 344H576.884V337.02H579.424C580.071 337.02 580.564 337.197 580.904 337.55C581.244 337.903 581.414 338.397 581.414 339.03C581.414 339.597 581.268 340.05 580.974 340.39C580.681 340.73 580.254 340.927 579.694 340.98L581.474 344H580.534L578.834 341.02H577.724V344ZM579.404 340.31C579.758 340.31 580.031 340.223 580.224 340.05C580.424 339.87 580.524 339.617 580.524 339.29V338.77C580.524 338.443 580.424 338.193 580.224 338.02C580.031 337.84 579.758 337.75 579.404 337.75H577.724V340.31H579.404ZM586.61 338.12H586.54V344H585.78V337.02H586.97L589.35 342.9H589.42V337.02H590.18V344H588.99L586.61 338.12ZM598.787 344L598.197 342.01H595.747L595.157 344H594.287L596.427 337.02H597.537L599.677 344H598.787ZM597.017 337.91H596.927L595.947 341.28H597.997L597.017 337.91ZM604.173 344V337.02H605.013V343.27H608.323V344H604.173ZM622.705 344H621.865V337.02H624.405C625.052 337.02 625.545 337.197 625.885 337.55C626.225 337.903 626.395 338.397 626.395 339.03C626.395 339.597 626.248 340.05 625.955 340.39C625.662 340.73 625.235 340.927 624.675 340.98L626.455 344H625.515L623.815 341.02H622.705V344ZM624.385 340.31C624.738 340.31 625.012 340.223 625.205 340.05C625.405 339.87 625.505 339.617 625.505 339.29V338.77C625.505 338.443 625.405 338.193 625.205 338.02C625.012 337.84 624.738 337.75 624.385 337.75H622.705V340.31H624.385ZM630.861 344V337.02H635.161V337.75H631.701V340.1H635.041V340.83H631.701V343.27H635.161V344H630.861ZM641.387 344L639.317 337.02H640.207L641.197 340.51L641.947 343.15H641.997L642.747 340.51L643.737 337.02H644.597L642.527 344H641.387ZM648.793 344V343.33H650.533V337.69H648.793V337.02H653.113V337.69H651.373V343.33H653.113V344H648.793ZM657.849 344V337.02H662.149V337.75H658.689V340.1H662.029V340.83H658.689V343.27H662.149V344H657.849ZM666.845 344L666.295 337.02H667.045L667.335 341.02L667.485 343.13H667.565L668.485 338.84H669.425L670.345 343.13H670.425L670.575 341.02L670.865 337.02H671.595L671.045 344H669.835L668.985 339.83H668.905L668.055 344H666.845Z" fill="#F8F8F2" fill-opacity="0.75"/>
<path d="M725.23 344.12C724.377 344.12 723.74 343.81 723.32 343.19C722.907 342.57 722.7 341.677 722.7 340.51C722.7 339.343 722.907 338.45 723.32 337.83C723.74 337.21 724.377 336.9 725.23 336.9C725.55 336.9 725.827 336.943 726.06 337.03C726.293 337.117 726.493 337.233 726.66 337.38C726.827 337.527 726.967 337.693 727.08 337.88C727.193 338.06 727.293 338.243 727.38 338.43L726.66 338.76C726.6 338.607 726.53 338.463 726.45 338.33C726.37 338.19 726.273 338.07 726.16 337.97C726.053 337.863 725.923 337.78 725.77 337.72C725.623 337.66 725.443 337.63 725.23 337.63C724.677 337.63 724.263 337.84 723.99 338.26C723.723 338.68 723.59 339.24 723.59 339.94V341.08C723.59 341.78 723.723 342.34 723.99 342.76C724.263 343.18 724.677 343.39 725.23 343.39C725.443 343.39 725.623 343.36 725.77 343.3C725.923 343.24 726.053 343.16 726.16 343.06C726.273 342.953 726.37 342.833 726.45 342.7C726.53 342.56 726.6 342.413 726.66 342.26L727.38 342.59C727.293 342.783 727.193 342.97 727.08 343.15C726.967 343.33 726.827 343.493 726.66 343.64C726.493 343.787 726.293 343.903 726.06 343.99C725.827 344.077 725.55 344.12 725.23 344.12ZM732.196 344V337.02H733.036V343.27H736.346V344H732.196ZM740.832 344V343.33H742.572V337.69H740.832V337.02H745.152V337.69H743.412V343.33H745.152V344H740.832ZM749.888 344V337.02H754.188V337.75H750.728V340.1H754.068V340.83H750.728V343.27H754.188V344H749.888ZM759.614 338.12H759.544V344H758.784V337.02H759.974L762.354 342.9H762.424V337.02H763.184V344H761.994L759.614 338.12ZM770.4 337.75V344H769.56V337.75H767.23V337.02H772.73V337.75H770.4ZM786.713 344H785.873V337.02H788.413C789.059 337.02 789.553 337.197 789.893 337.55C790.233 337.903 790.403 338.397 790.403 339.03C790.403 339.597 790.256 340.05 789.963 340.39C789.669 340.73 789.243 340.927 788.683 340.98L790.463 344H789.523L787.823 341.02H786.713V344ZM788.393 340.31C788.746 340.31 789.019 340.223 789.213 340.05C789.413 339.87 789.513 339.617 789.513 339.29V338.77C789.513 338.443 789.413 338.193 789.213 338.02C789.019 337.84 788.746 337.75 788.393 337.75H786.713V340.31H788.393ZM794.869 344V337.02H799.169V337.75H795.709V340.1H799.049V340.83H795.709V343.27H799.169V344H794.869ZM805.395 344L803.325 337.02H804.215L805.205 340.51L805.955 343.15H806.005L806.755 340.51L807.745 337.02H808.605L806.535 344H805.395ZM812.801 344V343.33H814.541V337.69H812.801V337.02H817.121V337.69H815.381V343.33H817.121V344H812.801ZM821.857 344V337.02H826.157V337.75H822.697V340.1H826.037V340.83H822.697V343.27H826.157V344H821.857ZM830.853 344L830.303 337.02H831.053L831.343 341.02L831.493 343.13H831.573L832.493 338.84H833.433L834.353 343.13H834.433L834.583 341.02L834.873 337.02H835.603L835.053 344H833.843L832.993 339.83H832.913L832.063 344H830.853Z" fill="#F8F8F2" fill-opacity="0.75"/>
<path d="M889.74 344H888.9V337.02H891.44C892.087 337.02 892.58 337.197 892.92 337.55C893.26 337.903 893.43 338.397 893.43 339.03C893.43 339.597 893.283 340.05 892.99 340.39C892.697 340.73 892.27 340.927 891.71 340.98L893.49 344H892.55L890.85 341.02H889.74V344ZM891.42 340.31C891.773 340.31 892.047 340.223 892.24 340.05C892.44 339.87 892.54 339.617 892.54 339.29V338.77C892.54 338.443 892.44 338.193 892.24 338.02C892.047 337.84 891.773 337.75 891.42 337.75H889.74V340.31H891.42ZM897.896 344V337.02H902.196V337.75H898.736V340.1H902.076V340.83H898.736V343.27H902.196V344H897.896ZM908.422 344L906.352 337.02H907.242L908.232 340.51L908.982 343.15H909.032L909.782 340.51L910.772 337.02H911.632L909.562 344H908.422ZM915.828 344V343.33H917.568V337.69H915.828V337.02H920.148V337.69H918.408V343.33H920.148V344H915.828ZM926.964 344.12C926.338 344.12 925.824 344.007 925.424 343.78C925.024 343.547 924.694 343.25 924.434 342.89L925.044 342.39C925.318 342.73 925.604 342.983 925.904 343.15C926.211 343.317 926.574 343.4 926.994 343.4C927.501 343.4 927.888 343.283 928.154 343.05C928.421 342.817 928.554 342.49 928.554 342.07C928.554 341.73 928.458 341.467 928.264 341.28C928.071 341.087 927.734 340.95 927.254 340.87L926.474 340.74C926.134 340.68 925.848 340.59 925.614 340.47C925.388 340.35 925.204 340.207 925.064 340.04C924.924 339.867 924.824 339.68 924.764 339.48C924.704 339.273 924.674 339.06 924.674 338.84C924.674 338.2 924.884 337.717 925.304 337.39C925.724 337.063 926.291 336.9 927.004 336.9C927.564 336.9 928.034 336.993 928.414 337.18C928.801 337.367 929.111 337.63 929.344 337.97L928.754 338.48C928.561 338.227 928.328 338.02 928.054 337.86C927.781 337.7 927.428 337.62 926.994 337.62C926.521 337.62 926.158 337.72 925.904 337.92C925.651 338.12 925.524 338.42 925.524 338.82C925.524 339.133 925.618 339.39 925.804 339.59C925.998 339.783 926.341 339.923 926.834 340.01L927.584 340.14C927.924 340.2 928.211 340.29 928.444 340.41C928.678 340.53 928.864 340.673 929.004 340.84C929.151 341.007 929.254 341.193 929.314 341.4C929.374 341.607 929.404 341.823 929.404 342.05C929.404 342.697 929.191 343.203 928.764 343.57C928.344 343.937 927.744 344.12 926.964 344.12ZM933.82 344V343.33H935.56V337.69H933.82V337.02H938.14V337.69H936.4V343.33H938.14V344H933.82ZM944.977 344.12C944.55 344.12 944.183 344.04 943.877 343.88C943.57 343.713 943.317 343.477 943.117 343.17C942.917 342.863 942.77 342.487 942.677 342.04C942.583 341.593 942.537 341.083 942.537 340.51C942.537 339.943 942.583 339.437 942.677 338.99C942.77 338.537 942.917 338.157 943.117 337.85C943.317 337.543 943.57 337.31 943.877 337.15C944.183 336.983 944.55 336.9 944.977 336.9C945.403 336.9 945.77 336.983 946.077 337.15C946.383 337.31 946.637 337.543 946.837 337.85C947.037 338.157 947.183 338.537 947.277 338.99C947.37 339.437 947.417 339.943 947.417 340.51C947.417 341.083 947.37 341.593 947.277 342.04C947.183 342.487 947.037 342.863 946.837 343.17C946.637 343.477 946.383 343.713 946.077 343.88C945.77 344.04 945.403 344.12 944.977 344.12ZM944.977 343.39C945.257 343.39 945.493 343.337 945.687 343.23C945.88 343.117 946.04 342.96 946.167 342.76C946.293 342.56 946.383 342.32 946.437 342.04C946.497 341.753 946.527 341.433 946.527 341.08V339.94C946.527 339.593 946.497 339.277 946.437 338.99C946.383 338.703 946.293 338.46 946.167 338.26C946.04 338.06 945.88 337.907 945.687 337.8C945.493 337.687 945.257 337.63 944.977 337.63C944.697 337.63 944.46 337.687 944.267 337.8C944.073 337.907 943.913 338.06 943.787 338.26C943.66 338.46 943.567 338.703 943.507 338.99C943.453 339.277 943.427 339.593 943.427 339.94V341.08C943.427 341.433 943.453 341.753 943.507 342.04C943.567 342.32 943.66 342.56 943.787 342.76C943.913 342.96 944.073 343.117 944.267 343.23C944.46 343.337 944.697 343.39 944.977 343.39ZM952.603 338.12H952.533V344H951.773V337.02H952.963L955.343 342.9H955.413V337.02H956.173V344H954.983L952.603 338.12ZM962.949 344.12C962.322 344.12 961.809 344.007 961.409 343.78C961.009 343.547 960.679 343.25 960.419 342.89L961.029 342.39C961.302 342.73 961.589 342.983 961.889 343.15C962.195 343.317 962.559 343.4 962.979 343.4C963.485 343.4 963.872 343.283 964.139 343.05C964.405 342.817 964.539 342.49 964.539 342.07C964.539 341.73 964.442 341.467 964.249 341.28C964.055 341.087 963.719 340.95 963.239 340.87L962.459 340.74C962.119 340.68 961.832 340.59 961.599 340.47C961.372 340.35 961.189 340.207 961.049 340.04C960.909 339.867 960.809 339.68 960.749 339.48C960.689 339.273 960.659 339.06 960.659 338.84C960.659 338.2 960.869 337.717 961.289 337.39C961.709 337.063 962.275 336.9 962.989 336.9C963.549 336.9 964.019 336.993 964.399 337.18C964.785 337.367 965.095 337.63 965.329 337.97L964.739 338.48C964.545 338.227 964.312 338.02 964.039 337.86C963.765 337.7 963.412 337.62 962.979 337.62C962.505 337.62 962.142 337.72 961.889 337.92C961.635 338.12 961.509 338.42 961.509 338.82C961.509 339.133 961.602 339.39 961.789 339.59C961.982 339.783 962.325 339.923 962.819 340.01L963.569 340.14C963.909 340.2 964.195 340.29 964.429 340.41C964.662 340.53 964.849 340.673 964.989 340.84C965.135 341.007 965.239 341.193 965.299 341.4C965.359 341.607 965.389 341.823 965.389 342.05C965.389 342.697 965.175 343.203 964.749 343.57C964.329 343.937 963.729 344.12 962.949 344.12Z" fill="#F8F8F2" fill-opacity="0.75"/>
<path d="M1018.9 344V337.02H1023.3V337.75H1019.74V340.1H1023V340.83H1019.74V344H1018.9ZM1027.84 344V343.33H1029.58V337.69H1027.84V337.02H1032.16V337.69H1030.42V343.33H1032.16V344H1027.84ZM1037.62 338.12H1037.55V344H1036.79V337.02H1037.98L1040.36 342.9H1040.43V337.02H1041.19V344H1040L1037.62 338.12ZM1045.83 344V343.33H1047.57V337.69H1045.83V337.02H1050.15V337.69H1048.41V343.33H1050.15V344H1045.83ZM1056.96 344.12C1056.34 344.12 1055.82 344.007 1055.42 343.78C1055.02 343.547 1054.69 343.25 1054.43 342.89L1055.04 342.39C1055.32 342.73 1055.6 342.983 1055.9 343.15C1056.21 343.317 1056.57 343.4 1056.99 343.4C1057.5 343.4 1057.89 343.283 1058.15 343.05C1058.42 342.817 1058.55 342.49 1058.55 342.07C1058.55 341.73 1058.46 341.467 1058.26 341.28C1058.07 341.087 1057.73 340.95 1057.25 340.87L1056.47 340.74C1056.13 340.68 1055.85 340.59 1055.61 340.47C1055.39 340.35 1055.2 340.207 1055.06 340.04C1054.92 339.867 1054.82 339.68 1054.76 339.48C1054.7 339.273 1054.67 339.06 1054.67 338.84C1054.67 338.2 1054.88 337.717 1055.3 337.39C1055.72 337.063 1056.29 336.9 1057 336.9C1057.56 336.9 1058.03 336.993 1058.41 337.18C1058.8 337.367 1059.11 337.63 1059.34 337.97L1058.75 338.48C1058.56 338.227 1058.33 338.02 1058.05 337.86C1057.78 337.7 1057.43 337.62 1056.99 337.62C1056.52 337.62 1056.16 337.72 1055.9 337.92C1055.65 338.12 1055.52 338.42 1055.52 338.82C1055.52 339.133 1055.62 339.39 1055.8 339.59C1056 339.783 1056.34 339.923 1056.83 340.01L1057.58 340.14C1057.92 340.2 1058.21 340.29 1058.44 340.41C1058.68 340.53 1058.86 340.673 1059 340.84C1059.15 341.007 1059.25 341.193 1059.31 341.4C1059.37 341.607 1059.4 341.823 1059.4 342.05C1059.4 342.697 1059.19 343.203 1058.76 343.57C1058.34 343.937 1057.74 344.12 1056.96 344.12ZM1067.34 340.83H1064.62V344H1063.78V337.02H1064.62V340.1H1067.34V337.02H1068.18V344H1067.34V340.83ZM1072.88 344V337.02H1077.18V337.75H1073.72V340.1H1077.06V340.83H1073.72V343.27H1077.18V344H1072.88ZM1081.92 337.02H1083.87C1084.73 337.02 1085.36 337.313 1085.78 337.9C1086.2 338.487 1086.41 339.357 1086.41 340.51C1086.41 341.663 1086.2 342.533 1085.78 343.12C1085.36 343.707 1084.73 344 1083.87 344H1081.92V337.02ZM1083.83 343.27C1084.39 343.27 1084.81 343.077 1085.09 342.69C1085.38 342.303 1085.52 341.757 1085.52 341.05V339.97C1085.52 339.263 1085.38 338.717 1085.09 338.33C1084.81 337.943 1084.39 337.75 1083.83 337.75H1082.76V343.27H1083.83ZM1099.91 337.02H1101.86C1102.72 337.02 1103.35 337.313 1103.77 337.9C1104.19 338.487 1104.4 339.357 1104.4 340.51C1104.4 341.663 1104.19 342.533 1103.77 343.12C1103.35 343.707 1102.72 344 1101.86 344H1099.91V337.02ZM1101.82 343.27C1102.38 343.27 1102.8 343.077 1103.08 342.69C1103.37 342.303 1103.51 341.757 1103.51 341.05V339.97C1103.51 339.263 1103.37 338.717 1103.08 338.33C1102.8 337.943 1102.38 337.75 1101.82 337.75H1100.75V343.27H1101.82ZM1108.86 344V337.02H1113.16V337.75H1109.7V340.1H1113.04V340.83H1109.7V343.27H1113.16V344H1108.86ZM1118.16 344V337.02H1119V343.27H1122.31V344H1118.16ZM1126.79 344V343.33H1128.53V337.69H1126.79V337.02H1131.11V337.69H1129.37V343.33H1131.11V344H1126.79ZM1137.38 344L1135.31 337.02H1136.2L1137.19 340.51L1137.94 343.15H1137.99L1138.74 340.51L1139.73 337.02H1140.59L1138.52 344H1137.38ZM1144.85 344V337.02H1149.15V337.75H1145.69V340.1H1149.03V340.83H1145.69V343.27H1149.15V344H1144.85ZM1154.68 344H1153.84V337.02H1156.38C1157.03 337.02 1157.52 337.197 1157.86 337.55C1158.2 337.903 1158.37 338.397 1158.37 339.03C1158.37 339.597 1158.22 340.05 1157.93 340.39C1157.64 340.73 1157.21 340.927 1156.65 340.98L1158.43 344H1157.49L1155.79 341.02H1154.68V344ZM1156.36 340.31C1156.71 340.31 1156.99 340.223 1157.18 340.05C1157.38 339.87 1157.48 339.617 1157.48 339.29V338.77C1157.48 338.443 1157.38 338.193 1157.18 338.02C1156.99 337.84 1156.71 337.75 1156.36 337.75H1154.68V340.31H1156.36ZM1166.75 344L1166.16 342.01H1163.71L1163.12 344H1162.25L1164.39 337.02H1165.5L1167.64 344H1166.75ZM1164.98 337.91H1164.89L1163.91 341.28H1165.96L1164.98 337.91ZM1171.81 337.02H1174.18C1174.78 337.02 1175.25 337.183 1175.59 337.51C1175.93 337.837 1176.1 338.273 1176.1 338.82C1176.1 339.24 1176 339.57 1175.79 339.81C1175.59 340.05 1175.33 340.22 1175.01 340.32V340.35C1175.41 340.443 1175.73 340.62 1175.98 340.88C1176.24 341.133 1176.36 341.503 1176.36 341.99C1176.36 342.27 1176.32 342.533 1176.22 342.78C1176.13 343.027 1176 343.24 1175.82 343.42C1175.66 343.6 1175.46 343.743 1175.22 343.85C1175 343.95 1174.75 344 1174.48 344H1171.81V337.02ZM1174.23 343.27C1174.62 343.27 1174.92 343.183 1175.14 343.01C1175.36 342.837 1175.47 342.57 1175.47 342.21V341.8C1175.47 341.447 1175.36 341.183 1175.14 341.01C1174.92 340.83 1174.62 340.74 1174.23 340.74H1172.65V343.27H1174.23ZM1174.09 340.05C1174.45 340.05 1174.72 339.973 1174.92 339.82C1175.12 339.66 1175.22 339.42 1175.22 339.1V338.71C1175.22 338.39 1175.12 338.15 1174.92 337.99C1174.72 337.83 1174.45 337.75 1174.09 337.75H1172.65V340.05H1174.09ZM1181.13 344V337.02H1181.97V343.27H1185.28V344H1181.13ZM1189.83 344V337.02H1194.13V337.75H1190.67V340.1H1194.01V340.83H1190.67V343.27H1194.13V344H1189.83Z" fill="#F8F8F2" fill-opacity="0.75"/>
<path d="M440.085 399H433.819V397.609L436.783 395.022C437.251 394.606 437.611 394.212 437.862 393.839C438.122 393.466 438.252 393.072 438.252 392.656V392.513C438.252 392.036 438.122 391.672 437.862 391.421C437.602 391.161 437.225 391.031 436.731 391.031C436.228 391.031 435.838 391.165 435.561 391.434C435.292 391.703 435.097 392.045 434.976 392.461L433.702 391.98C433.789 391.694 433.914 391.421 434.079 391.161C434.244 390.892 434.452 390.654 434.703 390.446C434.963 390.238 435.266 390.073 435.613 389.952C435.968 389.831 436.376 389.77 436.835 389.77C437.303 389.77 437.719 389.839 438.083 389.978C438.456 390.108 438.768 390.29 439.019 390.524C439.27 390.758 439.461 391.04 439.591 391.369C439.721 391.69 439.786 392.045 439.786 392.435C439.786 392.799 439.73 393.137 439.617 393.449C439.513 393.752 439.361 394.047 439.162 394.333C438.971 394.61 438.742 394.879 438.473 395.139C438.204 395.399 437.91 395.659 437.589 395.919L435.392 397.765H440.085V399ZM441.575 395.659V394.437H447.815V395.659H441.575ZM453.296 399V397.232H448.98V395.984L452.776 389.926H454.687V396.088H455.961V397.232H454.687V399H453.296ZM450.215 396.088H453.296V391.265H453.218L450.215 396.088ZM464.44 392.292H465.649L466.299 397.934H466.416L467.417 392.292H468.795L469.783 397.934H469.9L470.563 392.292H471.72L470.784 399H469.042L468.145 393.8H468.028L467.118 399H465.376L464.44 392.292ZM476.018 399.156C475.506 399.156 475.047 399.074 474.64 398.909C474.232 398.744 473.89 398.51 473.613 398.207C473.335 397.904 473.123 397.54 472.976 397.115C472.828 396.682 472.755 396.196 472.755 395.659C472.755 395.122 472.828 394.636 472.976 394.203C473.132 393.77 473.344 393.401 473.613 393.098C473.89 392.786 474.224 392.548 474.614 392.383C475.004 392.218 475.437 392.136 475.914 392.136C476.382 392.136 476.806 392.218 477.188 392.383C477.569 392.539 477.894 392.764 478.163 393.059C478.431 393.354 478.635 393.705 478.774 394.112C478.921 394.519 478.995 394.97 478.995 395.464V395.997H474.185V396.218C474.185 396.747 474.349 397.18 474.679 397.518C475.008 397.847 475.463 398.012 476.044 398.012C476.477 398.012 476.845 397.921 477.149 397.739C477.461 397.548 477.712 397.297 477.903 396.985L478.787 397.765C478.561 398.155 478.215 398.484 477.747 398.753C477.287 399.022 476.711 399.156 476.018 399.156ZM475.914 393.215C475.662 393.215 475.428 393.258 475.212 393.345C475.004 393.432 474.822 393.557 474.666 393.722C474.518 393.878 474.401 394.064 474.315 394.281C474.228 394.498 474.185 394.736 474.185 394.996V395.087H477.552V394.957C477.552 394.428 477.4 394.008 477.097 393.696C476.802 393.375 476.408 393.215 475.914 393.215ZM483.813 399.156C483.301 399.156 482.842 399.074 482.435 398.909C482.027 398.744 481.685 398.51 481.408 398.207C481.13 397.904 480.918 397.54 480.771 397.115C480.623 396.682 480.55 396.196 480.55 395.659C480.55 395.122 480.623 394.636 480.771 394.203C480.927 393.77 481.139 393.401 481.408 393.098C481.685 392.786 482.019 392.548 482.409 392.383C482.799 392.218 483.232 392.136 483.709 392.136C484.177 392.136 484.601 392.218 484.983 392.383C485.364 392.539 485.689 392.764 485.958 393.059C486.226 393.354 486.43 393.705 486.569 394.112C486.716 394.519 486.79 394.97 486.79 395.464V395.997H481.98V396.218C481.98 396.747 482.144 397.18 482.474 397.518C482.803 397.847 483.258 398.012 483.839 398.012C484.272 398.012 484.64 397.921 484.944 397.739C485.256 397.548 485.507 397.297 485.698 396.985L486.582 397.765C486.356 398.155 486.01 398.484 485.542 398.753C485.082 399.022 484.506 399.156 483.813 399.156ZM483.709 393.215C483.457 393.215 483.223 393.258 483.007 393.345C482.799 393.432 482.617 393.557 482.461 393.722C482.313 393.878 482.196 394.064 482.11 394.281C482.023 394.498 481.98 394.736 481.98 394.996V395.087H485.347V394.957C485.347 394.428 485.195 394.008 484.892 393.696C484.597 393.375 484.203 393.215 483.709 393.215ZM488.708 389.38H490.125V395.191H490.19L491.243 394.112L493.128 392.292H494.805L492.088 394.931L495.104 399H493.401L491.061 395.737L490.125 396.608V399H488.708V389.38ZM499.272 399.156C498.544 399.156 497.916 399.039 497.387 398.805C496.867 398.571 496.447 398.259 496.126 397.869L496.997 397.089C497.292 397.41 497.621 397.657 497.985 397.83C498.358 397.995 498.796 398.077 499.298 398.077C499.758 398.077 500.126 397.999 500.403 397.843C500.689 397.687 500.832 397.444 500.832 397.115C500.832 396.976 500.806 396.859 500.754 396.764C500.702 396.669 500.629 396.591 500.533 396.53C500.438 396.469 500.325 396.422 500.195 396.387C500.074 396.352 499.944 396.326 499.805 396.309L498.739 396.14C498.479 396.105 498.215 396.049 497.946 395.971C497.678 395.893 497.435 395.785 497.218 395.646C497.01 395.499 496.837 395.312 496.698 395.087C496.568 394.862 496.503 394.576 496.503 394.229C496.503 393.544 496.763 393.024 497.283 392.669C497.812 392.314 498.505 392.136 499.363 392.136C499.987 392.136 500.525 392.231 500.975 392.422C501.435 392.604 501.816 392.86 502.119 393.189L501.326 394.021C501.153 393.822 500.906 393.64 500.585 393.475C500.265 393.302 499.84 393.215 499.311 393.215C498.367 393.215 497.894 393.514 497.894 394.112C497.894 394.398 497.994 394.597 498.193 394.71C498.401 394.814 498.644 394.883 498.921 394.918L499.987 395.087C500.256 395.13 500.52 395.187 500.78 395.256C501.049 395.325 501.287 395.434 501.495 395.581C501.712 395.72 501.885 395.902 502.015 396.127C502.154 396.352 502.223 396.638 502.223 396.985C502.223 397.661 501.959 398.194 501.43 398.584C500.91 398.965 500.191 399.156 499.272 399.156ZM522.644 396.114C522.228 396.114 521.933 396.027 521.76 395.854C521.595 395.681 521.513 395.468 521.513 395.217V394.879C521.513 394.628 521.595 394.415 521.76 394.242C521.933 394.069 522.228 393.982 522.644 393.982C523.06 393.982 523.35 394.069 523.515 394.242C523.688 394.415 523.775 394.628 523.775 394.879V395.217C523.775 395.468 523.688 395.681 523.515 395.854C523.35 396.027 523.06 396.114 522.644 396.114ZM543.143 397.856H545.288V393.436H543.013V392.292H545.288V391.083C545.288 390.58 545.427 390.173 545.704 389.861C545.981 389.54 546.415 389.38 547.004 389.38H549.266V390.524H546.705V392.292H549.266V393.436H546.705V397.856H548.967V399H543.143V397.856ZM550.912 397.856H552.693V393.436H550.912V392.292H554.11V394.073H554.188C554.248 393.839 554.335 393.614 554.448 393.397C554.56 393.18 554.703 392.994 554.877 392.838C555.05 392.673 555.262 392.543 555.514 392.448C555.765 392.344 556.06 392.292 556.398 392.292H557.204V393.644H555.878C555.358 393.644 554.933 393.8 554.604 394.112C554.274 394.415 554.11 394.827 554.11 395.347V397.856H556.541V399H550.912V397.856ZM561.619 399.156C561.125 399.156 560.678 399.074 560.28 398.909C559.89 398.744 559.556 398.51 559.279 398.207C559.01 397.904 558.802 397.535 558.655 397.102C558.507 396.669 558.434 396.183 558.434 395.646C558.434 395.109 558.507 394.623 558.655 394.19C558.802 393.757 559.01 393.388 559.279 393.085C559.556 392.782 559.89 392.548 560.28 392.383C560.678 392.218 561.125 392.136 561.619 392.136C562.113 392.136 562.555 392.218 562.945 392.383C563.343 392.548 563.677 392.782 563.946 393.085C564.223 393.388 564.435 393.757 564.583 394.19C564.73 394.623 564.804 395.109 564.804 395.646C564.804 396.183 564.73 396.669 564.583 397.102C564.435 397.535 564.223 397.904 563.946 398.207C563.677 398.51 563.343 398.744 562.945 398.909C562.555 399.074 562.113 399.156 561.619 399.156ZM561.619 398.038C562.139 398.038 562.55 397.882 562.854 397.57C563.166 397.249 563.322 396.777 563.322 396.153V395.139C563.322 394.515 563.166 394.047 562.854 393.735C562.55 393.414 562.139 393.254 561.619 393.254C561.099 393.254 560.683 393.414 560.371 393.735C560.067 394.047 559.916 394.515 559.916 395.139V396.153C559.916 396.777 560.067 397.249 560.371 397.57C560.683 397.882 561.099 398.038 561.619 398.038ZM566.086 399V392.292H567.295V393.163H567.36C567.464 392.877 567.611 392.634 567.802 392.435C568.001 392.236 568.283 392.136 568.647 392.136C569.002 392.136 569.275 392.236 569.466 392.435C569.665 392.626 569.791 392.89 569.843 393.228H569.895C570.016 392.925 570.185 392.669 570.402 392.461C570.618 392.244 570.93 392.136 571.338 392.136C571.858 392.136 572.217 392.318 572.417 392.682C572.625 393.046 572.729 393.579 572.729 394.281V399H571.52V394.463C571.52 393.995 571.463 393.674 571.351 393.501C571.238 393.319 571.056 393.228 570.805 393.228C570.579 393.228 570.389 393.306 570.233 393.462C570.085 393.609 570.012 393.835 570.012 394.138V399H568.803V394.463C568.803 393.995 568.746 393.674 568.634 393.501C568.53 393.319 568.352 393.228 568.101 393.228C567.867 393.228 567.672 393.306 567.516 393.462C567.368 393.609 567.295 393.835 567.295 394.138V399H566.086ZM584.588 399.143C583.894 399.091 583.309 398.931 582.833 398.662C582.356 398.393 581.966 398.051 581.663 397.635L582.599 396.738C582.893 397.093 583.205 397.371 583.535 397.57C583.864 397.761 584.237 397.878 584.653 397.921V394.944L584.354 394.892C583.92 394.814 583.552 394.697 583.249 394.541C582.945 394.385 582.698 394.194 582.508 393.969C582.317 393.744 582.178 393.497 582.092 393.228C582.005 392.951 581.962 392.656 581.962 392.344C581.962 391.607 582.191 391.022 582.651 390.589C583.11 390.147 583.756 389.883 584.588 389.796V388.457H585.68V389.796C586.252 389.857 586.746 390 587.162 390.225C587.578 390.45 587.937 390.758 588.241 391.148L587.292 392.006C587.084 391.737 586.841 391.521 586.564 391.356C586.295 391.191 585.979 391.087 585.615 391.044V393.8L585.966 393.852C586.399 393.93 586.767 394.047 587.071 394.203C587.374 394.359 587.621 394.55 587.812 394.775C588.011 394.992 588.154 395.239 588.241 395.516C588.327 395.793 588.371 396.088 588.371 396.4C588.371 397.145 588.137 397.756 587.669 398.233C587.209 398.71 586.546 399 585.68 399.104V400.469H584.588V399.143ZM583.34 392.305C583.34 392.669 583.439 392.955 583.639 393.163C583.847 393.362 584.185 393.514 584.653 393.618V391.018C583.777 391.122 583.34 391.551 583.34 392.305ZM586.993 396.465C586.993 396.075 586.884 395.78 586.668 395.581C586.46 395.373 586.109 395.221 585.615 395.126V397.908C586.065 397.839 586.408 397.683 586.642 397.44C586.876 397.197 586.993 396.872 586.993 396.465ZM590.042 399V397.791H592.59V390.992H592.486L590.38 393.241L589.483 392.435L591.797 389.926H594.046V397.791H596.243V399H590.042ZM599.865 397.024H601.88L600.268 400.885H599.163L599.865 397.024ZM611.573 399H605.307V397.609L608.271 395.022C608.739 394.606 609.099 394.212 609.35 393.839C609.61 393.466 609.74 393.072 609.74 392.656V392.513C609.74 392.036 609.61 391.672 609.35 391.421C609.09 391.161 608.713 391.031 608.219 391.031C607.717 391.031 607.327 391.165 607.049 391.434C606.781 391.703 606.586 392.045 606.464 392.461L605.19 391.98C605.277 391.694 605.403 391.421 605.567 391.161C605.732 390.892 605.94 390.654 606.191 390.446C606.451 390.238 606.755 390.073 607.101 389.952C607.457 389.831 607.864 389.77 608.323 389.77C608.791 389.77 609.207 389.839 609.571 389.978C609.944 390.108 610.256 390.29 610.507 390.524C610.759 390.758 610.949 391.04 611.079 391.369C611.209 391.69 611.274 392.045 611.274 392.435C611.274 392.799 611.218 393.137 611.105 393.449C611.001 393.752 610.85 394.047 610.65 394.333C610.46 394.61 610.23 394.879 609.961 395.139C609.693 395.399 609.398 395.659 609.077 395.919L606.88 397.765H611.573V399ZM616.183 399.156C615.611 399.156 615.113 399.052 614.688 398.844C614.272 398.627 613.926 398.32 613.648 397.921C613.38 397.522 613.18 397.033 613.05 396.452C612.92 395.871 612.855 395.208 612.855 394.463C612.855 393.726 612.92 393.068 613.05 392.487C613.18 391.898 613.38 391.404 613.648 391.005C613.926 390.606 614.272 390.303 614.688 390.095C615.113 389.878 615.611 389.77 616.183 389.77C616.755 389.77 617.249 389.878 617.665 390.095C618.09 390.303 618.437 390.606 618.705 391.005C618.983 391.404 619.186 391.898 619.316 392.487C619.446 393.068 619.511 393.726 619.511 394.463C619.511 395.208 619.446 395.871 619.316 396.452C619.186 397.033 618.983 397.522 618.705 397.921C618.437 398.32 618.09 398.627 617.665 398.844C617.249 399.052 616.755 399.156 616.183 399.156ZM616.183 397.96C616.842 397.96 617.31 397.717 617.587 397.232C617.873 396.738 618.016 396.075 618.016 395.243V393.683C618.016 392.851 617.873 392.192 617.587 391.707C617.31 391.213 616.842 390.966 616.183 390.966C615.854 390.966 615.572 391.031 615.338 391.161C615.104 391.282 614.914 391.464 614.766 391.707C614.619 391.941 614.511 392.227 614.441 392.565C614.381 392.894 614.35 393.267 614.35 393.683V395.243C614.35 395.659 614.381 396.036 614.441 396.374C614.511 396.703 614.619 396.989 614.766 397.232C614.914 397.466 615.104 397.648 615.338 397.778C615.572 397.899 615.854 397.96 616.183 397.96ZM616.183 395.23C615.88 395.23 615.668 395.169 615.546 395.048C615.434 394.927 615.377 394.779 615.377 394.606V394.32C615.377 394.147 615.434 393.999 615.546 393.878C615.668 393.757 615.88 393.696 616.183 393.696C616.487 393.696 616.695 393.757 616.807 393.878C616.929 393.999 616.989 394.147 616.989 394.32V394.606C616.989 394.779 616.929 394.927 616.807 395.048C616.695 395.169 616.487 395.23 616.183 395.23ZM623.978 399.156C623.406 399.156 622.908 399.052 622.483 398.844C622.067 398.627 621.72 398.32 621.443 397.921C621.174 397.522 620.975 397.033 620.845 396.452C620.715 395.871 620.65 395.208 620.65 394.463C620.65 393.726 620.715 393.068 620.845 392.487C620.975 391.898 621.174 391.404 621.443 391.005C621.72 390.606 622.067 390.303 622.483 390.095C622.908 389.878 623.406 389.77 623.978 389.77C624.55 389.77 625.044 389.878 625.46 390.095C625.885 390.303 626.231 390.606 626.5 391.005C626.777 391.404 626.981 391.898 627.111 392.487C627.241 393.068 627.306 393.726 627.306 394.463C627.306 395.208 627.241 395.871 627.111 396.452C626.981 397.033 626.777 397.522 626.5 397.921C626.231 398.32 625.885 398.627 625.46 398.844C625.044 399.052 624.55 399.156 623.978 399.156ZM623.978 397.96C624.637 397.96 625.105 397.717 625.382 397.232C625.668 396.738 625.811 396.075 625.811 395.243V393.683C625.811 392.851 625.668 392.192 625.382 391.707C625.105 391.213 624.637 390.966 623.978 390.966C623.649 390.966 623.367 391.031 623.133 391.161C622.899 391.282 622.708 391.464 622.561 391.707C622.414 391.941 622.305 392.227 622.236 392.565C622.175 392.894 622.145 393.267 622.145 393.683V395.243C622.145 395.659 622.175 396.036 622.236 396.374C622.305 396.703 622.414 396.989 622.561 397.232C622.708 397.466 622.899 397.648 623.133 397.778C623.367 397.899 623.649 397.96 623.978 397.96ZM623.978 395.23C623.675 395.23 623.462 395.169 623.341 395.048C623.228 394.927 623.172 394.779 623.172 394.606V394.32C623.172 394.147 623.228 393.999 623.341 393.878C623.462 393.757 623.675 393.696 623.978 393.696C624.281 393.696 624.489 393.757 624.602 393.878C624.723 393.999 624.784 394.147 624.784 394.32V394.606C624.784 394.779 624.723 394.927 624.602 395.048C624.489 395.169 624.281 395.23 623.978 395.23Z" fill="#F8F8F1" fill-opacity="0.45"/>
<defs>
<linearGradient id="paint0_linear_446_4781" x1="80" y1="340" x2="157" y2="340" gradientUnits="userSpaceOnUse">
<stop stop-color="#505060"/>
<stop offset="1" stop-color="#505060" stop-opacity="0"/>
</linearGradient>
<linearGradient id="paint1_linear_446_4781" x1="175" y1="340" x2="305" y2="340" gradientUnits="userSpaceOnUse">
<stop stop-color="#505060"/>
<stop offset="1" stop-color="#505060" stop-opacity="0"/>
</linearGradient>
<linearGradient id="paint2_linear_446_4781" x1="323" y1="340" x2="418" y2="340" gradientUnits="userSpaceOnUse">
<stop stop-color="#505060"/>
<stop offset="1" stop-color="#505060" stop-opacity="0"/>
</linearGradient>
<linearGradient id="paint3_linear_446_4781" x1="436" y1="340" x2="513" y2="340" gradientUnits="userSpaceOnUse">
<stop stop-color="#505060"/>
<stop offset="1" stop-color="#505060" stop-opacity="0"/>
</linearGradient>
<linearGradient id="paint4_linear_446_4781" x1="531" y1="340" x2="695" y2="340" gradientUnits="userSpaceOnUse">
<stop stop-color="#505060"/>
<stop offset="1" stop-color="#505060" stop-opacity="0"/>
</linearGradient>
<linearGradient id="paint5_linear_446_4781" x1="713" y1="340" x2="861" y2="340" gradientUnits="userSpaceOnUse">
<stop stop-color="#505060"/>
<stop offset="1" stop-color="#505060" stop-opacity="0"/>
</linearGradient>
<linearGradient id="paint6_linear_446_4781" x1="879" y1="340" x2="992" y2="340" gradientUnits="userSpaceOnUse">
<stop stop-color="#505060"/>
<stop offset="1" stop-color="#505060" stop-opacity="0"/>
</linearGradient>
<linearGradient id="paint7_linear_446_4781" x1="78" y1="54" x2="342" y2="54" gradientUnits="userSpaceOnUse">
<stop stop-color="#32323C"/>
<stop offset="1" stop-color="#DEFF00"/>
</linearGradient>
<linearGradient id="paint8_linear_446_4781" x1="78" y1="158.722" x2="632" y2="158.722" gradientUnits="userSpaceOnUse">
<stop stop-color="#32323C"/>
<stop offset="1" stop-color="#A448FA"/>
</linearGradient>
<linearGradient id="paint9_linear_446_4781" x1="358" y1="54.0001" x2="632" y2="54.0001" gradientUnits="userSpaceOnUse">
<stop stop-color="#DEFF00"/>
<stop offset="1" stop-color="#A448FA"/>
</linearGradient>
<linearGradient id="paint10_linear_446_4781" x1="648" y1="104" x2="992" y2="104" gradientUnits="userSpaceOnUse">
<stop stop-color="#A448FA"/>
<stop offset="1" stop-color="#1E1E1E"/>
</linearGradient>
</defs>
</svg>
