<svg width="1224" height="210" viewBox="0 0 1224 210" fill="none" xmlns="http://www.w3.org/2000/svg">
<rect y="20" width="16" height="160" rx="2" fill="#30303C"/>
<rect x="0.5" y="20.5" width="15" height="159" rx="1.5" stroke="#505060" stroke-opacity="0.6"/>
<rect x="280" y="0.00012207" width="16" height="80" rx="2" fill="#DEFF00"/>
<rect x="570" y="20" width="16" height="160" rx="2" fill="#A448FA"/>
<rect x="930" y="20" width="16" height="160" rx="2" fill="#1E1E1E"/>
<rect x="930.5" y="20.5" width="15" height="159" rx="1.5" stroke="#F8F8F2" stroke-opacity="0.22"/>
<path d="M16 20C16 20 82 20 148 10C214 0 280 0 280 0V80C280 80 216.946 80 148 90C79.0536 100 16 100 16 100V20Z" fill="url(#paint0_linear_184_5214)" fill-opacity="0.35"/>
<path d="M16 100C16 100 77.5 100 154.5 115C231.5 130 293 130 293 130C293 130 348 130 431.5 115C515 100 570 100 570 100V180C570 180 517 180 431.5 195C346 210 293 210 293 210C293 210 226 210 154.5 195C83 180 16 180 16 180V100Z" fill="url(#paint1_linear_184_5214)" fill-opacity="0.35"/>
<path d="M296 0.00012207C296 0.00012207 378.025 0.000123978 433 10.0001C487.975 20.0001 570 20.0001 570 20.0001V100C570 100 489.72 100 433 90.0001C376.28 80.0001 296 80.0001 296 80.0001V0.00012207Z" fill="url(#paint2_linear_184_5214)" fill-opacity="0.35"/>
<rect x="586" y="20" width="344" height="160" fill="url(#paint3_linear_184_5214)" fill-opacity="0.35"/>
<path d="M24.88 57.02H27.25C27.85 57.02 28.32 57.1833 28.66 57.51C29 57.8367 29.17 58.2733 29.17 58.82C29.17 59.24 29.0667 59.57 28.86 59.81C28.66 60.05 28.4 60.22 28.08 60.32V60.35C28.4733 60.4433 28.7967 60.62 29.05 60.88C29.3033 61.1333 29.43 61.5033 29.43 61.99C29.43 62.27 29.3833 62.5333 29.29 62.78C29.1967 63.0267 29.0633 63.24 28.89 63.42C28.7233 63.6 28.5233 63.7433 28.29 63.85C28.0633 63.95 27.8167 64 27.55 64H24.88V57.02ZM27.3 63.27C27.6867 63.27 27.99 63.1833 28.21 63.01C28.43 62.8367 28.54 62.57 28.54 62.21V61.8C28.54 61.4467 28.43 61.1833 28.21 61.01C27.99 60.83 27.6867 60.74 27.3 60.74H25.72V63.27H27.3ZM27.16 60.05C27.5133 60.05 27.79 59.9733 27.99 59.82C28.19 59.66 28.29 59.42 28.29 59.1V58.71C28.29 58.39 28.19 58.15 27.99 57.99C27.79 57.83 27.5133 57.75 27.16 57.75H25.72V60.05H27.16ZM34.7361 64H33.8961V57.02H36.4361C37.0828 57.02 37.5761 57.1967 37.9161 57.55C38.2561 57.9033 38.4261 58.3967 38.4261 59.03C38.4261 59.5967 38.2794 60.05 37.9861 60.39C37.6928 60.73 37.2661 60.9267 36.7061 60.98L38.4861 64H37.5461L35.8461 61.02H34.7361V64ZM36.4161 60.31C36.7694 60.31 37.0428 60.2233 37.2361 60.05C37.4361 59.87 37.5361 59.6167 37.5361 59.29V58.77C37.5361 58.4433 37.4361 58.1933 37.2361 58.02C37.0428 57.84 36.7694 57.75 36.4161 57.75H34.7361V60.31H36.4161ZM42.8322 64V63.33H44.5722V57.69H42.8322V57.02H47.1522V57.69H45.4122V63.33H47.1522V64H42.8322ZM51.8883 64V57.02H56.1883V57.75H52.7283V60.1H56.0683V60.83H52.7283V63.27H56.1883V64H51.8883ZM60.8844 64V57.02H65.2844V57.75H61.7244V60.1H64.9844V60.83H61.7244V64H60.8844Z" fill="#F8F8F2"/>
<path d="M308.81 44L308.22 42.01H305.77L305.18 44H304.31L306.45 37.02H307.56L309.7 44H308.81ZM307.04 37.91H306.95L305.97 41.28H308.02L307.04 37.91ZM313.836 44V43.33H315.576V37.69H313.836V37.02H318.156V37.69H316.416V43.33H318.156V44H313.836ZM331.888 44V37.02H334.428C335.075 37.02 335.568 37.1967 335.908 37.55C336.248 37.9033 336.418 38.3967 336.418 39.03C336.418 39.6633 336.248 40.1567 335.908 40.51C335.568 40.8633 335.075 41.04 334.428 41.04H332.728V44H331.888ZM332.728 40.31H334.408C334.762 40.31 335.035 40.2233 335.228 40.05C335.428 39.87 335.528 39.6167 335.528 39.29V38.77C335.528 38.4433 335.428 38.1933 335.228 38.02C335.035 37.84 334.762 37.75 334.408 37.75H332.728V40.31ZM341.724 44H340.884V37.02H343.424C344.071 37.02 344.564 37.1967 344.904 37.55C345.244 37.9033 345.414 38.3967 345.414 39.03C345.414 39.5967 345.268 40.05 344.974 40.39C344.681 40.73 344.254 40.9267 343.694 40.98L345.474 44H344.534L342.834 41.02H341.724V44ZM343.404 40.31C343.758 40.31 344.031 40.2233 344.224 40.05C344.424 39.87 344.524 39.6167 344.524 39.29V38.77C344.524 38.4433 344.424 38.1933 344.224 38.02C344.031 37.84 343.758 37.75 343.404 37.75H341.724V40.31H343.404ZM351.98 44.12C351.554 44.12 351.187 44.04 350.88 43.88C350.574 43.7133 350.32 43.4767 350.12 43.17C349.92 42.8633 349.774 42.4867 349.68 42.04C349.587 41.5933 349.54 41.0833 349.54 40.51C349.54 39.9433 349.587 39.4367 349.68 38.99C349.774 38.5367 349.92 38.1567 350.12 37.85C350.32 37.5433 350.574 37.31 350.88 37.15C351.187 36.9833 351.554 36.9 351.98 36.9C352.407 36.9 352.774 36.9833 353.08 37.15C353.387 37.31 353.64 37.5433 353.84 37.85C354.04 38.1567 354.187 38.5367 354.28 38.99C354.374 39.4367 354.42 39.9433 354.42 40.51C354.42 41.0833 354.374 41.5933 354.28 42.04C354.187 42.4867 354.04 42.8633 353.84 43.17C353.64 43.4767 353.387 43.7133 353.08 43.88C352.774 44.04 352.407 44.12 351.98 44.12ZM351.98 43.39C352.26 43.39 352.497 43.3367 352.69 43.23C352.884 43.1167 353.044 42.96 353.17 42.76C353.297 42.56 353.387 42.32 353.44 42.04C353.5 41.7533 353.53 41.4333 353.53 41.08V39.94C353.53 39.5933 353.5 39.2767 353.44 38.99C353.387 38.7033 353.297 38.46 353.17 38.26C353.044 38.06 352.884 37.9067 352.69 37.8C352.497 37.6867 352.26 37.63 351.98 37.63C351.7 37.63 351.464 37.6867 351.27 37.8C351.077 37.9067 350.917 38.06 350.79 38.26C350.664 38.46 350.57 38.7033 350.51 38.99C350.457 39.2767 350.43 39.5933 350.43 39.94V41.08C350.43 41.4333 350.457 41.7533 350.51 42.04C350.57 42.32 350.664 42.56 350.79 42.76C350.917 42.96 351.077 43.1167 351.27 43.23C351.464 43.3367 351.7 43.39 351.98 43.39ZM361.207 44.12C360.353 44.12 359.717 43.81 359.297 43.19C358.883 42.57 358.677 41.6767 358.677 40.51C358.677 39.3433 358.883 38.45 359.297 37.83C359.717 37.21 360.353 36.9 361.207 36.9C361.527 36.9 361.803 36.9433 362.037 37.03C362.27 37.1167 362.47 37.2333 362.637 37.38C362.803 37.5267 362.943 37.6933 363.057 37.88C363.17 38.06 363.27 38.2433 363.357 38.43L362.637 38.76C362.577 38.6067 362.507 38.4633 362.427 38.33C362.347 38.19 362.25 38.07 362.137 37.97C362.03 37.8633 361.9 37.78 361.747 37.72C361.6 37.66 361.42 37.63 361.207 37.63C360.653 37.63 360.24 37.84 359.967 38.26C359.7 38.68 359.567 39.24 359.567 39.94V41.08C359.567 41.78 359.7 42.34 359.967 42.76C360.24 43.18 360.653 43.39 361.207 43.39C361.42 43.39 361.6 43.36 361.747 43.3C361.9 43.24 362.03 43.16 362.137 43.06C362.25 42.9533 362.347 42.8333 362.427 42.7C362.507 42.56 362.577 42.4133 362.637 42.26L363.357 42.59C363.27 42.7833 363.17 42.97 363.057 43.15C362.943 43.33 362.803 43.4933 362.637 43.64C362.47 43.7867 362.27 43.9033 362.037 43.99C361.803 44.0767 361.527 44.12 361.207 44.12ZM367.873 44V37.02H372.173V37.75H368.713V40.1H372.053V40.83H368.713V43.27H372.173V44H367.873ZM378.949 44.12C378.322 44.12 377.809 44.0067 377.409 43.78C377.009 43.5467 376.679 43.25 376.419 42.89L377.029 42.39C377.302 42.73 377.589 42.9833 377.889 43.15C378.195 43.3167 378.559 43.4 378.979 43.4C379.485 43.4 379.872 43.2833 380.139 43.05C380.405 42.8167 380.539 42.49 380.539 42.07C380.539 41.73 380.442 41.4667 380.249 41.28C380.055 41.0867 379.719 40.95 379.239 40.87L378.459 40.74C378.119 40.68 377.832 40.59 377.599 40.47C377.372 40.35 377.189 40.2067 377.049 40.04C376.909 39.8667 376.809 39.68 376.749 39.48C376.689 39.2733 376.659 39.06 376.659 38.84C376.659 38.2 376.869 37.7167 377.289 37.39C377.709 37.0633 378.275 36.9 378.989 36.9C379.549 36.9 380.019 36.9933 380.399 37.18C380.785 37.3667 381.095 37.63 381.329 37.97L380.739 38.48C380.545 38.2267 380.312 38.02 380.039 37.86C379.765 37.7 379.412 37.62 378.979 37.62C378.505 37.62 378.142 37.72 377.889 37.92C377.635 38.12 377.509 38.42 377.509 38.82C377.509 39.1333 377.602 39.39 377.789 39.59C377.982 39.7833 378.325 39.9233 378.819 40.01L379.569 40.14C379.909 40.2 380.195 40.29 380.429 40.41C380.662 40.53 380.849 40.6733 380.989 40.84C381.135 41.0067 381.239 41.1933 381.299 41.4C381.359 41.6067 381.389 41.8233 381.389 42.05C381.389 42.6967 381.175 43.2033 380.749 43.57C380.329 43.9367 379.729 44.12 378.949 44.12ZM387.945 44.12C387.318 44.12 386.805 44.0067 386.405 43.78C386.005 43.5467 385.675 43.25 385.415 42.89L386.025 42.39C386.298 42.73 386.585 42.9833 386.885 43.15C387.192 43.3167 387.555 43.4 387.975 43.4C388.482 43.4 388.868 43.2833 389.135 43.05C389.402 42.8167 389.535 42.49 389.535 42.07C389.535 41.73 389.438 41.4667 389.245 41.28C389.052 41.0867 388.715 40.95 388.235 40.87L387.455 40.74C387.115 40.68 386.828 40.59 386.595 40.47C386.368 40.35 386.185 40.2067 386.045 40.04C385.905 39.8667 385.805 39.68 385.745 39.48C385.685 39.2733 385.655 39.06 385.655 38.84C385.655 38.2 385.865 37.7167 386.285 37.39C386.705 37.0633 387.272 36.9 387.985 36.9C388.545 36.9 389.015 36.9933 389.395 37.18C389.782 37.3667 390.092 37.63 390.325 37.97L389.735 38.48C389.542 38.2267 389.308 38.02 389.035 37.86C388.762 37.7 388.408 37.62 387.975 37.62C387.502 37.62 387.138 37.72 386.885 37.92C386.632 38.12 386.505 38.42 386.505 38.82C386.505 39.1333 386.598 39.39 386.785 39.59C386.978 39.7833 387.322 39.9233 387.815 40.01L388.565 40.14C388.905 40.2 389.192 40.29 389.425 40.41C389.658 40.53 389.845 40.6733 389.985 40.84C390.132 41.0067 390.235 41.1933 390.295 41.4C390.355 41.6067 390.385 41.8233 390.385 42.05C390.385 42.6967 390.172 43.2033 389.745 43.57C389.325 43.9367 388.725 44.12 387.945 44.12ZM394.801 44V43.33H396.541V37.69H394.801V37.02H399.121V37.69H397.381V43.33H399.121V44H394.801ZM404.587 38.12H404.517V44H403.757V37.02H404.947L407.327 42.9H407.397V37.02H408.157V44H406.967L404.587 38.12ZM416.393 43.07H416.343C416.283 43.2033 416.213 43.3333 416.133 43.46C416.053 43.5867 415.95 43.7 415.823 43.8C415.703 43.8933 415.556 43.97 415.383 44.03C415.21 44.09 415.003 44.12 414.763 44.12C414.003 44.12 413.436 43.8133 413.063 43.2C412.696 42.5867 412.513 41.7067 412.513 40.56C412.513 39.36 412.716 38.45 413.123 37.83C413.53 37.21 414.156 36.9 415.003 36.9C415.33 36.9 415.613 36.9433 415.853 37.03C416.093 37.1167 416.296 37.2333 416.463 37.38C416.636 37.5267 416.78 37.6933 416.893 37.88C417.006 38.06 417.1 38.2433 417.173 38.43L416.453 38.76C416.393 38.6067 416.323 38.4633 416.243 38.33C416.17 38.19 416.076 38.07 415.963 37.97C415.856 37.8633 415.726 37.78 415.573 37.72C415.42 37.66 415.24 37.63 415.033 37.63C414.473 37.63 414.06 37.84 413.793 38.26C413.533 38.68 413.403 39.24 413.403 39.94V41.02C413.403 41.3733 413.43 41.6967 413.483 41.99C413.536 42.2767 413.623 42.5267 413.743 42.74C413.87 42.9533 414.03 43.12 414.223 43.24C414.423 43.3533 414.666 43.41 414.953 43.41C415.406 43.41 415.76 43.2733 416.013 43C416.266 42.7267 416.393 42.3733 416.393 41.94V41.22H414.923V40.55H417.173V44H416.393V43.07Z" fill="#F8F8F2"/>
<path d="M598.36 100.83H595.64V104H594.8V97.02H595.64V100.1H598.36V97.02H599.2V104H598.36V100.83ZM604.636 97.02V101.21C604.636 101.55 604.646 101.853 604.666 102.12C604.686 102.387 604.739 102.617 604.826 102.81C604.913 102.997 605.046 103.14 605.226 103.24C605.413 103.34 605.669 103.39 605.996 103.39C606.323 103.39 606.576 103.34 606.756 103.24C606.943 103.14 607.079 102.997 607.166 102.81C607.253 102.617 607.306 102.387 607.326 102.12C607.346 101.853 607.356 101.55 607.356 101.21V97.02H608.196V101.01C608.196 101.53 608.169 101.983 608.116 102.37C608.069 102.757 607.966 103.08 607.806 103.34C607.653 103.6 607.429 103.797 607.136 103.93C606.849 104.057 606.469 104.12 605.996 104.12C605.523 104.12 605.139 104.057 604.846 103.93C604.559 103.797 604.336 103.6 604.176 103.34C604.023 103.08 603.919 102.757 603.866 102.37C603.819 101.983 603.796 101.53 603.796 101.01V97.02H604.636ZM616.542 100.5V98.29H616.462L614.992 101.88L613.522 98.29H613.442V100.5V104H612.672V97.02H613.752L614.982 100.1H615.042L616.272 97.02H617.312V104H616.542V100.5ZM625.798 104L625.208 102.01H622.758L622.168 104H621.298L623.438 97.02H624.548L626.688 104H625.798ZM624.028 97.91H623.938L622.958 101.28H625.008L624.028 97.91ZM631.614 98.12H631.544V104H630.784V97.02H631.974L634.354 102.9H634.424V97.02H635.184V104H633.994L631.614 98.12ZM648.877 104V97.02H653.177V97.75H649.717V100.1H653.057V100.83H649.717V103.27H653.177V104H648.877ZM662.723 104H661.773L660.943 102.61L660.023 101.09H659.983L659.033 102.61L658.153 104H657.233L659.513 100.44L657.363 97.02H658.313L659.123 98.37L659.993 99.78H660.033L660.893 98.37L661.733 97.02H662.653L660.493 100.43L662.723 104ZM666.869 104V97.02H669.409C670.055 97.02 670.549 97.1967 670.889 97.55C671.229 97.9033 671.399 98.3967 671.399 99.03C671.399 99.6633 671.229 100.157 670.889 100.51C670.549 100.863 670.055 101.04 669.409 101.04H667.709V104H666.869ZM667.709 100.31H669.389C669.742 100.31 670.015 100.223 670.209 100.05C670.409 99.87 670.509 99.6167 670.509 99.29V98.77C670.509 98.4433 670.409 98.1933 670.209 98.02C670.015 97.84 669.742 97.75 669.389 97.75H667.709V100.31ZM675.865 104V97.02H680.165V97.75H676.705V100.1H680.045V100.83H676.705V103.27H680.165V104H675.865ZM685.701 104H684.861V97.02H687.401C688.048 97.02 688.541 97.1967 688.881 97.55C689.221 97.9033 689.391 98.3967 689.391 99.03C689.391 99.5967 689.244 100.05 688.951 100.39C688.658 100.73 688.231 100.927 687.671 100.98L689.451 104H688.511L686.811 101.02H685.701V104ZM687.381 100.31C687.734 100.31 688.008 100.223 688.201 100.05C688.401 99.87 688.501 99.6167 688.501 99.29V98.77C688.501 98.4433 688.401 98.1933 688.201 98.02C688.008 97.84 687.734 97.75 687.381 97.75H685.701V100.31H687.381ZM696.377 97.75V104H695.537V97.75H693.207V97.02H698.707V97.75H696.377ZM712.689 104H711.849V97.02H714.389C715.036 97.02 715.529 97.1967 715.869 97.55C716.209 97.9033 716.379 98.3967 716.379 99.03C716.379 99.5967 716.233 100.05 715.939 100.39C715.646 100.73 715.219 100.927 714.659 100.98L716.439 104H715.499L713.799 101.02H712.689V104ZM714.369 100.31C714.723 100.31 714.996 100.223 715.189 100.05C715.389 99.87 715.489 99.6167 715.489 99.29V98.77C715.489 98.4433 715.389 98.1933 715.189 98.02C714.996 97.84 714.723 97.75 714.369 97.75H712.689V100.31H714.369ZM720.845 104V97.02H725.145V97.75H721.685V100.1H725.025V100.83H721.685V103.27H725.145V104H720.845ZM731.371 104L729.301 97.02H730.191L731.181 100.51L731.931 103.15H731.981L732.731 100.51L733.721 97.02H734.581L732.511 104H731.371ZM738.778 104V103.33H740.518V97.69H738.778V97.02H743.098V97.69H741.358V103.33H743.098V104H738.778ZM747.834 104V97.02H752.134V97.75H748.674V100.1H752.014V100.83H748.674V103.27H752.134V104H747.834ZM756.83 104L756.28 97.02H757.03L757.32 101.02L757.47 103.13H757.55L758.47 98.84H759.41L760.33 103.13H760.41L760.56 101.02L760.85 97.02H761.58L761.03 104H759.82L758.97 99.83H758.89L758.04 104H756.83Z" fill="#F8F8F2"/>
<path d="M954.9 88V81.02H959.3V81.75H955.74V84.1H959V84.83H955.74V88H954.9ZM963.836 88V87.33H965.576V81.69H963.836V81.02H968.156V81.69H966.416V87.33H968.156V88H963.836ZM973.622 82.12H973.552V88H972.792V81.02H973.982L976.362 86.9H976.432V81.02H977.192V88H976.002L973.622 82.12ZM981.828 88V87.33H983.568V81.69H981.828V81.02H986.148V81.69H984.408V87.33H986.148V88H981.828ZM992.964 88.12C992.338 88.12 991.824 88.0067 991.424 87.78C991.024 87.5467 990.694 87.25 990.434 86.89L991.044 86.39C991.318 86.73 991.604 86.9833 991.904 87.15C992.211 87.3167 992.574 87.4 992.994 87.4C993.501 87.4 993.888 87.2833 994.154 87.05C994.421 86.8167 994.554 86.49 994.554 86.07C994.554 85.73 994.458 85.4667 994.264 85.28C994.071 85.0867 993.734 84.95 993.254 84.87L992.474 84.74C992.134 84.68 991.848 84.59 991.614 84.47C991.388 84.35 991.204 84.2067 991.064 84.04C990.924 83.8667 990.824 83.68 990.764 83.48C990.704 83.2733 990.674 83.06 990.674 82.84C990.674 82.2 990.884 81.7167 991.304 81.39C991.724 81.0633 992.291 80.9 993.004 80.9C993.564 80.9 994.034 80.9933 994.414 81.18C994.801 81.3667 995.111 81.63 995.344 81.97L994.754 82.48C994.561 82.2267 994.328 82.02 994.054 81.86C993.781 81.7 993.428 81.62 992.994 81.62C992.521 81.62 992.158 81.72 991.904 81.92C991.651 82.12 991.524 82.42 991.524 82.82C991.524 83.1333 991.618 83.39 991.804 83.59C991.998 83.7833 992.341 83.9233 992.834 84.01L993.584 84.14C993.924 84.2 994.211 84.29 994.444 84.41C994.678 84.53 994.864 84.6733 995.004 84.84C995.151 85.0067 995.254 85.1933 995.314 85.4C995.374 85.6067 995.404 85.8233 995.404 86.05C995.404 86.6967 995.191 87.2033 994.764 87.57C994.344 87.9367 993.744 88.12 992.964 88.12ZM1003.34 84.83H1000.62V88H999.78V81.02H1000.62V84.1H1003.34V81.02H1004.18V88H1003.34V84.83ZM1008.88 88V81.02H1013.18V81.75H1009.72V84.1H1013.06V84.83H1009.72V87.27H1013.18V88H1008.88ZM1017.92 81.02H1019.87C1020.73 81.02 1021.36 81.3133 1021.78 81.9C1022.2 82.4867 1022.41 83.3567 1022.41 84.51C1022.41 85.6633 1022.2 86.5333 1021.78 87.12C1021.36 87.7067 1020.73 88 1019.87 88H1017.92V81.02ZM1019.83 87.27C1020.39 87.27 1020.81 87.0767 1021.09 86.69C1021.38 86.3033 1021.52 85.7567 1021.52 85.05V83.97C1021.52 83.2633 1021.38 82.7167 1021.09 82.33C1020.81 81.9433 1020.39 81.75 1019.83 81.75H1018.76V87.27H1019.83ZM1035.91 81.02H1037.86C1038.72 81.02 1039.35 81.3133 1039.77 81.9C1040.19 82.4867 1040.4 83.3567 1040.4 84.51C1040.4 85.6633 1040.19 86.5333 1039.77 87.12C1039.35 87.7067 1038.72 88 1037.86 88H1035.91V81.02ZM1037.82 87.27C1038.38 87.27 1038.8 87.0767 1039.08 86.69C1039.37 86.3033 1039.51 85.7567 1039.51 85.05V83.97C1039.51 83.2633 1039.37 82.7167 1039.08 82.33C1038.8 81.9433 1038.38 81.75 1037.82 81.75H1036.75V87.27H1037.82ZM1044.86 88V81.02H1049.16V81.75H1045.7V84.1H1049.04V84.83H1045.7V87.27H1049.16V88H1044.86ZM1054.16 88V81.02H1055V87.27H1058.31V88H1054.16ZM1062.79 88V87.33H1064.53V81.69H1062.79V81.02H1067.11V81.69H1065.37V87.33H1067.11V88H1062.79ZM1073.38 88L1071.31 81.02H1072.2L1073.19 84.51L1073.94 87.15H1073.99L1074.74 84.51L1075.73 81.02H1076.59L1074.52 88H1073.38ZM1080.85 88V81.02H1085.15V81.75H1081.69V84.1H1085.03V84.83H1081.69V87.27H1085.15V88H1080.85ZM1090.68 88H1089.84V81.02H1092.38C1093.03 81.02 1093.52 81.1967 1093.86 81.55C1094.2 81.9033 1094.37 82.3967 1094.37 83.03C1094.37 83.5967 1094.22 84.05 1093.93 84.39C1093.64 84.73 1093.21 84.9267 1092.65 84.98L1094.43 88H1093.49L1091.79 85.02H1090.68V88ZM1092.36 84.31C1092.71 84.31 1092.99 84.2233 1093.18 84.05C1093.38 83.87 1093.48 83.6167 1093.48 83.29V82.77C1093.48 82.4433 1093.38 82.1933 1093.18 82.02C1092.99 81.84 1092.71 81.75 1092.36 81.75H1090.68V84.31H1092.36ZM1102.75 88L1102.16 86.01H1099.71L1099.12 88H1098.25L1100.39 81.02H1101.5L1103.64 88H1102.75ZM1100.98 81.91H1100.89L1099.91 85.28H1101.96L1100.98 81.91ZM1107.81 81.02H1110.18C1110.78 81.02 1111.25 81.1833 1111.59 81.51C1111.93 81.8367 1112.1 82.2733 1112.1 82.82C1112.1 83.24 1112 83.57 1111.79 83.81C1111.59 84.05 1111.33 84.22 1111.01 84.32V84.35C1111.41 84.4433 1111.73 84.62 1111.98 84.88C1112.24 85.1333 1112.36 85.5033 1112.36 85.99C1112.36 86.27 1112.32 86.5333 1112.22 86.78C1112.13 87.0267 1112 87.24 1111.82 87.42C1111.66 87.6 1111.46 87.7433 1111.22 87.85C1111 87.95 1110.75 88 1110.48 88H1107.81V81.02ZM1110.23 87.27C1110.62 87.27 1110.92 87.1833 1111.14 87.01C1111.36 86.8367 1111.47 86.57 1111.47 86.21V85.8C1111.47 85.4467 1111.36 85.1833 1111.14 85.01C1110.92 84.83 1110.62 84.74 1110.23 84.74H1108.65V87.27H1110.23ZM1110.09 84.05C1110.45 84.05 1110.72 83.9733 1110.92 83.82C1111.12 83.66 1111.22 83.42 1111.22 83.1V82.71C1111.22 82.39 1111.12 82.15 1110.92 81.99C1110.72 81.83 1110.45 81.75 1110.09 81.75H1108.65V84.05H1110.09ZM1117.13 88V81.02H1117.97V87.27H1121.28V88H1117.13ZM1125.83 88V81.02H1130.13V81.75H1126.67V84.1H1130.01V84.83H1126.67V87.27H1130.13V88H1125.83Z" fill="#F8F8F2"/>
<path d="M956.421 113.922L955.521 114.984V117H954.765V110.718H955.521V113.994H955.548L956.376 112.95L958.23 110.718H959.139L956.934 113.364L959.202 117H958.32L956.421 113.922ZM962.096 117.108C961.772 117.108 961.478 117.051 961.214 116.937C960.956 116.823 960.734 116.661 960.548 116.451C960.368 116.235 960.23 115.98 960.134 115.686C960.038 115.386 959.99 115.05 959.99 114.678C959.99 114.312 960.038 113.979 960.134 113.679C960.23 113.379 960.368 113.124 960.548 112.914C960.734 112.698 960.956 112.533 961.214 112.419C961.478 112.305 961.772 112.248 962.096 112.248C962.42 112.248 962.711 112.305 962.969 112.419C963.233 112.533 963.455 112.698 963.635 112.914C963.821 113.124 963.962 113.379 964.058 113.679C964.154 113.979 964.202 114.312 964.202 114.678C964.202 115.05 964.154 115.386 964.058 115.686C963.962 115.98 963.821 116.235 963.635 116.451C963.455 116.661 963.233 116.823 962.969 116.937C962.711 117.051 962.42 117.108 962.096 117.108ZM962.096 116.487C962.498 116.487 962.822 116.367 963.068 116.127C963.314 115.887 963.437 115.515 963.437 115.011V114.345C963.437 113.841 963.314 113.469 963.068 113.229C962.822 112.989 962.498 112.869 962.096 112.869C961.694 112.869 961.37 112.989 961.124 113.229C960.878 113.469 960.755 113.841 960.755 114.345V115.011C960.755 115.515 960.878 115.887 961.124 116.127C961.37 116.367 961.694 116.487 962.096 116.487ZM965.711 118.188H967.961V112.968H965.63V112.356H968.681V117.738C968.681 118.05 968.597 118.305 968.429 118.503C968.267 118.701 968.009 118.8 967.655 118.8H965.711V118.188ZM968.321 111.33C968.111 111.33 967.964 111.288 967.88 111.204C967.796 111.114 967.754 111.003 967.754 110.871V110.727C967.754 110.595 967.796 110.487 967.88 110.403C967.964 110.313 968.111 110.268 968.321 110.268C968.531 110.268 968.678 110.313 968.762 110.403C968.846 110.487 968.888 110.595 968.888 110.727V110.871C968.888 111.003 968.846 111.114 968.762 111.204C968.678 111.288 968.531 111.33 968.321 111.33ZM972.889 117.108C972.565 117.108 972.271 117.051 972.007 116.937C971.749 116.823 971.527 116.661 971.341 116.451C971.161 116.235 971.023 115.98 970.927 115.686C970.831 115.386 970.783 115.05 970.783 114.678C970.783 114.312 970.831 113.979 970.927 113.679C971.023 113.379 971.161 113.124 971.341 112.914C971.527 112.698 971.749 112.533 972.007 112.419C972.271 112.305 972.565 112.248 972.889 112.248C973.213 112.248 973.504 112.305 973.762 112.419C974.026 112.533 974.248 112.698 974.428 112.914C974.614 113.124 974.755 113.379 974.851 113.679C974.947 113.979 974.995 114.312 974.995 114.678C974.995 115.05 974.947 115.386 974.851 115.686C974.755 115.98 974.614 116.235 974.428 116.451C974.248 116.661 974.026 116.823 973.762 116.937C973.504 117.051 973.213 117.108 972.889 117.108ZM972.889 116.487C973.291 116.487 973.615 116.367 973.861 116.127C974.107 115.887 974.23 115.515 974.23 115.011V114.345C974.23 113.841 974.107 113.469 973.861 113.229C973.615 112.989 973.291 112.869 972.889 112.869C972.487 112.869 972.163 112.989 971.917 113.229C971.671 113.469 971.548 113.841 971.548 114.345V115.011C971.548 115.515 971.671 115.887 971.917 116.127C972.163 116.367 972.487 116.487 972.889 116.487ZM978.286 117.081C978.04 117.081 977.866 117.03 977.764 116.928C977.668 116.826 977.62 116.697 977.62 116.541V116.379C977.62 116.223 977.668 116.094 977.764 115.992C977.866 115.89 978.04 115.839 978.286 115.839C978.532 115.839 978.703 115.89 978.799 115.992C978.901 116.094 978.952 116.223 978.952 116.379V116.541C978.952 116.697 978.901 116.826 978.799 116.928C978.703 117.03 978.532 117.081 978.286 117.081ZM978.286 113.517C978.04 113.517 977.866 113.466 977.764 113.364C977.668 113.262 977.62 113.133 977.62 112.977V112.815C977.62 112.659 977.668 112.53 977.764 112.428C977.866 112.326 978.04 112.275 978.286 112.275C978.532 112.275 978.703 112.326 978.799 112.428C978.901 112.53 978.952 112.659 978.952 112.815V112.977C978.952 113.133 978.901 113.262 978.799 113.364C978.703 113.466 978.532 113.517 978.286 113.517ZM989.781 117V115.767H986.685V115.101L989.403 110.718H990.501V115.146H991.437V115.767H990.501V117H989.781ZM987.36 115.146H989.781V111.303H989.745L987.36 115.146ZM992.315 114.597V113.931H996.635V114.597H992.315ZM1002 117H997.811V116.226L999.908 114.336C1000.21 114.06 1000.47 113.778 1000.66 113.49C1000.86 113.196 1000.96 112.887 1000.96 112.563V112.455C1000.96 112.077 1000.86 111.786 1000.66 111.582C1000.47 111.372 1000.17 111.267 999.782 111.267C999.398 111.267 999.101 111.366 998.891 111.564C998.687 111.756 998.534 112.014 998.432 112.338L997.757 112.086C997.817 111.9 997.898 111.72 998 111.546C998.108 111.366 998.243 111.207 998.405 111.069C998.567 110.931 998.762 110.82 998.99 110.736C999.224 110.652 999.494 110.61 999.8 110.61C1000.11 110.61 1000.39 110.655 1000.63 110.745C1000.87 110.835 1001.08 110.961 1001.24 111.123C1001.41 111.285 1001.53 111.477 1001.62 111.699C1001.71 111.921 1001.75 112.164 1001.75 112.428C1001.75 112.668 1001.72 112.893 1001.64 113.103C1001.58 113.313 1001.48 113.514 1001.36 113.706C1001.24 113.898 1001.09 114.087 1000.92 114.273C1000.75 114.453 1000.56 114.633 1000.35 114.813L998.594 116.343H1002V117ZM1005.97 117V115.767H1002.87V115.101L1005.59 110.718H1006.69V115.146H1007.63V115.767H1006.69V117H1005.97ZM1003.55 115.146H1005.97V111.303H1005.93L1003.55 115.146ZM1014.24 110.34H1014.96V113.112H1015C1015.05 112.998 1015.11 112.89 1015.18 112.788C1015.25 112.68 1015.34 112.587 1015.44 112.509C1015.55 112.431 1015.67 112.368 1015.82 112.32C1015.96 112.272 1016.13 112.248 1016.32 112.248C1016.81 112.248 1017.2 112.404 1017.49 112.716C1017.79 113.022 1017.93 113.457 1017.93 114.021V117H1017.21V114.147C1017.21 113.721 1017.12 113.406 1016.93 113.202C1016.75 112.992 1016.48 112.887 1016.12 112.887C1015.97 112.887 1015.83 112.905 1015.69 112.941C1015.55 112.977 1015.43 113.031 1015.32 113.103C1015.22 113.175 1015.13 113.268 1015.06 113.382C1015 113.496 1014.96 113.628 1014.96 113.778V117H1014.24V110.34ZM1019.45 116.388H1020.81V112.968H1019.45V112.356H1021.53V113.526H1021.57C1021.67 113.16 1021.85 112.875 1022.11 112.671C1022.38 112.461 1022.73 112.356 1023.14 112.356H1023.79V113.076H1022.92C1022.5 113.076 1022.17 113.196 1021.91 113.436C1021.66 113.676 1021.53 113.991 1021.53 114.381V116.388H1023.33V117H1019.45V116.388ZM1026.91 117.108C1026.42 117.108 1026 117.027 1025.65 116.865C1025.3 116.697 1025 116.475 1024.76 116.199L1025.24 115.776C1025.47 116.01 1025.71 116.19 1025.97 116.316C1026.24 116.442 1026.55 116.505 1026.93 116.505C1027.29 116.505 1027.58 116.442 1027.81 116.316C1028.04 116.184 1028.16 115.98 1028.16 115.704C1028.16 115.584 1028.14 115.485 1028.09 115.407C1028.05 115.323 1027.99 115.257 1027.91 115.209C1027.83 115.161 1027.74 115.125 1027.65 115.101C1027.55 115.071 1027.45 115.047 1027.34 115.029L1026.61 114.921C1026.45 114.897 1026.27 114.864 1026.08 114.822C1025.89 114.78 1025.72 114.714 1025.57 114.624C1025.41 114.528 1025.28 114.402 1025.17 114.246C1025.07 114.09 1025.02 113.886 1025.02 113.634C1025.02 113.4 1025.06 113.199 1025.15 113.031C1025.25 112.857 1025.38 112.713 1025.55 112.599C1025.72 112.479 1025.92 112.392 1026.14 112.338C1026.37 112.278 1026.62 112.248 1026.89 112.248C1027.31 112.248 1027.67 112.314 1027.98 112.446C1028.29 112.578 1028.56 112.761 1028.78 112.995L1028.31 113.436C1028.26 113.37 1028.19 113.304 1028.11 113.238C1028.03 113.166 1027.93 113.103 1027.81 113.049C1027.69 112.989 1027.56 112.941 1027.4 112.905C1027.25 112.869 1027.07 112.851 1026.86 112.851C1026.5 112.851 1026.22 112.914 1026.02 113.04C1025.83 113.166 1025.73 113.349 1025.73 113.589C1025.73 113.709 1025.75 113.811 1025.79 113.895C1025.84 113.973 1025.9 114.036 1025.98 114.084C1026.06 114.132 1026.15 114.171 1026.24 114.201C1026.34 114.225 1026.45 114.246 1026.55 114.264L1027.28 114.372C1027.45 114.396 1027.62 114.429 1027.81 114.471C1027.99 114.513 1028.17 114.582 1028.32 114.678C1028.48 114.768 1028.61 114.891 1028.71 115.047C1028.82 115.203 1028.87 115.407 1028.87 115.659C1028.87 116.121 1028.69 116.478 1028.33 116.73C1027.98 116.982 1027.5 117.108 1026.91 117.108ZM1037.65 114.885C1037.4 114.885 1037.23 114.834 1037.13 114.732C1037.03 114.63 1036.98 114.501 1036.98 114.345V114.183C1036.98 114.027 1037.03 113.898 1037.13 113.796C1037.23 113.694 1037.4 113.643 1037.65 113.643C1037.89 113.643 1038.06 113.694 1038.16 113.796C1038.26 113.898 1038.31 114.027 1038.31 114.183V114.345C1038.31 114.501 1038.26 114.63 1038.16 114.732C1038.06 114.834 1037.89 114.885 1037.65 114.885ZM1050.07 117L1049.54 115.209H1047.33L1046.8 117H1046.02L1047.95 110.718H1048.94L1050.87 117H1050.07ZM1048.48 111.519H1048.4L1047.51 114.552H1049.36L1048.48 111.519ZM1056.19 117.531C1056.19 117.999 1055.99 118.344 1055.6 118.566C1055.21 118.794 1054.63 118.908 1053.85 118.908C1053.1 118.908 1052.56 118.809 1052.23 118.611C1051.9 118.413 1051.74 118.128 1051.74 117.756C1051.74 117.504 1051.81 117.309 1051.94 117.171C1052.07 117.033 1052.26 116.931 1052.5 116.865V116.757C1052.36 116.691 1052.26 116.607 1052.19 116.505C1052.12 116.403 1052.08 116.274 1052.08 116.118C1052.08 115.878 1052.16 115.698 1052.32 115.578C1052.48 115.458 1052.68 115.368 1052.92 115.308V115.272C1052.63 115.146 1052.41 114.96 1052.24 114.714C1052.09 114.468 1052.01 114.18 1052.01 113.85C1052.01 113.616 1052.05 113.4 1052.14 113.202C1052.22 113.004 1052.34 112.836 1052.5 112.698C1052.66 112.554 1052.85 112.443 1053.07 112.365C1053.29 112.287 1053.54 112.248 1053.81 112.248C1054.16 112.248 1054.46 112.311 1054.73 112.437V112.356C1054.73 112.176 1054.77 112.026 1054.85 111.906C1054.94 111.786 1055.08 111.726 1055.29 111.726H1056.14V112.356H1055.1V112.671C1055.26 112.815 1055.39 112.986 1055.48 113.184C1055.57 113.382 1055.62 113.604 1055.62 113.85C1055.62 114.084 1055.57 114.3 1055.48 114.498C1055.4 114.696 1055.28 114.867 1055.12 115.011C1054.97 115.149 1054.78 115.257 1054.55 115.335C1054.33 115.413 1054.08 115.452 1053.81 115.452C1053.73 115.452 1053.66 115.449 1053.58 115.443C1053.51 115.437 1053.44 115.428 1053.37 115.416C1053.3 115.428 1053.22 115.449 1053.14 115.479C1053.07 115.503 1052.99 115.539 1052.93 115.587C1052.86 115.629 1052.81 115.68 1052.77 115.74C1052.72 115.8 1052.7 115.869 1052.7 115.947C1052.7 116.085 1052.77 116.178 1052.91 116.226C1053.05 116.268 1053.23 116.289 1053.45 116.289H1054.48C1055.08 116.289 1055.51 116.403 1055.78 116.631C1056.05 116.853 1056.19 117.153 1056.19 117.531ZM1055.51 117.567C1055.51 117.381 1055.44 117.231 1055.29 117.117C1055.14 117.009 1054.87 116.955 1054.5 116.955H1052.89C1052.58 117.081 1052.42 117.291 1052.42 117.585C1052.42 117.789 1052.5 117.963 1052.67 118.107C1052.83 118.257 1053.1 118.332 1053.48 118.332H1054.18C1054.6 118.332 1054.93 118.266 1055.16 118.134C1055.39 118.008 1055.51 117.819 1055.51 117.567ZM1053.81 114.894C1054.17 114.894 1054.43 114.81 1054.6 114.642C1054.78 114.474 1054.86 114.252 1054.86 113.976V113.715C1054.86 113.439 1054.78 113.22 1054.6 113.058C1054.43 112.89 1054.17 112.806 1053.81 112.806C1053.45 112.806 1053.19 112.89 1053.02 113.058C1052.85 113.22 1052.77 113.439 1052.77 113.715V113.976C1052.77 114.252 1052.85 114.474 1053.02 114.642C1053.19 114.81 1053.45 114.894 1053.81 114.894ZM1059.31 117.108C1058.98 117.108 1058.68 117.051 1058.41 116.937C1058.14 116.823 1057.91 116.661 1057.72 116.451C1057.54 116.235 1057.39 115.98 1057.29 115.686C1057.19 115.386 1057.14 115.053 1057.14 114.687C1057.14 114.315 1057.19 113.979 1057.29 113.679C1057.4 113.379 1057.54 113.124 1057.73 112.914C1057.92 112.698 1058.14 112.533 1058.4 112.419C1058.66 112.305 1058.95 112.248 1059.27 112.248C1059.58 112.248 1059.86 112.305 1060.12 112.419C1060.37 112.533 1060.59 112.692 1060.77 112.896C1060.95 113.094 1061.09 113.331 1061.19 113.607C1061.28 113.883 1061.33 114.186 1061.33 114.516V114.858H1057.89V115.074C1057.89 115.278 1057.93 115.467 1057.99 115.641C1058.06 115.815 1058.15 115.965 1058.27 116.091C1058.4 116.217 1058.55 116.316 1058.72 116.388C1058.9 116.454 1059.1 116.487 1059.31 116.487C1059.63 116.487 1059.9 116.415 1060.12 116.271C1060.35 116.127 1060.53 115.929 1060.65 115.677L1061.18 116.037C1061.04 116.349 1060.81 116.607 1060.48 116.811C1060.17 117.009 1059.78 117.108 1059.31 117.108ZM1059.27 112.842C1059.07 112.842 1058.89 112.878 1058.72 112.95C1058.55 113.022 1058.41 113.121 1058.28 113.247C1058.16 113.373 1058.06 113.523 1057.99 113.697C1057.93 113.865 1057.89 114.051 1057.89 114.255V114.318H1060.56V114.219C1060.56 114.015 1060.52 113.829 1060.46 113.661C1060.4 113.493 1060.31 113.349 1060.2 113.229C1060.09 113.103 1059.95 113.007 1059.79 112.941C1059.64 112.875 1059.46 112.842 1059.27 112.842ZM1062.81 117V112.356H1063.53V113.112H1063.57C1063.62 112.998 1063.68 112.89 1063.75 112.788C1063.82 112.68 1063.91 112.587 1064.01 112.509C1064.12 112.431 1064.24 112.368 1064.39 112.32C1064.53 112.272 1064.7 112.248 1064.89 112.248C1065.38 112.248 1065.77 112.404 1066.06 112.716C1066.35 113.022 1066.5 113.457 1066.5 114.021V117H1065.78V114.147C1065.78 113.721 1065.69 113.406 1065.5 113.202C1065.32 112.992 1065.04 112.887 1064.68 112.887C1064.54 112.887 1064.4 112.905 1064.26 112.941C1064.12 112.977 1064 113.031 1063.89 113.103C1063.78 113.175 1063.7 113.268 1063.63 113.382C1063.56 113.496 1063.53 113.628 1063.53 113.778V117H1062.81ZM1070.19 117.108C1069.85 117.108 1069.55 117.051 1069.29 116.937C1069.03 116.817 1068.81 116.652 1068.63 116.442C1068.45 116.232 1068.31 115.977 1068.22 115.677C1068.13 115.377 1068.08 115.044 1068.08 114.678C1068.08 114.312 1068.13 113.979 1068.23 113.679C1068.32 113.379 1068.46 113.124 1068.64 112.914C1068.82 112.698 1069.04 112.533 1069.3 112.419C1069.56 112.305 1069.85 112.248 1070.18 112.248C1070.63 112.248 1071 112.347 1071.28 112.545C1071.56 112.743 1071.77 113.001 1071.9 113.319L1071.32 113.625C1071.24 113.385 1071.1 113.199 1070.9 113.067C1070.71 112.935 1070.47 112.869 1070.18 112.869C1069.97 112.869 1069.78 112.905 1069.61 112.977C1069.45 113.043 1069.31 113.139 1069.2 113.265C1069.08 113.391 1069 113.541 1068.94 113.715C1068.88 113.889 1068.86 114.078 1068.86 114.282V115.074C1068.86 115.278 1068.88 115.467 1068.94 115.641C1069 115.815 1069.08 115.965 1069.2 116.091C1069.31 116.217 1069.45 116.316 1069.62 116.388C1069.79 116.454 1069.98 116.487 1070.2 116.487C1070.51 116.487 1070.77 116.415 1070.97 116.271C1071.18 116.127 1071.34 115.929 1071.46 115.677L1071.97 116.028C1071.83 116.34 1071.62 116.598 1071.32 116.802C1071.03 117.006 1070.66 117.108 1070.19 117.108ZM1076.93 112.356H1077.65L1075.34 118.017C1075.29 118.149 1075.23 118.263 1075.16 118.359C1075.1 118.461 1075.02 118.542 1074.93 118.602C1074.84 118.668 1074.73 118.716 1074.6 118.746C1074.48 118.782 1074.33 118.8 1074.15 118.8H1073.47V118.188H1074.55L1075.07 116.91L1073.2 112.356H1073.94L1074.72 114.3L1075.41 116.064H1075.45L1076.14 114.3L1076.93 112.356ZM1086.3 117.108C1085.96 117.108 1085.66 117.051 1085.39 116.937C1085.12 116.823 1084.9 116.661 1084.7 116.451C1084.52 116.235 1084.37 115.98 1084.27 115.686C1084.17 115.386 1084.12 115.053 1084.12 114.687C1084.12 114.315 1084.17 113.979 1084.27 113.679C1084.38 113.379 1084.53 113.124 1084.71 112.914C1084.9 112.698 1085.12 112.533 1085.38 112.419C1085.64 112.305 1085.93 112.248 1086.25 112.248C1086.56 112.248 1086.85 112.305 1087.1 112.419C1087.36 112.533 1087.57 112.692 1087.75 112.896C1087.93 113.094 1088.07 113.331 1088.17 113.607C1088.26 113.883 1088.31 114.186 1088.31 114.516V114.858H1084.87V115.074C1084.87 115.278 1084.91 115.467 1084.97 115.641C1085.04 115.815 1085.13 115.965 1085.25 116.091C1085.38 116.217 1085.53 116.316 1085.7 116.388C1085.88 116.454 1086.08 116.487 1086.3 116.487C1086.61 116.487 1086.88 116.415 1087.11 116.271C1087.33 116.127 1087.51 115.929 1087.63 115.677L1088.16 116.037C1088.02 116.349 1087.79 116.607 1087.47 116.811C1087.15 117.009 1086.76 117.108 1086.3 117.108ZM1086.25 112.842C1086.05 112.842 1085.87 112.878 1085.7 112.95C1085.53 113.022 1085.39 113.121 1085.26 113.247C1085.14 113.373 1085.05 113.523 1084.97 113.697C1084.91 113.865 1084.87 114.051 1084.87 114.255V114.318H1087.54V114.219C1087.54 114.015 1087.51 113.829 1087.44 113.661C1087.38 113.493 1087.29 113.349 1087.18 113.229C1087.07 113.103 1086.94 113.007 1086.77 112.941C1086.62 112.875 1086.44 112.842 1086.25 112.842ZM1092.74 116.244H1092.7C1092.4 116.82 1091.92 117.108 1091.27 117.108C1090.7 117.108 1090.25 116.895 1089.93 116.469C1089.61 116.043 1089.45 115.446 1089.45 114.678C1089.45 113.91 1089.61 113.313 1089.93 112.887C1090.25 112.461 1090.7 112.248 1091.27 112.248C1091.92 112.248 1092.4 112.536 1092.7 113.112H1092.74V112.356H1093.46V118.8H1092.74V116.244ZM1091.55 116.469C1091.71 116.469 1091.86 116.448 1092.01 116.406C1092.15 116.364 1092.28 116.304 1092.39 116.226C1092.49 116.142 1092.58 116.043 1092.64 115.929C1092.7 115.809 1092.74 115.671 1092.74 115.515V113.841C1092.74 113.685 1092.7 113.55 1092.64 113.436C1092.58 113.316 1092.49 113.217 1092.39 113.139C1092.28 113.055 1092.15 112.992 1092.01 112.95C1091.86 112.908 1091.71 112.887 1091.55 112.887C1091.13 112.887 1090.8 113.016 1090.57 113.274C1090.34 113.526 1090.23 113.862 1090.23 114.282V115.074C1090.23 115.494 1090.34 115.833 1090.57 116.091C1090.8 116.343 1091.13 116.469 1091.55 116.469ZM1098.11 116.244H1098.07C1098.02 116.358 1097.96 116.469 1097.89 116.577C1097.82 116.679 1097.73 116.769 1097.62 116.847C1097.52 116.925 1097.4 116.988 1097.25 117.036C1097.11 117.084 1096.94 117.108 1096.75 117.108C1096.26 117.108 1095.87 116.955 1095.58 116.649C1095.28 116.337 1095.14 115.899 1095.14 115.335V112.356H1095.86V115.209C1095.86 115.635 1095.95 115.953 1096.14 116.163C1096.32 116.367 1096.59 116.469 1096.95 116.469C1097.1 116.469 1097.24 116.451 1097.38 116.415C1097.52 116.379 1097.64 116.325 1097.75 116.253C1097.85 116.181 1097.94 116.091 1098.01 115.983C1098.07 115.869 1098.11 115.734 1098.11 115.578V112.356H1098.83V117H1098.11V116.244ZM1102.69 111.33C1102.48 111.33 1102.34 111.288 1102.25 111.204C1102.17 111.114 1102.13 111.003 1102.13 110.871V110.727C1102.13 110.595 1102.17 110.487 1102.25 110.403C1102.34 110.313 1102.48 110.268 1102.69 110.268C1102.9 110.268 1103.05 110.313 1103.13 110.403C1103.22 110.487 1103.26 110.595 1103.26 110.727V110.871C1103.26 111.003 1103.22 111.114 1103.13 111.204C1103.05 111.288 1102.9 111.33 1102.69 111.33ZM1100.66 116.388H1102.33V112.968H1100.66V112.356H1103.05V116.388H1104.62V117H1100.66V116.388ZM1107.34 117L1105.68 112.356H1106.41L1107.07 114.3L1107.79 116.397H1107.83L1108.55 114.3L1109.21 112.356H1109.93L1108.26 117H1107.34ZM1113.2 117.081C1112.95 117.081 1112.78 117.03 1112.68 116.928C1112.58 116.826 1112.53 116.697 1112.53 116.541V116.379C1112.53 116.223 1112.58 116.094 1112.68 115.992C1112.78 115.89 1112.95 115.839 1113.2 115.839C1113.44 115.839 1113.62 115.89 1113.71 115.992C1113.81 116.094 1113.86 116.223 1113.86 116.379V116.541C1113.86 116.697 1113.81 116.826 1113.71 116.928C1113.62 117.03 1113.44 117.081 1113.2 117.081ZM1113.2 113.517C1112.95 113.517 1112.78 113.466 1112.68 113.364C1112.58 113.262 1112.53 113.133 1112.53 112.977V112.815C1112.53 112.659 1112.58 112.53 1112.68 112.428C1112.78 112.326 1112.95 112.275 1113.2 112.275C1113.44 112.275 1113.62 112.326 1113.71 112.428C1113.81 112.53 1113.86 112.659 1113.86 112.815V112.977C1113.86 113.133 1113.81 113.262 1113.71 113.364C1113.62 113.466 1113.44 113.517 1113.2 113.517ZM1126.12 117H1121.93V116.226L1124.03 114.336C1124.33 114.06 1124.59 113.778 1124.78 113.49C1124.98 113.196 1125.08 112.887 1125.08 112.563V112.455C1125.08 112.077 1124.98 111.786 1124.78 111.582C1124.59 111.372 1124.29 111.267 1123.9 111.267C1123.52 111.267 1123.22 111.366 1123.01 111.564C1122.81 111.756 1122.65 112.014 1122.55 112.338L1121.88 112.086C1121.94 111.9 1122.02 111.72 1122.12 111.546C1122.23 111.366 1122.36 111.207 1122.52 111.069C1122.69 110.931 1122.88 110.82 1123.11 110.736C1123.34 110.652 1123.61 110.61 1123.92 110.61C1124.23 110.61 1124.51 110.655 1124.75 110.745C1124.99 110.835 1125.2 110.961 1125.36 111.123C1125.53 111.285 1125.65 111.477 1125.74 111.699C1125.83 111.921 1125.87 112.164 1125.87 112.428C1125.87 112.668 1125.84 112.893 1125.76 113.103C1125.7 113.313 1125.6 113.514 1125.48 113.706C1125.36 113.898 1125.21 114.087 1125.04 114.273C1124.87 114.453 1124.68 114.633 1124.47 114.813L1122.71 116.343H1126.12V117ZM1127.23 114.597V113.931H1131.55V114.597H1127.23ZM1135.49 117V115.767H1132.39V115.101L1135.11 110.718H1136.21V115.146H1137.14V115.767H1136.21V117H1135.49ZM1133.06 115.146H1135.49V111.303H1135.45L1133.06 115.146ZM1143.15 112.356H1143.79L1144.32 116.37H1144.4L1145.19 112.356H1145.98L1146.77 116.37H1146.85L1147.39 112.356H1148.01L1147.3 117H1146.36L1145.62 113.112H1145.55L1144.79 117H1143.86L1143.15 112.356ZM1149.22 110.34H1149.94V114.543H1149.97L1150.78 113.778L1152.33 112.356H1153.21L1151.29 114.174L1153.44 117H1152.55L1150.74 114.588L1149.94 115.317V117H1149.22V110.34ZM1156.42 117.108C1155.94 117.108 1155.52 117.027 1155.16 116.865C1154.82 116.697 1154.52 116.475 1154.27 116.199L1154.76 115.776C1154.98 116.01 1155.22 116.19 1155.49 116.316C1155.75 116.442 1156.07 116.505 1156.44 116.505C1156.8 116.505 1157.1 116.442 1157.32 116.316C1157.56 116.184 1157.67 115.98 1157.67 115.704C1157.67 115.584 1157.65 115.485 1157.6 115.407C1157.56 115.323 1157.5 115.257 1157.42 115.209C1157.34 115.161 1157.26 115.125 1157.16 115.101C1157.07 115.071 1156.96 115.047 1156.86 115.029L1156.13 114.921C1155.96 114.897 1155.79 114.864 1155.6 114.822C1155.41 114.78 1155.24 114.714 1155.08 114.624C1154.93 114.528 1154.79 114.402 1154.69 114.246C1154.58 114.09 1154.53 113.886 1154.53 113.634C1154.53 113.4 1154.58 113.199 1154.67 113.031C1154.76 112.857 1154.9 112.713 1155.06 112.599C1155.23 112.479 1155.43 112.392 1155.66 112.338C1155.89 112.278 1156.14 112.248 1156.41 112.248C1156.83 112.248 1157.19 112.314 1157.49 112.446C1157.81 112.578 1158.07 112.761 1158.3 112.995L1157.83 113.436C1157.77 113.37 1157.7 113.304 1157.62 113.238C1157.54 113.166 1157.44 113.103 1157.32 113.049C1157.21 112.989 1157.07 112.941 1156.92 112.905C1156.76 112.869 1156.58 112.851 1156.38 112.851C1156.01 112.851 1155.73 112.914 1155.53 113.04C1155.34 113.166 1155.24 113.349 1155.24 113.589C1155.24 113.709 1155.27 113.811 1155.31 113.895C1155.36 113.973 1155.42 114.036 1155.5 114.084C1155.57 114.132 1155.66 114.171 1155.76 114.201C1155.86 114.225 1155.96 114.246 1156.06 114.264L1156.79 114.372C1156.96 114.396 1157.14 114.429 1157.32 114.471C1157.51 114.513 1157.68 114.582 1157.84 114.678C1157.99 114.768 1158.12 114.891 1158.22 115.047C1158.33 115.203 1158.39 115.407 1158.39 115.659C1158.39 116.121 1158.21 116.478 1157.85 116.73C1157.49 116.982 1157.02 117.108 1156.42 117.108Z" fill="#F8F8F2" fill-opacity="0.4"/>
<path d="M956.421 128.922L955.521 129.984V132H954.765V125.718H955.521V128.994H955.548L956.376 127.95L958.23 125.718H959.139L956.934 128.364L959.202 132H958.32L956.421 128.922ZM962.096 132.108C961.772 132.108 961.478 132.051 961.214 131.937C960.956 131.823 960.734 131.661 960.548 131.451C960.368 131.235 960.23 130.98 960.134 130.686C960.038 130.386 959.99 130.05 959.99 129.678C959.99 129.312 960.038 128.979 960.134 128.679C960.23 128.379 960.368 128.124 960.548 127.914C960.734 127.698 960.956 127.533 961.214 127.419C961.478 127.305 961.772 127.248 962.096 127.248C962.42 127.248 962.711 127.305 962.969 127.419C963.233 127.533 963.455 127.698 963.635 127.914C963.821 128.124 963.962 128.379 964.058 128.679C964.154 128.979 964.202 129.312 964.202 129.678C964.202 130.05 964.154 130.386 964.058 130.686C963.962 130.98 963.821 131.235 963.635 131.451C963.455 131.661 963.233 131.823 962.969 131.937C962.711 132.051 962.42 132.108 962.096 132.108ZM962.096 131.487C962.498 131.487 962.822 131.367 963.068 131.127C963.314 130.887 963.437 130.515 963.437 130.011V129.345C963.437 128.841 963.314 128.469 963.068 128.229C962.822 127.989 962.498 127.869 962.096 127.869C961.694 127.869 961.37 127.989 961.124 128.229C960.878 128.469 960.755 128.841 960.755 129.345V130.011C960.755 130.515 960.878 130.887 961.124 131.127C961.37 131.367 961.694 131.487 962.096 131.487ZM965.711 133.188H967.961V127.968H965.63V127.356H968.681V132.738C968.681 133.05 968.597 133.305 968.429 133.503C968.267 133.701 968.009 133.8 967.655 133.8H965.711V133.188ZM968.321 126.33C968.111 126.33 967.964 126.288 967.88 126.204C967.796 126.114 967.754 126.003 967.754 125.871V125.727C967.754 125.595 967.796 125.487 967.88 125.403C967.964 125.313 968.111 125.268 968.321 125.268C968.531 125.268 968.678 125.313 968.762 125.403C968.846 125.487 968.888 125.595 968.888 125.727V125.871C968.888 126.003 968.846 126.114 968.762 126.204C968.678 126.288 968.531 126.33 968.321 126.33ZM972.889 132.108C972.565 132.108 972.271 132.051 972.007 131.937C971.749 131.823 971.527 131.661 971.341 131.451C971.161 131.235 971.023 130.98 970.927 130.686C970.831 130.386 970.783 130.05 970.783 129.678C970.783 129.312 970.831 128.979 970.927 128.679C971.023 128.379 971.161 128.124 971.341 127.914C971.527 127.698 971.749 127.533 972.007 127.419C972.271 127.305 972.565 127.248 972.889 127.248C973.213 127.248 973.504 127.305 973.762 127.419C974.026 127.533 974.248 127.698 974.428 127.914C974.614 128.124 974.755 128.379 974.851 128.679C974.947 128.979 974.995 129.312 974.995 129.678C974.995 130.05 974.947 130.386 974.851 130.686C974.755 130.98 974.614 131.235 974.428 131.451C974.248 131.661 974.026 131.823 973.762 131.937C973.504 132.051 973.213 132.108 972.889 132.108ZM972.889 131.487C973.291 131.487 973.615 131.367 973.861 131.127C974.107 130.887 974.23 130.515 974.23 130.011V129.345C974.23 128.841 974.107 128.469 973.861 128.229C973.615 127.989 973.291 127.869 972.889 127.869C972.487 127.869 972.163 127.989 971.917 128.229C971.671 128.469 971.548 128.841 971.548 129.345V130.011C971.548 130.515 971.671 130.887 971.917 131.127C972.163 131.367 972.487 131.487 972.889 131.487ZM978.286 132.081C978.04 132.081 977.866 132.03 977.764 131.928C977.668 131.826 977.62 131.697 977.62 131.541V131.379C977.62 131.223 977.668 131.094 977.764 130.992C977.866 130.89 978.04 130.839 978.286 130.839C978.532 130.839 978.703 130.89 978.799 130.992C978.901 131.094 978.952 131.223 978.952 131.379V131.541C978.952 131.697 978.901 131.826 978.799 131.928C978.703 132.03 978.532 132.081 978.286 132.081ZM978.286 128.517C978.04 128.517 977.866 128.466 977.764 128.364C977.668 128.262 977.62 128.133 977.62 127.977V127.815C977.62 127.659 977.668 127.53 977.764 127.428C977.866 127.326 978.04 127.275 978.286 127.275C978.532 127.275 978.703 127.326 978.799 127.428C978.901 127.53 978.952 127.659 978.952 127.815V127.977C978.952 128.133 978.901 128.262 978.799 128.364C978.703 128.466 978.532 128.517 978.286 128.517ZM987.126 131.388H988.692V127.968H987.036V127.356H988.692V126.402C988.692 126.09 988.773 125.835 988.935 125.637C989.103 125.439 989.364 125.34 989.718 125.34H991.275V125.952H989.412V127.356H991.275V127.968H989.412V131.388H991.068V132H987.126V131.388ZM992.468 131.388H993.827V127.968H992.468V127.356H994.547V128.526H994.592C994.688 128.16 994.868 127.875 995.132 127.671C995.402 127.461 995.744 127.356 996.158 127.356H996.806V128.076H995.933C995.519 128.076 995.183 128.196 994.925 128.436C994.673 128.676 994.547 128.991 994.547 129.381V131.388H996.347V132H992.468V131.388ZM999.872 132.108C999.548 132.108 999.254 132.051 998.99 131.937C998.732 131.823 998.51 131.661 998.324 131.451C998.144 131.235 998.006 130.98 997.91 130.686C997.814 130.386 997.766 130.05 997.766 129.678C997.766 129.312 997.814 128.979 997.91 128.679C998.006 128.379 998.144 128.124 998.324 127.914C998.51 127.698 998.732 127.533 998.99 127.419C999.254 127.305 999.548 127.248 999.872 127.248C1000.2 127.248 1000.49 127.305 1000.74 127.419C1001.01 127.533 1001.23 127.698 1001.41 127.914C1001.6 128.124 1001.74 128.379 1001.83 128.679C1001.93 128.979 1001.98 129.312 1001.98 129.678C1001.98 130.05 1001.93 130.386 1001.83 130.686C1001.74 130.98 1001.6 131.235 1001.41 131.451C1001.23 131.661 1001.01 131.823 1000.74 131.937C1000.49 132.051 1000.2 132.108 999.872 132.108ZM999.872 131.487C1000.27 131.487 1000.6 131.367 1000.84 131.127C1001.09 130.887 1001.21 130.515 1001.21 130.011V129.345C1001.21 128.841 1001.09 128.469 1000.84 128.229C1000.6 127.989 1000.27 127.869 999.872 127.869C999.47 127.869 999.146 127.989 998.9 128.229C998.654 128.469 998.531 128.841 998.531 129.345V130.011C998.531 130.515 998.654 130.887 998.9 131.127C999.146 131.367 999.47 131.487 999.872 131.487ZM1003.05 132V127.356H1003.72V127.896H1003.76C1003.83 127.716 1003.93 127.563 1004.06 127.437C1004.19 127.311 1004.39 127.248 1004.65 127.248C1004.92 127.248 1005.12 127.317 1005.25 127.455C1005.38 127.587 1005.46 127.761 1005.49 127.977H1005.52C1005.6 127.767 1005.72 127.593 1005.88 127.455C1006.04 127.317 1006.25 127.248 1006.53 127.248C1006.91 127.248 1007.16 127.38 1007.28 127.644C1007.42 127.908 1007.48 128.286 1007.48 128.778V132H1006.82V128.895C1006.82 128.499 1006.77 128.226 1006.69 128.076C1006.61 127.92 1006.47 127.842 1006.25 127.842C1006.06 127.842 1005.9 127.905 1005.78 128.031C1005.66 128.151 1005.6 128.337 1005.6 128.589V132H1004.94V128.895C1004.94 128.499 1004.89 128.226 1004.81 128.076C1004.73 127.92 1004.59 127.842 1004.38 127.842C1004.19 127.842 1004.03 127.905 1003.9 128.031C1003.78 128.151 1003.72 128.337 1003.72 128.589V132H1003.05ZM1015.87 132.099C1015.37 132.069 1014.96 131.955 1014.63 131.757C1014.3 131.553 1014.03 131.301 1013.81 131.001L1014.36 130.551C1014.58 130.821 1014.8 131.031 1015.04 131.181C1015.28 131.331 1015.56 131.421 1015.88 131.451V129.102L1015.67 129.066C1015.36 129.012 1015.1 128.931 1014.89 128.823C1014.68 128.709 1014.51 128.577 1014.39 128.427C1014.26 128.271 1014.17 128.1 1014.12 127.914C1014.06 127.722 1014.04 127.524 1014.04 127.32C1014.04 126.81 1014.2 126.411 1014.52 126.123C1014.85 125.829 1015.3 125.661 1015.87 125.619V124.701H1016.43V125.619C1016.84 125.649 1017.2 125.751 1017.5 125.925C1017.81 126.093 1018.07 126.33 1018.3 126.636L1017.74 127.041C1017.57 126.825 1017.39 126.651 1017.18 126.519C1016.97 126.387 1016.72 126.306 1016.42 126.276V128.481L1016.69 128.526C1017 128.58 1017.26 128.661 1017.47 128.769C1017.68 128.877 1017.84 129.009 1017.97 129.165C1018.1 129.315 1018.19 129.486 1018.25 129.678C1018.3 129.87 1018.33 130.071 1018.33 130.281C1018.33 130.809 1018.16 131.232 1017.83 131.55C1017.51 131.868 1017.04 132.051 1016.43 132.099V133.017H1015.87V132.099ZM1014.77 127.32C1014.77 127.614 1014.85 127.845 1015.02 128.013C1015.19 128.181 1015.48 128.307 1015.88 128.391V126.267C1015.52 126.303 1015.25 126.411 1015.05 126.591C1014.86 126.765 1014.77 127.008 1014.77 127.32ZM1017.6 130.29C1017.6 129.966 1017.51 129.72 1017.32 129.552C1017.14 129.384 1016.84 129.264 1016.42 129.192V131.442C1016.8 131.4 1017.09 131.28 1017.29 131.082C1017.5 130.884 1017.6 130.62 1017.6 130.29ZM1022.16 132V130.767H1019.06V130.101L1021.78 125.718H1022.88V130.146H1023.82V130.767H1022.88V132H1022.16ZM1019.74 130.146H1022.16V126.303H1022.12L1019.74 130.146ZM1026.85 132.108C1026.47 132.108 1026.14 132.036 1025.86 131.892C1025.59 131.742 1025.36 131.529 1025.18 131.253C1025 130.977 1024.87 130.638 1024.78 130.236C1024.7 129.834 1024.66 129.375 1024.66 128.859C1024.66 128.349 1024.7 127.893 1024.78 127.491C1024.87 127.083 1025 126.741 1025.18 126.465C1025.36 126.189 1025.59 125.979 1025.86 125.835C1026.14 125.685 1026.47 125.61 1026.85 125.61C1027.24 125.61 1027.57 125.685 1027.84 125.835C1028.12 125.979 1028.35 126.189 1028.53 126.465C1028.71 126.741 1028.84 127.083 1028.92 127.491C1029.01 127.893 1029.05 128.349 1029.05 128.859C1029.05 129.375 1029.01 129.834 1028.92 130.236C1028.84 130.638 1028.71 130.977 1028.53 131.253C1028.35 131.529 1028.12 131.742 1027.84 131.892C1027.57 132.036 1027.24 132.108 1026.85 132.108ZM1026.85 131.451C1027.11 131.451 1027.32 131.403 1027.5 131.307C1027.68 131.205 1027.83 131.064 1027.93 130.884C1028.05 130.704 1028.13 130.488 1028.19 130.236C1028.24 129.978 1028.27 129.69 1028.27 129.372V128.346C1028.27 128.034 1028.24 127.749 1028.19 127.491C1028.13 127.233 1028.05 127.014 1027.93 126.834C1027.83 126.654 1027.68 126.516 1027.5 126.42C1027.32 126.318 1027.11 126.267 1026.85 126.267C1026.6 126.267 1026.39 126.318 1026.21 126.42C1026.03 126.516 1025.88 126.654 1025.77 126.834C1025.66 127.014 1025.58 127.233 1025.52 127.491C1025.47 127.749 1025.44 128.034 1025.44 128.346V129.372C1025.44 129.69 1025.47 129.978 1025.52 130.236C1025.58 130.488 1025.66 130.704 1025.77 130.884C1025.88 131.064 1026.03 131.205 1026.21 131.307C1026.39 131.403 1026.6 131.451 1026.85 131.451ZM1026.85 129.39C1026.64 129.39 1026.5 129.348 1026.41 129.264C1026.34 129.18 1026.3 129.078 1026.3 128.958V128.76C1026.3 128.64 1026.34 128.538 1026.41 128.454C1026.5 128.37 1026.64 128.328 1026.85 128.328C1027.06 128.328 1027.21 128.37 1027.29 128.454C1027.37 128.538 1027.41 128.64 1027.41 128.76V128.958C1027.41 129.078 1027.37 129.18 1027.29 129.264C1027.21 129.348 1027.06 129.39 1026.85 129.39ZM1037.65 129.885C1037.4 129.885 1037.23 129.834 1037.13 129.732C1037.03 129.63 1036.98 129.501 1036.98 129.345V129.183C1036.98 129.027 1037.03 128.898 1037.13 128.796C1037.23 128.694 1037.4 128.643 1037.65 128.643C1037.89 128.643 1038.06 128.694 1038.16 128.796C1038.26 128.898 1038.31 129.027 1038.31 129.183V129.345C1038.31 129.501 1038.26 129.63 1038.16 129.732C1038.06 129.834 1037.89 129.885 1037.65 129.885ZM1050.07 132L1049.54 130.209H1047.33L1046.8 132H1046.02L1047.95 125.718H1048.94L1050.87 132H1050.07ZM1048.48 126.519H1048.4L1047.51 129.552H1049.36L1048.48 126.519ZM1056.19 132.531C1056.19 132.999 1055.99 133.344 1055.6 133.566C1055.21 133.794 1054.63 133.908 1053.85 133.908C1053.1 133.908 1052.56 133.809 1052.23 133.611C1051.9 133.413 1051.74 133.128 1051.74 132.756C1051.74 132.504 1051.81 132.309 1051.94 132.171C1052.07 132.033 1052.26 131.931 1052.5 131.865V131.757C1052.36 131.691 1052.26 131.607 1052.19 131.505C1052.12 131.403 1052.08 131.274 1052.08 131.118C1052.08 130.878 1052.16 130.698 1052.32 130.578C1052.48 130.458 1052.68 130.368 1052.92 130.308V130.272C1052.63 130.146 1052.41 129.96 1052.24 129.714C1052.09 129.468 1052.01 129.18 1052.01 128.85C1052.01 128.616 1052.05 128.4 1052.14 128.202C1052.22 128.004 1052.34 127.836 1052.5 127.698C1052.66 127.554 1052.85 127.443 1053.07 127.365C1053.29 127.287 1053.54 127.248 1053.81 127.248C1054.16 127.248 1054.46 127.311 1054.73 127.437V127.356C1054.73 127.176 1054.77 127.026 1054.85 126.906C1054.94 126.786 1055.08 126.726 1055.29 126.726H1056.14V127.356H1055.1V127.671C1055.26 127.815 1055.39 127.986 1055.48 128.184C1055.57 128.382 1055.62 128.604 1055.62 128.85C1055.62 129.084 1055.57 129.3 1055.48 129.498C1055.4 129.696 1055.28 129.867 1055.12 130.011C1054.97 130.149 1054.78 130.257 1054.55 130.335C1054.33 130.413 1054.08 130.452 1053.81 130.452C1053.73 130.452 1053.66 130.449 1053.58 130.443C1053.51 130.437 1053.44 130.428 1053.37 130.416C1053.3 130.428 1053.22 130.449 1053.14 130.479C1053.07 130.503 1052.99 130.539 1052.93 130.587C1052.86 130.629 1052.81 130.68 1052.77 130.74C1052.72 130.8 1052.7 130.869 1052.7 130.947C1052.7 131.085 1052.77 131.178 1052.91 131.226C1053.05 131.268 1053.23 131.289 1053.45 131.289H1054.48C1055.08 131.289 1055.51 131.403 1055.78 131.631C1056.05 131.853 1056.19 132.153 1056.19 132.531ZM1055.51 132.567C1055.51 132.381 1055.44 132.231 1055.29 132.117C1055.14 132.009 1054.87 131.955 1054.5 131.955H1052.89C1052.58 132.081 1052.42 132.291 1052.42 132.585C1052.42 132.789 1052.5 132.963 1052.67 133.107C1052.83 133.257 1053.1 133.332 1053.48 133.332H1054.18C1054.6 133.332 1054.93 133.266 1055.16 133.134C1055.39 133.008 1055.51 132.819 1055.51 132.567ZM1053.81 129.894C1054.17 129.894 1054.43 129.81 1054.6 129.642C1054.78 129.474 1054.86 129.252 1054.86 128.976V128.715C1054.86 128.439 1054.78 128.22 1054.6 128.058C1054.43 127.89 1054.17 127.806 1053.81 127.806C1053.45 127.806 1053.19 127.89 1053.02 128.058C1052.85 128.22 1052.77 128.439 1052.77 128.715V128.976C1052.77 129.252 1052.85 129.474 1053.02 129.642C1053.19 129.81 1053.45 129.894 1053.81 129.894ZM1059.31 132.108C1058.98 132.108 1058.68 132.051 1058.41 131.937C1058.14 131.823 1057.91 131.661 1057.72 131.451C1057.54 131.235 1057.39 130.98 1057.29 130.686C1057.19 130.386 1057.14 130.053 1057.14 129.687C1057.14 129.315 1057.19 128.979 1057.29 128.679C1057.4 128.379 1057.54 128.124 1057.73 127.914C1057.92 127.698 1058.14 127.533 1058.4 127.419C1058.66 127.305 1058.95 127.248 1059.27 127.248C1059.58 127.248 1059.86 127.305 1060.12 127.419C1060.37 127.533 1060.59 127.692 1060.77 127.896C1060.95 128.094 1061.09 128.331 1061.19 128.607C1061.28 128.883 1061.33 129.186 1061.33 129.516V129.858H1057.89V130.074C1057.89 130.278 1057.93 130.467 1057.99 130.641C1058.06 130.815 1058.15 130.965 1058.27 131.091C1058.4 131.217 1058.55 131.316 1058.72 131.388C1058.9 131.454 1059.1 131.487 1059.31 131.487C1059.63 131.487 1059.9 131.415 1060.12 131.271C1060.35 131.127 1060.53 130.929 1060.65 130.677L1061.18 131.037C1061.04 131.349 1060.81 131.607 1060.48 131.811C1060.17 132.009 1059.78 132.108 1059.31 132.108ZM1059.27 127.842C1059.07 127.842 1058.89 127.878 1058.72 127.95C1058.55 128.022 1058.41 128.121 1058.28 128.247C1058.16 128.373 1058.06 128.523 1057.99 128.697C1057.93 128.865 1057.89 129.051 1057.89 129.255V129.318H1060.56V129.219C1060.56 129.015 1060.52 128.829 1060.46 128.661C1060.4 128.493 1060.31 128.349 1060.2 128.229C1060.09 128.103 1059.95 128.007 1059.79 127.941C1059.64 127.875 1059.46 127.842 1059.27 127.842ZM1062.81 132V127.356H1063.53V128.112H1063.57C1063.62 127.998 1063.68 127.89 1063.75 127.788C1063.82 127.68 1063.91 127.587 1064.01 127.509C1064.12 127.431 1064.24 127.368 1064.39 127.32C1064.53 127.272 1064.7 127.248 1064.89 127.248C1065.38 127.248 1065.77 127.404 1066.06 127.716C1066.35 128.022 1066.5 128.457 1066.5 129.021V132H1065.78V129.147C1065.78 128.721 1065.69 128.406 1065.5 128.202C1065.32 127.992 1065.04 127.887 1064.68 127.887C1064.54 127.887 1064.4 127.905 1064.26 127.941C1064.12 127.977 1064 128.031 1063.89 128.103C1063.78 128.175 1063.7 128.268 1063.63 128.382C1063.56 128.496 1063.53 128.628 1063.53 128.778V132H1062.81ZM1070.19 132.108C1069.85 132.108 1069.55 132.051 1069.29 131.937C1069.03 131.817 1068.81 131.652 1068.63 131.442C1068.45 131.232 1068.31 130.977 1068.22 130.677C1068.13 130.377 1068.08 130.044 1068.08 129.678C1068.08 129.312 1068.13 128.979 1068.23 128.679C1068.32 128.379 1068.46 128.124 1068.64 127.914C1068.82 127.698 1069.04 127.533 1069.3 127.419C1069.56 127.305 1069.85 127.248 1070.18 127.248C1070.63 127.248 1071 127.347 1071.28 127.545C1071.56 127.743 1071.77 128.001 1071.9 128.319L1071.32 128.625C1071.24 128.385 1071.1 128.199 1070.9 128.067C1070.71 127.935 1070.47 127.869 1070.18 127.869C1069.97 127.869 1069.78 127.905 1069.61 127.977C1069.45 128.043 1069.31 128.139 1069.2 128.265C1069.08 128.391 1069 128.541 1068.94 128.715C1068.88 128.889 1068.86 129.078 1068.86 129.282V130.074C1068.86 130.278 1068.88 130.467 1068.94 130.641C1069 130.815 1069.08 130.965 1069.2 131.091C1069.31 131.217 1069.45 131.316 1069.62 131.388C1069.79 131.454 1069.98 131.487 1070.2 131.487C1070.51 131.487 1070.77 131.415 1070.97 131.271C1071.18 131.127 1071.34 130.929 1071.46 130.677L1071.97 131.028C1071.83 131.34 1071.62 131.598 1071.32 131.802C1071.03 132.006 1070.66 132.108 1070.19 132.108ZM1076.93 127.356H1077.65L1075.34 133.017C1075.29 133.149 1075.23 133.263 1075.16 133.359C1075.1 133.461 1075.02 133.542 1074.93 133.602C1074.84 133.668 1074.73 133.716 1074.6 133.746C1074.48 133.782 1074.33 133.8 1074.15 133.8H1073.47V133.188H1074.55L1075.07 131.91L1073.2 127.356H1073.94L1074.72 129.3L1075.41 131.064H1075.45L1076.14 129.3L1076.93 127.356ZM1080.82 132.081C1080.57 132.081 1080.4 132.03 1080.3 131.928C1080.2 131.826 1080.15 131.697 1080.15 131.541V131.379C1080.15 131.223 1080.2 131.094 1080.3 130.992C1080.4 130.89 1080.57 130.839 1080.82 130.839C1081.07 130.839 1081.24 130.89 1081.33 130.992C1081.43 131.094 1081.49 131.223 1081.49 131.379V131.541C1081.49 131.697 1081.43 131.826 1081.33 131.928C1081.24 132.03 1081.07 132.081 1080.82 132.081ZM1080.82 128.517C1080.57 128.517 1080.4 128.466 1080.3 128.364C1080.2 128.262 1080.15 128.133 1080.15 127.977V127.815C1080.15 127.659 1080.2 127.53 1080.3 127.428C1080.4 127.326 1080.57 127.275 1080.82 127.275C1081.07 127.275 1081.24 127.326 1081.33 127.428C1081.43 127.53 1081.49 127.659 1081.49 127.815V127.977C1081.49 128.133 1081.43 128.262 1081.33 128.364C1081.24 128.466 1081.07 128.517 1080.82 128.517ZM1089.66 131.388H1091.23V127.968H1089.57V127.356H1091.23V126.402C1091.23 126.09 1091.31 125.835 1091.47 125.637C1091.64 125.439 1091.9 125.34 1092.25 125.34H1093.81V125.952H1091.95V127.356H1093.81V127.968H1091.95V131.388H1093.6V132H1089.66V131.388ZM1095 131.388H1096.36V127.968H1095V127.356H1097.08V128.526H1097.13C1097.22 128.16 1097.4 127.875 1097.67 127.671C1097.94 127.461 1098.28 127.356 1098.69 127.356H1099.34V128.076H1098.47C1098.05 128.076 1097.72 128.196 1097.46 128.436C1097.21 128.676 1097.08 128.991 1097.08 129.381V131.388H1098.88V132H1095V131.388ZM1102.41 132.108C1102.08 132.108 1101.79 132.051 1101.52 131.937C1101.27 131.823 1101.04 131.661 1100.86 131.451C1100.68 131.235 1100.54 130.98 1100.44 130.686C1100.35 130.386 1100.3 130.05 1100.3 129.678C1100.3 129.312 1100.35 128.979 1100.44 128.679C1100.54 128.379 1100.68 128.124 1100.86 127.914C1101.04 127.698 1101.27 127.533 1101.52 127.419C1101.79 127.305 1102.08 127.248 1102.41 127.248C1102.73 127.248 1103.02 127.305 1103.28 127.419C1103.54 127.533 1103.76 127.698 1103.94 127.914C1104.13 128.124 1104.27 128.379 1104.37 128.679C1104.46 128.979 1104.51 129.312 1104.51 129.678C1104.51 130.05 1104.46 130.386 1104.37 130.686C1104.27 130.98 1104.13 131.235 1103.94 131.451C1103.76 131.661 1103.54 131.823 1103.28 131.937C1103.02 132.051 1102.73 132.108 1102.41 132.108ZM1102.41 131.487C1102.81 131.487 1103.13 131.367 1103.38 131.127C1103.62 130.887 1103.75 130.515 1103.75 130.011V129.345C1103.75 128.841 1103.62 128.469 1103.38 128.229C1103.13 127.989 1102.81 127.869 1102.41 127.869C1102 127.869 1101.68 127.989 1101.43 128.229C1101.19 128.469 1101.06 128.841 1101.06 129.345V130.011C1101.06 130.515 1101.19 130.887 1101.43 131.127C1101.68 131.367 1102 131.487 1102.41 131.487ZM1105.59 132V127.356H1106.25V127.896H1106.29C1106.36 127.716 1106.46 127.563 1106.6 127.437C1106.73 127.311 1106.92 127.248 1107.18 127.248C1107.45 127.248 1107.65 127.317 1107.78 127.455C1107.92 127.587 1108 127.761 1108.03 127.977H1108.05C1108.14 127.767 1108.26 127.593 1108.41 127.455C1108.57 127.317 1108.79 127.248 1109.06 127.248C1109.44 127.248 1109.69 127.38 1109.82 127.644C1109.95 127.908 1110.02 128.286 1110.02 128.778V132H1109.35V128.895C1109.35 128.499 1109.31 128.226 1109.22 128.076C1109.15 127.92 1109 127.842 1108.78 127.842C1108.59 127.842 1108.43 127.905 1108.31 128.031C1108.19 128.151 1108.13 128.337 1108.13 128.589V132H1107.47V128.895C1107.47 128.499 1107.43 128.226 1107.34 128.076C1107.26 127.92 1107.12 127.842 1106.91 127.842C1106.72 127.842 1106.56 127.905 1106.43 128.031C1106.31 128.151 1106.25 128.337 1106.25 128.589V132H1105.59ZM1118.41 132.099C1117.91 132.069 1117.49 131.955 1117.16 131.757C1116.83 131.553 1116.56 131.301 1116.34 131.001L1116.89 130.551C1117.11 130.821 1117.34 131.031 1117.58 131.181C1117.82 131.331 1118.1 131.421 1118.41 131.451V129.102L1118.21 129.066C1117.9 129.012 1117.63 128.931 1117.42 128.823C1117.21 128.709 1117.05 128.577 1116.92 128.427C1116.79 128.271 1116.7 128.1 1116.65 127.914C1116.6 127.722 1116.57 127.524 1116.57 127.32C1116.57 126.81 1116.73 126.411 1117.06 126.123C1117.39 125.829 1117.84 125.661 1118.41 125.619V124.701H1118.96V125.619C1119.38 125.649 1119.73 125.751 1120.03 125.925C1120.34 126.093 1120.61 126.33 1120.84 126.636L1120.27 127.041C1120.11 126.825 1119.92 126.651 1119.71 126.519C1119.51 126.387 1119.25 126.306 1118.95 126.276V128.481L1119.22 128.526C1119.53 128.58 1119.79 128.661 1120 128.769C1120.21 128.877 1120.38 129.009 1120.5 129.165C1120.63 129.315 1120.73 129.486 1120.78 129.678C1120.84 129.87 1120.86 130.071 1120.86 130.281C1120.86 130.809 1120.7 131.232 1120.37 131.55C1120.04 131.868 1119.58 132.051 1118.96 132.099V133.017H1118.41V132.099ZM1117.3 127.32C1117.3 127.614 1117.38 127.845 1117.55 128.013C1117.72 128.181 1118.01 128.307 1118.41 128.391V126.267C1118.05 126.303 1117.78 126.411 1117.59 126.591C1117.39 126.765 1117.3 127.008 1117.3 127.32ZM1120.13 130.29C1120.13 129.966 1120.04 129.72 1119.85 129.552C1119.67 129.384 1119.37 129.264 1118.95 129.192V131.442C1119.33 131.4 1119.62 131.28 1119.83 131.082C1120.03 130.884 1120.13 130.62 1120.13 130.29ZM1122.06 132V131.343H1123.86V126.276H1123.79L1122.21 127.752L1121.77 127.275L1123.43 125.718H1124.61V131.343H1126.27V132H1122.06ZM1129 130.776H1130.16L1129.13 133.269H1128.52L1129 130.776ZM1136.92 132H1132.72V131.226L1134.82 129.336C1135.13 129.06 1135.38 128.778 1135.58 128.49C1135.77 128.196 1135.87 127.887 1135.87 127.563V127.455C1135.87 127.077 1135.77 126.786 1135.58 126.582C1135.38 126.372 1135.08 126.267 1134.69 126.267C1134.31 126.267 1134.01 126.366 1133.8 126.564C1133.6 126.756 1133.45 127.014 1133.34 127.338L1132.67 127.086C1132.73 126.9 1132.81 126.72 1132.91 126.546C1133.02 126.366 1133.15 126.207 1133.32 126.069C1133.48 125.931 1133.67 125.82 1133.9 125.736C1134.14 125.652 1134.41 125.61 1134.71 125.61C1135.02 125.61 1135.3 125.655 1135.54 125.745C1135.79 125.835 1135.99 125.961 1136.15 126.123C1136.32 126.285 1136.45 126.477 1136.53 126.699C1136.62 126.921 1136.66 127.164 1136.66 127.428C1136.66 127.668 1136.63 127.893 1136.56 128.103C1136.49 128.313 1136.39 128.514 1136.27 128.706C1136.15 128.898 1136 129.087 1135.83 129.273C1135.66 129.453 1135.47 129.633 1135.26 129.813L1133.51 131.343H1136.92V132ZM1140.18 132.108C1139.8 132.108 1139.47 132.036 1139.19 131.892C1138.91 131.742 1138.69 131.529 1138.51 131.253C1138.33 130.977 1138.19 130.638 1138.11 130.236C1138.03 129.834 1137.98 129.375 1137.98 128.859C1137.98 128.349 1138.03 127.893 1138.11 127.491C1138.19 127.083 1138.33 126.741 1138.51 126.465C1138.69 126.189 1138.91 125.979 1139.19 125.835C1139.47 125.685 1139.8 125.61 1140.18 125.61C1140.56 125.61 1140.89 125.685 1141.17 125.835C1141.45 125.979 1141.67 126.189 1141.85 126.465C1142.03 126.741 1142.17 127.083 1142.25 127.491C1142.33 127.893 1142.38 128.349 1142.38 128.859C1142.38 129.375 1142.33 129.834 1142.25 130.236C1142.17 130.638 1142.03 130.977 1141.85 131.253C1141.67 131.529 1141.45 131.742 1141.17 131.892C1140.89 132.036 1140.56 132.108 1140.18 132.108ZM1140.18 131.451C1140.43 131.451 1140.65 131.403 1140.83 131.307C1141.01 131.205 1141.15 131.064 1141.26 130.884C1141.37 130.704 1141.46 130.488 1141.51 130.236C1141.57 129.978 1141.59 129.69 1141.59 129.372V128.346C1141.59 128.034 1141.57 127.749 1141.51 127.491C1141.46 127.233 1141.37 127.014 1141.26 126.834C1141.15 126.654 1141.01 126.516 1140.83 126.42C1140.65 126.318 1140.43 126.267 1140.18 126.267C1139.93 126.267 1139.71 126.318 1139.53 126.42C1139.35 126.516 1139.21 126.654 1139.09 126.834C1138.98 127.014 1138.9 127.233 1138.85 127.491C1138.79 127.749 1138.77 128.034 1138.77 128.346V129.372C1138.77 129.69 1138.79 129.978 1138.85 130.236C1138.9 130.488 1138.98 130.704 1139.09 130.884C1139.21 131.064 1139.35 131.205 1139.53 131.307C1139.71 131.403 1139.93 131.451 1140.18 131.451ZM1140.18 129.39C1139.97 129.39 1139.82 129.348 1139.74 129.264C1139.66 129.18 1139.62 129.078 1139.62 128.958V128.76C1139.62 128.64 1139.66 128.538 1139.74 128.454C1139.82 128.37 1139.97 128.328 1140.18 128.328C1140.39 128.328 1140.53 128.37 1140.61 128.454C1140.7 128.538 1140.74 128.64 1140.74 128.76V128.958C1140.74 129.078 1140.7 129.18 1140.61 129.264C1140.53 129.348 1140.39 129.39 1140.18 129.39ZM1145.58 132.108C1145.19 132.108 1144.86 132.036 1144.59 131.892C1144.31 131.742 1144.08 131.529 1143.9 131.253C1143.72 130.977 1143.59 130.638 1143.51 130.236C1143.42 129.834 1143.38 129.375 1143.38 128.859C1143.38 128.349 1143.42 127.893 1143.51 127.491C1143.59 127.083 1143.72 126.741 1143.9 126.465C1144.08 126.189 1144.31 125.979 1144.59 125.835C1144.86 125.685 1145.19 125.61 1145.58 125.61C1145.96 125.61 1146.29 125.685 1146.57 125.835C1146.84 125.979 1147.07 126.189 1147.25 126.465C1147.43 126.741 1147.56 127.083 1147.65 127.491C1147.73 127.893 1147.77 128.349 1147.77 128.859C1147.77 129.375 1147.73 129.834 1147.65 130.236C1147.56 130.638 1147.43 130.977 1147.25 131.253C1147.07 131.529 1146.84 131.742 1146.57 131.892C1146.29 132.036 1145.96 132.108 1145.58 132.108ZM1145.58 131.451C1145.83 131.451 1146.04 131.403 1146.22 131.307C1146.4 131.205 1146.55 131.064 1146.66 130.884C1146.77 130.704 1146.85 130.488 1146.91 130.236C1146.96 129.978 1146.99 129.69 1146.99 129.372V128.346C1146.99 128.034 1146.96 127.749 1146.91 127.491C1146.85 127.233 1146.77 127.014 1146.66 126.834C1146.55 126.654 1146.4 126.516 1146.22 126.42C1146.04 126.318 1145.83 126.267 1145.58 126.267C1145.32 126.267 1145.11 126.318 1144.93 126.42C1144.75 126.516 1144.6 126.654 1144.49 126.834C1144.38 127.014 1144.3 127.233 1144.24 127.491C1144.19 127.749 1144.16 128.034 1144.16 128.346V129.372C1144.16 129.69 1144.19 129.978 1144.24 130.236C1144.3 130.488 1144.38 130.704 1144.49 130.884C1144.6 131.064 1144.75 131.205 1144.93 131.307C1145.11 131.403 1145.32 131.451 1145.58 131.451ZM1145.58 129.39C1145.37 129.39 1145.22 129.348 1145.14 129.264C1145.06 129.18 1145.02 129.078 1145.02 128.958V128.76C1145.02 128.64 1145.06 128.538 1145.14 128.454C1145.22 128.37 1145.37 128.328 1145.58 128.328C1145.79 128.328 1145.93 128.37 1146.01 128.454C1146.09 128.538 1146.13 128.64 1146.13 128.76V128.958C1146.13 129.078 1146.09 129.18 1146.01 129.264C1145.93 129.348 1145.79 129.39 1145.58 129.39Z" fill="#F8F8F2" fill-opacity="0.4"/>
<defs>
<linearGradient id="paint0_linear_184_5214" x1="16" y1="50" x2="280" y2="50" gradientUnits="userSpaceOnUse">
<stop stop-color="#32323C"/>
<stop offset="1" stop-color="#DEFF00"/>
</linearGradient>
<linearGradient id="paint1_linear_184_5214" x1="16" y1="154.722" x2="570" y2="154.722" gradientUnits="userSpaceOnUse">
<stop stop-color="#32323C"/>
<stop offset="1" stop-color="#A448FA"/>
</linearGradient>
<linearGradient id="paint2_linear_184_5214" x1="296" y1="50.0001" x2="570" y2="50.0001" gradientUnits="userSpaceOnUse">
<stop stop-color="#DEFF00"/>
<stop offset="1" stop-color="#A448FA"/>
</linearGradient>
<linearGradient id="paint3_linear_184_5214" x1="586" y1="100" x2="930" y2="100" gradientUnits="userSpaceOnUse">
<stop stop-color="#A448FA"/>
<stop offset="1" stop-color="#1E1E1E"/>
</linearGradient>
</defs>
</svg>
